NotoSansLepcha-Regular.ufo
<glyph name="uni1C00" format="2">
  <advance width="602"/>
  <unicode hex="1C00"/>
  <note>
u1C00
</note>
  <outline>
    <contour>
      <point x="335" y="243" type="curve" smooth="yes"/>
      <point x="428" y="243"/>
      <point x="500" y="251"/>
      <point x="567" y="271" type="curve"/>
      <point x="567" y="351" type="line"/>
      <point x="495" y="331"/>
      <point x="419" y="323"/>
      <point x="334" y="323" type="curve" smooth="yes"/>
      <point x="273" y="323"/>
      <point x="217" y="326"/>
      <point x="162" y="335" type="curve"/>
      <point x="172" y="392"/>
      <point x="192" y="448"/>
      <point x="220" y="498" type="curve"/>
      <point x="254" y="493"/>
      <point x="291" y="491"/>
      <point x="330" y="491" type="curve" smooth="yes"/>
      <point x="399" y="491"/>
      <point x="460" y="498"/>
      <point x="510" y="515" type="curve"/>
      <point x="510" y="593" type="line"/>
      <point x="461" y="579"/>
      <point x="398" y="571"/>
      <point x="332" y="571" type="curve" smooth="yes"/>
      <point x="270" y="571"/>
      <point x="214" y="577"/>
      <point x="166" y="589" type="curve"/>
      <point x="95" y="453"/>
      <point x="70" y="359"/>
      <point x="70" y="246" type="curve" smooth="yes"/>
      <point x="70" y="64"/>
      <point x="159" y="-7"/>
      <point x="381" y="-7" type="curve" smooth="yes"/>
      <point x="434" y="-7"/>
      <point x="481" y="-1"/>
      <point x="519" y="12" type="curve"/>
      <point x="519" y="92" type="line"/>
      <point x="481" y="80"/>
      <point x="430" y="74"/>
      <point x="380" y="74" type="curve" smooth="yes"/>
      <point x="220" y="74"/>
      <point x="154" y="115"/>
      <point x="154" y="250" type="curve" smooth="yes"/>
      <point x="154" y="258" type="line"/>
      <point x="213" y="248"/>
      <point x="275" y="243"/>
    </contour>
  </outline>
</glyph>
<glyph name="uni1C01" format="2">
  <advance width="541"/>
  <unicode hex="1C01"/>
  <note>
u1C01
</note>
  <outline>
    <contour>
      <point x="177" y="500" type="line"/>
      <point x="209" y="494"/>
      <point x="244" y="491"/>
      <point x="282" y="491" type="curve" smooth="yes"/>
      <point x="357" y="491"/>
      <point x="418" y="499"/>
      <point x="466" y="515" type="curve"/>
      <point x="466" y="593" type="line"/>
      <point x="414" y="578"/>
      <point x="352" y="571"/>
      <point x="282" y="571" type="curve" smooth="yes"/>
      <point x="223" y="571"/>
      <point x="168" y="578"/>
      <point x="117" y="593" type="curve"/>
      <point x="35" y="266" type="line"/>
      <point x="116" y="218" type="line"/>
      <point x="164" y="256"/>
      <point x="214" y="275"/>
      <point x="265" y="275" type="curve" smooth="yes"/>
      <point x="337" y="275"/>
      <point x="373" y="239"/>
      <point x="373" y="166" type="curve" smooth="yes"/>
      <point x="373" y="107"/>
      <point x="348" y="52"/>
      <point x="299" y="0" type="curve"/>
      <point x="398" y="0" type="line"/>
      <point x="438" y="49"/>
      <point x="458" y="104"/>
      <point x="458" y="165" type="curve" smooth="yes"/>
      <point x="458" y="280"/>
      <point x="391" y="353"/>
      <point x="267" y="353" type="curve" smooth="yes"/>
      <point x="214" y="353"/>
      <point x="167" y="338"/>
      <point x="124" y="309" type="curve"/>
      <point x="121" y="310" type="line"/>
      <point x="134" y="339"/>
      <point x="144" y="370"/>
      <point x="152" y="401" type="curve" smooth="yes"/>
    </contour>
  </outline>
</glyph>
<glyph name="uni1C02" format="2">
  <advance width="648"/>
  <unicode hex="1C02"/>
  <note>
u1C02
</note>
  <outline>
    <contour>
      <point x="519" y="593" type="curve" smooth="yes"/>
      <point x="433" y="593"/>
      <point x="376" y="539"/>
      <point x="376" y="453" type="curve" smooth="yes"/>
      <point x="376" y="342"/>
      <point x="462" y="282"/>
      <point x="462" y="192" type="curve" smooth="yes"/>
      <point x="462" y="118"/>
      <point x="417" y="69"/>
      <point x="329" y="69" type="curve" smooth="yes"/>
      <point x="214" y="69"/>
      <point x="150" y="130"/>
      <point x="150" y="254" type="curve" smooth="yes"/>
      <point x="150" y="354"/>
      <point x="178" y="440"/>
      <point x="274" y="583" type="curve"/>
      <point x="178" y="583" type="line"/>
      <point x="99" y="458"/>
      <point x="67" y="360"/>
      <point x="67" y="254" type="curve" smooth="yes"/>
      <point x="67" y="82"/>
      <point x="171" y="-13"/>
      <point x="328" y="-13" type="curve" smooth="yes"/>
      <point x="464" y="-13"/>
      <point x="547" y="79"/>
      <point x="547" y="192" type="curve" smooth="yes"/>
      <point x="547" y="305"/>
      <point x="462" y="364"/>
      <point x="462" y="454" type="curve" smooth="yes"/>
      <point x="462" y="495"/>
      <point x="480" y="513"/>
      <point x="516" y="513" type="curve" smooth="yes"/>
      <point x="541" y="513"/>
      <point x="559" y="502"/>
      <point x="587" y="473" type="curve"/>
      <point x="642" y="534" type="line"/>
      <point x="608" y="569"/>
      <point x="573" y="593"/>
    </contour>
  </outline>
</glyph>
<glyph name="uni1C03" format="2">
  <advance width="933"/>
  <unicode hex="1C03"/>
  <note>
u1C03
</note>
  <outline>
    <contour>
      <point x="613" y="607" type="curve"/>
      <point x="579" y="530" type="line"/>
      <point x="714" y="468"/>
      <point x="777" y="381"/>
      <point x="777" y="245" type="curve" smooth="yes"/>
      <point x="777" y="118"/>
      <point x="721" y="69"/>
      <point x="640" y="69" type="curve" smooth="yes"/>
      <point x="562" y="69"/>
      <point x="508" y="130"/>
      <point x="508" y="321" type="curve"/>
      <point x="424" y="321" type="line"/>
      <point x="424" y="130"/>
      <point x="371" y="69"/>
      <point x="293" y="69" type="curve" smooth="yes"/>
      <point x="211" y="69"/>
      <point x="155" y="118"/>
      <point x="155" y="245" type="curve" smooth="yes"/>
      <point x="155" y="381"/>
      <point x="218" y="468"/>
      <point x="354" y="530" type="curve"/>
      <point x="318" y="607" type="line"/>
      <point x="151" y="531"/>
      <point x="70" y="405"/>
      <point x="70" y="243" type="curve" smooth="yes"/>
      <point x="70" y="79"/>
      <point x="157" y="-12"/>
      <point x="286" y="-12" type="curve" smooth="yes"/>
      <point x="366" y="-12"/>
      <point x="432" y="23"/>
      <point x="464" y="117" type="curve" smooth="yes"/>
      <point x="468" y="117" type="line" smooth="yes"/>
      <point x="500" y="23"/>
      <point x="567" y="-12"/>
      <point x="647" y="-12" type="curve" smooth="yes"/>
      <point x="776" y="-12"/>
      <point x="863" y="79"/>
      <point x="863" y="243" type="curve" smooth="yes"/>
      <point x="863" y="405"/>
      <point x="781" y="531"/>
    </contour>
  </outline>
</glyph>
<glyph name="uni1C04" format="2">
  <advance width="933"/>
  <unicode hex="1C04"/>
  <note>
u1C04
</note>
  <outline>
    <contour>
      <point x="906" y="279" type="line"/>
      <point x="906" y="354" type="line"/>
      <point x="849" y="354" type="line"/>
      <point x="817" y="465"/>
      <point x="739" y="550"/>
      <point x="613" y="607" type="curve"/>
      <point x="579" y="530" type="line"/>
      <point x="674" y="486"/>
      <point x="734" y="427"/>
      <point x="760" y="354" type="curve"/>
      <point x="172" y="354" type="line"/>
      <point x="198" y="427"/>
      <point x="259" y="486"/>
      <point x="354" y="530" type="curve"/>
      <point x="318" y="607" type="line"/>
      <point x="192" y="550"/>
      <point x="115" y="465"/>
      <point x="84" y="354" type="curve"/>
      <point x="27" y="354" type="line"/>
      <point x="27" y="279" type="line"/>
      <point x="71" y="279" type="line"/>
      <point x="70" y="271"/>
      <point x="70" y="259"/>
      <point x="70" y="243" type="curve" smooth="yes"/>
      <point x="70" y="82"/>
      <point x="154" y="-12"/>
      <point x="286" y="-12" type="curve" smooth="yes"/>
      <point x="375" y="-12"/>
      <point x="435" y="31"/>
      <point x="464" y="117" type="curve"/>
      <point x="468" y="117" type="line"/>
      <point x="498" y="31"/>
      <point x="557" y="-12"/>
      <point x="647" y="-12" type="curve" smooth="yes"/>
      <point x="779" y="-12"/>
      <point x="863" y="82"/>
      <point x="863" y="243" type="curve" smooth="yes"/>
      <point x="863" y="259"/>
      <point x="862" y="271"/>
      <point x="862" y="279" type="curve"/>
    </contour>
    <contour>
      <point x="423" y="279" type="line"/>
      <point x="417" y="139"/>
      <point x="375" y="69"/>
      <point x="293" y="69" type="curve" smooth="yes"/>
      <point x="201" y="69"/>
      <point x="155" y="127"/>
      <point x="155" y="245" type="curve" smooth="yes"/>
      <point x="155" y="260"/>
      <point x="155" y="271"/>
      <point x="156" y="279" type="curve"/>
    </contour>
    <contour>
      <point x="776" y="279" type="line"/>
      <point x="776" y="271"/>
      <point x="777" y="260"/>
      <point x="777" y="245" type="curve" smooth="yes"/>
      <point x="777" y="127"/>
      <point x="731" y="69"/>
      <point x="640" y="69" type="curve" smooth="yes"/>
      <point x="559" y="69"/>
      <point x="515" y="139"/>
      <point x="509" y="279" type="curve"/>
    </contour>
  </outline>
</glyph>
<glyph name="uni1C05" format="2">
  <advance width="429"/>
  <unicode hex="1C05"/>
  <note>
u1C05
</note>
  <outline>
    <contour>
      <point x="20" y="515" type="line"/>
      <point x="68" y="499"/>
      <point x="129" y="491"/>
      <point x="204" y="491" type="curve" smooth="yes"/>
      <point x="227" y="491"/>
      <point x="246" y="493"/>
      <point x="263" y="495" type="curve"/>
      <point x="186" y="408"/>
      <point x="147" y="317"/>
      <point x="147" y="225" type="curve" smooth="yes"/>
      <point x="147" y="137"/>
      <point x="172" y="62"/>
      <point x="222" y="0" type="curve"/>
      <point x="318" y="0" type="line"/>
      <point x="258" y="72"/>
      <point x="232" y="139"/>
      <point x="232" y="225" type="curve" smooth="yes"/>
      <point x="232" y="324"/>
      <point x="284" y="421"/>
      <point x="389" y="516" type="curve"/>
      <point x="389" y="593" type="line"/>
      <point x="326" y="578"/>
      <point x="264" y="571"/>
      <point x="204" y="571" type="curve" smooth="yes"/>
      <point x="134" y="571"/>
      <point x="73" y="578"/>
      <point x="20" y="593" type="curve"/>
    </contour>
  </outline>
</glyph>
<glyph name="uni1C06" format="2">
  <advance width="677"/>
  <unicode hex="1C06"/>
  <note>
u1C06
</note>
  <outline>
    <contour>
      <point x="375" y="601" type="curve" smooth="yes"/>
      <point x="246" y="601"/>
      <point x="143" y="462"/>
      <point x="143" y="294" type="curve" smooth="yes"/>
      <point x="143" y="126"/>
      <point x="246" y="-14"/>
      <point x="375" y="-14" type="curve" smooth="yes"/>
      <point x="504" y="-14"/>
      <point x="607" y="126"/>
      <point x="607" y="294" type="curve" smooth="yes"/>
      <point x="607" y="462"/>
      <point x="504" y="601"/>
    </contour>
    <contour>
      <point x="171" y="335" type="line"/>
      <point x="23" y="335" type="line"/>
      <point x="23" y="254" type="line"/>
      <point x="171" y="254" type="line"/>
    </contour>
    <contour>
      <point x="375" y="520" type="curve" smooth="yes"/>
      <point x="453" y="520"/>
      <point x="523" y="415"/>
      <point x="523" y="294" type="curve" smooth="yes"/>
      <point x="523" y="173"/>
      <point x="453" y="68"/>
      <point x="375" y="68" type="curve" smooth="yes"/>
      <point x="297" y="68"/>
      <point x="227" y="173"/>
      <point x="227" y="294" type="curve" smooth="yes"/>
      <point x="227" y="415"/>
      <point x="297" y="520"/>
    </contour>
  </outline>
</glyph>
<glyph name="uni1C07" format="2">
  <advance width="695"/>
  <unicode hex="1C07"/>
  <note>
u1C07
</note>
  <outline>
    <contour>
      <point x="418" y="457" type="curve" smooth="yes"/>
      <point x="418" y="502"/>
      <point x="447" y="525"/>
      <point x="502" y="525" type="curve" smooth="yes"/>
      <point x="542" y="525"/>
      <point x="577" y="519"/>
      <point x="623" y="500" type="curve"/>
      <point x="623" y="584" type="line"/>
      <point x="582" y="599"/>
      <point x="546" y="606"/>
      <point x="499" y="606" type="curve" smooth="yes"/>
      <point x="419" y="606"/>
      <point x="369" y="570"/>
      <point x="349" y="517" type="curve"/>
      <point x="346" y="517" type="line"/>
      <point x="326" y="570"/>
      <point x="276" y="606"/>
      <point x="196" y="606" type="curve" smooth="yes"/>
      <point x="149" y="606"/>
      <point x="114" y="599"/>
      <point x="73" y="584" type="curve"/>
      <point x="73" y="499" type="line"/>
      <point x="118" y="519"/>
      <point x="153" y="525"/>
      <point x="193" y="525" type="curve" smooth="yes"/>
      <point x="248" y="525"/>
      <point x="277" y="502"/>
      <point x="277" y="457" type="curve" smooth="yes"/>
      <point x="277" y="403"/>
      <point x="226" y="304"/>
      <point x="28" y="71" type="curve"/>
      <point x="84" y="-18" type="line"/>
      <point x="204" y="17"/>
      <point x="273" y="25"/>
      <point x="348" y="25" type="curve" smooth="yes"/>
      <point x="422" y="25"/>
      <point x="491" y="17"/>
      <point x="611" y="-18" type="curve"/>
      <point x="668" y="71" type="line"/>
      <point x="469" y="304"/>
      <point x="418" y="403"/>
    </contour>
    <contour>
      <point x="569" y="70" type="line"/>
      <point x="486" y="96"/>
      <point x="424" y="107"/>
      <point x="348" y="107" type="curve" smooth="yes"/>
      <point x="271" y="107"/>
      <point x="210" y="97"/>
      <point x="127" y="70" type="curve"/>
      <point x="127" y="74" type="line"/>
      <point x="258" y="230"/>
      <point x="324" y="333"/>
      <point x="346" y="407" type="curve"/>
      <point x="349" y="407" type="line"/>
      <point x="371" y="333"/>
      <point x="437" y="230"/>
      <point x="569" y="74" type="curve"/>
    </contour>
  </outline>
</glyph>
<glyph name="uni1C08" format="2">
  <advance width="713"/>
  <unicode hex="1C08"/>
  <note>
u1C08
</note>
  <outline>
    <contour>
      <point x="614" y="596" type="curve" smooth="yes"/>
      <point x="566" y="596"/>
      <point x="521" y="586"/>
      <point x="481" y="565" type="curve"/>
      <point x="443" y="586"/>
      <point x="398" y="596"/>
      <point x="347" y="596" type="curve" smooth="yes"/>
      <point x="191" y="596"/>
      <point x="70" y="485"/>
      <point x="70" y="257" type="curve" smooth="yes"/>
      <point x="70" y="159"/>
      <point x="86" y="77"/>
      <point x="115" y="0" type="curve"/>
      <point x="205" y="0" type="line"/>
      <point x="174" y="82"/>
      <point x="155" y="166"/>
      <point x="155" y="259" type="curve" smooth="yes"/>
      <point x="155" y="440"/>
      <point x="240" y="515"/>
      <point x="344" y="515" type="curve" smooth="yes"/>
      <point x="354" y="515"/>
      <point x="368" y="514"/>
      <point x="378" y="512" type="curve"/>
      <point x="378" y="508" type="line"/>
      <point x="322" y="460"/>
      <point x="295" y="396"/>
      <point x="295" y="328" type="curve" smooth="yes"/>
      <point x="295" y="220"/>
      <point x="357" y="140"/>
      <point x="476" y="140" type="curve" smooth="yes"/>
      <point x="595" y="140"/>
      <point x="657" y="220"/>
      <point x="657" y="328" type="curve" smooth="yes"/>
      <point x="657" y="394"/>
      <point x="633" y="458"/>
      <point x="584" y="507" type="curve"/>
      <point x="584" y="511" type="line"/>
      <point x="595" y="514"/>
      <point x="606" y="515"/>
      <point x="620" y="515" type="curve" smooth="yes"/>
      <point x="649" y="515"/>
      <point x="681" y="511"/>
      <point x="703" y="504" type="curve"/>
      <point x="703" y="585" type="line"/>
      <point x="681" y="592"/>
      <point x="651" y="596"/>
    </contour>
    <contour>
      <point x="478" y="487" type="curve"/>
      <point x="542" y="455"/>
      <point x="573" y="397"/>
      <point x="573" y="327" type="curve" smooth="yes"/>
      <point x="573" y="263"/>
      <point x="540" y="221"/>
      <point x="476" y="221" type="curve" smooth="yes"/>
      <point x="412" y="221"/>
      <point x="379" y="263"/>
      <point x="379" y="327" type="curve" smooth="yes"/>
      <point x="379" y="397"/>
      <point x="411" y="455"/>
    </contour>
  </outline>
</glyph>
<glyph name="uni1C09" format="2">
  <advance width="610"/>
  <unicode hex="1C09"/>
  <note>
u1C09
</note>
  <outline>
    <contour>
      <point x="542" y="593" type="line"/>
      <point x="474" y="572"/>
      <point x="390" y="561"/>
      <point x="291" y="561" type="curve" smooth="yes"/>
      <point x="192" y="561"/>
      <point x="109" y="572"/>
      <point x="40" y="593" type="curve"/>
      <point x="40" y="515" type="line"/>
      <point x="94" y="497"/>
      <point x="156" y="486"/>
      <point x="225" y="482" type="curve"/>
      <point x="32" y="278" type="line"/>
      <point x="152" y="182"/>
      <point x="208" y="109"/>
      <point x="245" y="0" type="curve"/>
      <point x="335" y="0" type="line"/>
      <point x="294" y="120"/>
      <point x="239" y="201"/>
      <point x="150" y="281" type="curve"/>
      <point x="280" y="419" type="line"/>
      <point x="346" y="333"/>
      <point x="423" y="256"/>
      <point x="511" y="191" type="curve"/>
      <point x="560" y="259" type="line"/>
      <point x="471" y="324"/>
      <point x="395" y="397"/>
      <point x="334" y="481" type="curve"/>
      <point x="411" y="483"/>
      <point x="480" y="495"/>
      <point x="542" y="515" type="curve"/>
    </contour>
  </outline>
</glyph>
<glyph name="uni1C0A" format="2">
  <advance width="639"/>
  <unicode hex="1C0A"/>
  <note>
u1C0A
</note>
  <outline>
    <contour>
      <point x="554" y="420" type="curve" smooth="yes"/>
      <point x="361" y="605" type="line"/>
      <point x="303" y="544" type="line"/>
      <point x="494" y="361" type="line" smooth="yes"/>
      <point x="524" y="333"/>
      <point x="530" y="319"/>
      <point x="530" y="299" type="curve" smooth="yes"/>
      <point x="530" y="263"/>
      <point x="506" y="239"/>
      <point x="467" y="239" type="curve" smooth="yes"/>
      <point x="446" y="239"/>
      <point x="434" y="246"/>
      <point x="409" y="270" type="curve" smooth="yes"/>
      <point x="217" y="456" type="line"/>
      <point x="15" y="249" type="line"/>
      <point x="291" y="-16" type="line"/>
      <point x="349" y="45" type="line"/>
      <point x="133" y="252" type="line"/>
      <point x="219" y="339" type="line"/>
      <point x="350" y="211" type="line" smooth="yes"/>
      <point x="392" y="170"/>
      <point x="419" y="156"/>
      <point x="467" y="156" type="curve" smooth="yes"/>
      <point x="547" y="156"/>
      <point x="614" y="219"/>
      <point x="614" y="300" type="curve" smooth="yes"/>
      <point x="614" y="343"/>
      <point x="601" y="374"/>
    </contour>
  </outline>
</glyph>
<glyph name="uni1C0B" format="2">
  <advance width="666"/>
  <unicode hex="1C0B"/>
  <note>
u1C0B
</note>
  <outline>
    <contour>
      <point x="55" y="583" type="line"/>
      <point x="42" y="553"/>
      <point x="35" y="519"/>
      <point x="35" y="481" type="curve" smooth="yes"/>
      <point x="35" y="352"/>
      <point x="93" y="255"/>
      <point x="204" y="212" type="curve"/>
      <point x="204" y="202"/>
      <point x="203" y="191"/>
      <point x="203" y="181" type="curve" smooth="yes"/>
      <point x="203" y="117"/>
      <point x="208" y="57"/>
      <point x="218" y="0" type="curve"/>
      <point x="304" y="0" type="line"/>
      <point x="293" y="62"/>
      <point x="287" y="122"/>
      <point x="287" y="181" type="curve" smooth="yes"/>
      <point x="287" y="192" type="line"/>
      <point x="304" y="190"/>
      <point x="323" y="189"/>
      <point x="343" y="189" type="curve" smooth="yes"/>
      <point x="507" y="189"/>
      <point x="631" y="272"/>
      <point x="631" y="421" type="curve" smooth="yes"/>
      <point x="631" y="524"/>
      <point x="572" y="593"/>
      <point x="459" y="593" type="curve" smooth="yes"/>
      <point x="332" y="593"/>
      <point x="238" y="485"/>
      <point x="211" y="297" type="curve"/>
      <point x="150" y="331"/>
      <point x="120" y="392"/>
      <point x="120" y="481" type="curve" smooth="yes"/>
      <point x="120" y="517"/>
      <point x="127" y="551"/>
      <point x="140" y="583" type="curve"/>
    </contour>
    <contour>
      <point x="342" y="270" type="curve" smooth="yes"/>
      <point x="324" y="270"/>
      <point x="307" y="271"/>
      <point x="291" y="273" type="curve"/>
      <point x="305" y="431"/>
      <point x="365" y="512"/>
      <point x="459" y="512" type="curve" smooth="yes"/>
      <point x="519" y="512"/>
      <point x="548" y="477"/>
      <point x="548" y="421" type="curve" smooth="yes"/>
      <point x="548" y="328"/>
      <point x="479" y="270"/>
    </contour>
  </outline>
</glyph>
<glyph name="uni1C0C" format="2">
  <advance width="607"/>
  <unicode hex="1C0C"/>
  <note>
u1C0C
</note>
  <outline>
    <contour>
      <point x="303" y="268" type="curve" smooth="yes"/>
      <point x="205" y="268"/>
      <point x="114" y="248"/>
      <point x="39" y="210" type="curve"/>
      <point x="39" y="130" type="line"/>
      <point x="113" y="168"/>
      <point x="204" y="188"/>
      <point x="303" y="188" type="curve" smooth="yes"/>
      <point x="403" y="188"/>
      <point x="494" y="168"/>
      <point x="568" y="130" type="curve"/>
      <point x="568" y="210" type="line"/>
      <point x="493" y="248"/>
      <point x="402" y="268"/>
    </contour>
    <contour>
      <point x="345" y="519" type="line"/>
      <point x="262" y="519" type="line"/>
      <point x="262" y="209" type="line"/>
      <point x="345" y="209" type="line"/>
    </contour>
    <contour>
      <point x="568" y="593" type="line"/>
      <point x="494" y="571"/>
      <point x="403" y="561"/>
      <point x="303" y="561" type="curve" smooth="yes"/>
      <point x="204" y="561"/>
      <point x="113" y="571"/>
      <point x="39" y="593" type="curve"/>
      <point x="39" y="515" type="line"/>
      <point x="114" y="492"/>
      <point x="205" y="480"/>
      <point x="303" y="480" type="curve" smooth="yes"/>
      <point x="402" y="480"/>
      <point x="493" y="492"/>
      <point x="568" y="515" type="curve"/>
    </contour>
  </outline>
</glyph>
<glyph name="uni1C0D" format="2">
  <advance width="730"/>
  <unicode hex="1C0D"/>
  <note>
u1C0D
</note>
  <outline>
    <contour>
      <point x="404" y="596" type="curve" smooth="yes"/>
      <point x="216" y="596"/>
      <point x="70" y="464"/>
      <point x="70" y="193" type="curve" smooth="yes"/>
      <point x="70" y="132"/>
      <point x="81" y="61"/>
      <point x="102" y="0" type="curve"/>
      <point x="191" y="0" type="line"/>
      <point x="168" y="60"/>
      <point x="155" y="130"/>
      <point x="155" y="195" type="curve" smooth="yes"/>
      <point x="155" y="421"/>
      <point x="265" y="515"/>
      <point x="401" y="515" type="curve" smooth="yes"/>
      <point x="525" y="515"/>
      <point x="584" y="438"/>
      <point x="584" y="333" type="curve" smooth="yes"/>
      <point x="584" y="266"/>
      <point x="550" y="221"/>
      <point x="484" y="221" type="curve" smooth="yes"/>
      <point x="431" y="221"/>
      <point x="397" y="249"/>
      <point x="397" y="303" type="curve" smooth="yes"/>
      <point x="397" y="327"/>
      <point x="402" y="352"/>
      <point x="411" y="371" type="curve"/>
      <point x="324" y="371" type="line"/>
      <point x="315" y="353"/>
      <point x="311" y="330"/>
      <point x="311" y="301" type="curve" smooth="yes"/>
      <point x="311" y="202"/>
      <point x="378" y="140"/>
      <point x="483" y="140" type="curve" smooth="yes"/>
      <point x="606" y="140"/>
      <point x="670" y="223"/>
      <point x="670" y="334" type="curve" smooth="yes"/>
      <point x="670" y="474"/>
      <point x="586" y="596"/>
    </contour>
  </outline>
</glyph>
<glyph name="uni1C0E" format="2">
  <advance width="601"/>
  <unicode hex="1C0E"/>
  <note>
u1C0E
</note>
  <outline>
    <contour>
      <point x="554" y="593" type="line"/>
      <point x="484" y="571"/>
      <point x="398" y="561"/>
      <point x="304" y="561" type="curve" smooth="yes"/>
      <point x="210" y="561"/>
      <point x="124" y="571"/>
      <point x="54" y="593" type="curve"/>
      <point x="54" y="515" type="line"/>
      <point x="125" y="492"/>
      <point x="211" y="480"/>
      <point x="304" y="480" type="curve" smooth="yes"/>
      <point x="321" y="480"/>
      <point x="338" y="480"/>
      <point x="355" y="481" type="curve"/>
      <point x="438" y="385"/>
      <point x="452" y="339"/>
      <point x="452" y="287" type="curve" smooth="yes"/>
      <point x="452" y="240"/>
      <point x="429" y="221"/>
      <point x="388" y="221" type="curve" smooth="yes"/>
      <point x="322" y="221"/>
      <point x="268" y="270"/>
      <point x="198" y="270" type="curve" smooth="yes"/>
      <point x="110" y="270"/>
      <point x="47" y="213"/>
      <point x="47" y="108" type="curve" smooth="yes"/>
      <point x="47" y="73"/>
      <point x="53" y="39"/>
      <point x="66" y="0" type="curve"/>
      <point x="153" y="0" type="line"/>
      <point x="138" y="44"/>
      <point x="132" y="75"/>
      <point x="132" y="108" type="curve" smooth="yes"/>
      <point x="132" y="166"/>
      <point x="153" y="189"/>
      <point x="198" y="189" type="curve" smooth="yes"/>
      <point x="248" y="189"/>
      <point x="310" y="140"/>
      <point x="390" y="140" type="curve" smooth="yes"/>
      <point x="480" y="140"/>
      <point x="538" y="192"/>
      <point x="538" y="289" type="curve" smooth="yes"/>
      <point x="538" y="351"/>
      <point x="522" y="402"/>
      <point x="452" y="491" type="curve"/>
      <point x="488" y="497"/>
      <point x="523" y="505"/>
      <point x="554" y="515" type="curve"/>
    </contour>
  </outline>
</glyph>
<glyph name="uni1C0F" format="2">
  <advance width="601"/>
  <unicode hex="1C0F"/>
  <note>
u1C0F
</note>
  <outline>
    <contour>
      <point x="547" y="593" type="line"/>
      <point x="479" y="572"/>
      <point x="396" y="561"/>
      <point x="297" y="561" type="curve" smooth="yes"/>
      <point x="198" y="561"/>
      <point x="115" y="572"/>
      <point x="47" y="593" type="curve"/>
      <point x="47" y="515" type="line"/>
      <point x="77" y="506"/>
      <point x="111" y="498"/>
      <point x="149" y="491" type="curve"/>
      <point x="83" y="405"/>
      <point x="63" y="354"/>
      <point x="63" y="289" type="curve" smooth="yes"/>
      <point x="63" y="193"/>
      <point x="119" y="140"/>
      <point x="211" y="140" type="curve" smooth="yes"/>
      <point x="283" y="140"/>
      <point x="358" y="189"/>
      <point x="403" y="189" type="curve" smooth="yes"/>
      <point x="448" y="189"/>
      <point x="469" y="165"/>
      <point x="469" y="108" type="curve" smooth="yes"/>
      <point x="469" y="77"/>
      <point x="462" y="42"/>
      <point x="448" y="0" type="curve"/>
      <point x="535" y="0" type="line"/>
      <point x="548" y="38"/>
      <point x="554" y="74"/>
      <point x="554" y="108" type="curve" smooth="yes"/>
      <point x="554" y="211"/>
      <point x="494" y="270"/>
      <point x="403" y="270" type="curve" smooth="yes"/>
      <point x="337" y="270"/>
      <point x="273" y="221"/>
      <point x="213" y="221" type="curve" smooth="yes"/>
      <point x="170" y="221"/>
      <point x="149" y="243"/>
      <point x="149" y="287" type="curve" smooth="yes"/>
      <point x="149" y="344"/>
      <point x="168" y="392"/>
      <point x="246" y="481" type="curve"/>
      <point x="257" y="480"/>
      <point x="274" y="480"/>
      <point x="297" y="480" type="curve" smooth="yes"/>
      <point x="392" y="480"/>
      <point x="475" y="492"/>
      <point x="547" y="515" type="curve"/>
    </contour>
  </outline>
</glyph>
<glyph name="uni1C10" format="2">
  <advance width="601"/>
  <unicode hex="1C10"/>
  <note>
u1C10
</note>
  <outline>
    <contour>
      <point x="554" y="593" type="line"/>
      <point x="486" y="572"/>
      <point x="403" y="561"/>
      <point x="304" y="561" type="curve" smooth="yes"/>
      <point x="205" y="561"/>
      <point x="122" y="572"/>
      <point x="54" y="593" type="curve"/>
      <point x="54" y="515" type="line"/>
      <point x="62" y="513"/>
      <point x="76" y="508"/>
      <point x="99" y="502" type="curve"/>
      <point x="70" y="445"/>
      <point x="55" y="390"/>
      <point x="55" y="336" type="curve" smooth="yes"/>
      <point x="55" y="291"/>
      <point x="62" y="250"/>
      <point x="76" y="212" type="curve"/>
      <point x="57" y="185"/>
      <point x="47" y="150"/>
      <point x="47" y="108" type="curve" smooth="yes"/>
      <point x="47" y="74"/>
      <point x="53" y="38"/>
      <point x="66" y="0" type="curve"/>
      <point x="153" y="0" type="line"/>
      <point x="139" y="42"/>
      <point x="132" y="77"/>
      <point x="132" y="108" type="curve" smooth="yes"/>
      <point x="132" y="165"/>
      <point x="153" y="189"/>
      <point x="198" y="189" type="curve" smooth="yes"/>
      <point x="242" y="189"/>
      <point x="316" y="140"/>
      <point x="390" y="140" type="curve" smooth="yes"/>
      <point x="482" y="140"/>
      <point x="538" y="193"/>
      <point x="538" y="289" type="curve" smooth="yes"/>
      <point x="538" y="354"/>
      <point x="519" y="405"/>
      <point x="452" y="491" type="curve"/>
      <point x="490" y="498"/>
      <point x="524" y="506"/>
      <point x="554" y="515" type="curve"/>
    </contour>
    <contour>
      <point x="452" y="287" type="curve" smooth="yes"/>
      <point x="452" y="243"/>
      <point x="431" y="221"/>
      <point x="388" y="221" type="curve" smooth="yes"/>
      <point x="329" y="221"/>
      <point x="263" y="270"/>
      <point x="199" y="270" type="curve" smooth="yes"/>
      <point x="181" y="270"/>
      <point x="162" y="268"/>
      <point x="145" y="262" type="curve"/>
      <point x="140" y="285"/>
      <point x="137" y="310"/>
      <point x="137" y="336" type="curve" smooth="yes"/>
      <point x="137" y="389"/>
      <point x="150" y="440"/>
      <point x="177" y="488" type="curve"/>
      <point x="220" y="482"/>
      <point x="262" y="480"/>
      <point x="304" y="480" type="curve" smooth="yes"/>
      <point x="327" y="480"/>
      <point x="344" y="480"/>
      <point x="355" y="481" type="curve"/>
      <point x="433" y="392"/>
      <point x="452" y="344"/>
    </contour>
  </outline>
</glyph>
<glyph name="uni1C11" format="2">
  <advance width="630"/>
  <unicode hex="1C11"/>
  <note>
u1C11
</note>
  <outline>
    <contour>
      <point x="567" y="361" type="line"/>
      <point x="500" y="342"/>
      <point x="422" y="333"/>
      <point x="334" y="333" type="curve" smooth="yes"/>
      <point x="269" y="333"/>
      <point x="212" y="337"/>
      <point x="164" y="345" type="curve"/>
      <point x="174" y="397"/>
      <point x="193" y="449"/>
      <point x="220" y="498" type="curve"/>
      <point x="252" y="494"/>
      <point x="289" y="491"/>
      <point x="330" y="491" type="curve" smooth="yes"/>
      <point x="403" y="491"/>
      <point x="462" y="499"/>
      <point x="510" y="515" type="curve"/>
      <point x="510" y="593" type="line"/>
      <point x="458" y="578"/>
      <point x="399" y="571"/>
      <point x="332" y="571" type="curve" smooth="yes"/>
      <point x="269" y="571"/>
      <point x="214" y="577"/>
      <point x="166" y="589" type="curve"/>
      <point x="95" y="454"/>
      <point x="70" y="359"/>
      <point x="70" y="244" type="curve" smooth="yes"/>
      <point x="70" y="191"/>
      <point x="79" y="146"/>
      <point x="97" y="110" type="curve"/>
      <point x="72" y="89"/>
      <point x="59" y="59"/>
      <point x="59" y="19" type="curve" smooth="yes"/>
      <point x="59" y="13"/>
      <point x="60" y="6"/>
      <point x="61" y="0" type="curve"/>
      <point x="146" y="0" type="line"/>
      <point x="145" y="6"/>
      <point x="144" y="13"/>
      <point x="144" y="19" type="curve" smooth="yes"/>
      <point x="144" y="45"/>
      <point x="157" y="58"/>
      <point x="183" y="58" type="curve" smooth="yes"/>
      <point x="236" y="58"/>
      <point x="306" y="-3"/>
      <point x="392" y="-3" type="curve" smooth="yes"/>
      <point x="484" y="-3"/>
      <point x="540" y="50"/>
      <point x="540" y="146" type="curve" smooth="yes"/>
      <point x="540" y="188"/>
      <point x="528" y="228"/>
      <point x="503" y="266" type="curve"/>
      <point x="524" y="270"/>
      <point x="546" y="275"/>
      <point x="567" y="281" type="curve"/>
    </contour>
    <contour>
      <point x="454" y="144" type="curve" smooth="yes"/>
      <point x="454" y="100"/>
      <point x="433" y="78"/>
      <point x="390" y="78" type="curve" smooth="yes"/>
      <point x="317" y="78"/>
      <point x="259" y="139"/>
      <point x="183" y="139" type="curve" smooth="yes"/>
      <point x="176" y="139" type="line"/>
      <point x="161" y="164"/>
      <point x="154" y="201"/>
      <point x="154" y="248" type="curve" smooth="yes"/>
      <point x="154" y="268" type="line"/>
      <point x="214" y="258"/>
      <point x="274" y="253"/>
      <point x="335" y="253" type="curve" smooth="yes"/>
      <point x="365" y="253"/>
      <point x="393" y="254"/>
      <point x="420" y="256" type="curve"/>
      <point x="443" y="219"/>
      <point x="454" y="182"/>
    </contour>
  </outline>
</glyph>
<glyph name="uni1C12" format="2">
  <advance width="975"/>
  <unicode hex="1C12"/>
  <note>
u1C12
</note>
  <outline>
    <contour>
      <point x="276" y="595" type="line"/>
      <point x="139" y="526"/>
      <point x="70" y="424"/>
      <point x="70" y="289" type="curve" smooth="yes"/>
      <point x="70" y="113"/>
      <point x="176" y="-11"/>
      <point x="348" y="-11" type="curve" smooth="yes"/>
      <point x="377" y="-11"/>
      <point x="401" y="-8"/>
      <point x="419" y="-1" type="curve"/>
      <point x="419" y="82" type="line"/>
      <point x="401" y="75"/>
      <point x="379" y="72"/>
      <point x="354" y="72" type="curve" smooth="yes"/>
      <point x="231" y="72"/>
      <point x="155" y="149"/>
      <point x="155" y="290" type="curve" smooth="yes"/>
      <point x="155" y="380"/>
      <point x="190" y="444"/>
      <point x="260" y="482" type="curve"/>
      <point x="697" y="-11" type="line"/>
      <point x="834" y="58"/>
      <point x="903" y="160"/>
      <point x="903" y="295" type="curve" smooth="yes"/>
      <point x="903" y="472"/>
      <point x="796" y="595"/>
      <point x="625" y="595" type="curve" smooth="yes"/>
      <point x="596" y="595"/>
      <point x="572" y="592"/>
      <point x="554" y="585" type="curve"/>
      <point x="536" y="546"/>
      <point x="527" y="506"/>
      <point x="527" y="465" type="curve" smooth="yes"/>
      <point x="527" y="381"/>
      <point x="587" y="319"/>
      <point x="683" y="319" type="curve" smooth="yes"/>
      <point x="735" y="319"/>
      <point x="778" y="333"/>
      <point x="812" y="361" type="curve"/>
      <point x="816" y="341"/>
      <point x="818" y="319"/>
      <point x="818" y="294" type="curve" smooth="yes"/>
      <point x="818" y="205"/>
      <point x="784" y="141"/>
      <point x="715" y="103" type="curve"/>
    </contour>
    <contour>
      <point x="683" y="385" type="curve" smooth="yes"/>
      <point x="630" y="385"/>
      <point x="596" y="417"/>
      <point x="596" y="465" type="curve" smooth="yes"/>
      <point x="596" y="481"/>
      <point x="598" y="497"/>
      <point x="602" y="512" type="curve"/>
      <point x="619" y="512" type="line" smooth="yes"/>
      <point x="696" y="512"/>
      <point x="752" y="484"/>
      <point x="787" y="427" type="curve"/>
      <point x="762" y="399"/>
      <point x="727" y="385"/>
    </contour>
  </outline>
</glyph>
<glyph name="uni1C13" format="2">
  <advance width="654"/>
  <unicode hex="1C13"/>
  <note>
u1C13
</note>
  <outline>
    <contour>
      <point x="327" y="597" type="curve"/>
      <point x="140" y="500"/>
      <point x="70" y="391"/>
      <point x="70" y="242" type="curve" smooth="yes"/>
      <point x="70" y="103"/>
      <point x="166" y="-13"/>
      <point x="327" y="-13" type="curve" smooth="yes"/>
      <point x="487" y="-13"/>
      <point x="584" y="103"/>
      <point x="584" y="242" type="curve" smooth="yes"/>
      <point x="584" y="391"/>
      <point x="513" y="500"/>
    </contour>
    <contour>
      <point x="327" y="502" type="curve"/>
      <point x="454" y="425"/>
      <point x="498" y="348"/>
      <point x="498" y="242" type="curve" smooth="yes"/>
      <point x="498" y="146"/>
      <point x="435" y="69"/>
      <point x="327" y="69" type="curve" smooth="yes"/>
      <point x="217" y="69"/>
      <point x="155" y="146"/>
      <point x="155" y="242" type="curve" smooth="yes"/>
      <point x="155" y="348"/>
      <point x="201" y="425"/>
    </contour>
  </outline>
</glyph>
<glyph name="uni1C14" format="2">
  <advance width="933"/>
  <unicode hex="1C14"/>
  <note>
u1C14
</note>
  <outline>
    <contour>
      <point x="354" y="55" type="line"/>
      <point x="218" y="118"/>
      <point x="156" y="205"/>
      <point x="156" y="340" type="curve" smooth="yes"/>
      <point x="156" y="458"/>
      <point x="202" y="516"/>
      <point x="293" y="516" type="curve" smooth="yes"/>
      <point x="381" y="516"/>
      <point x="425" y="432"/>
      <point x="425" y="264" type="curve"/>
      <point x="509" y="264" type="line"/>
      <point x="509" y="446"/>
      <point x="556" y="516"/>
      <point x="640" y="516" type="curve" smooth="yes"/>
      <point x="732" y="516"/>
      <point x="778" y="458"/>
      <point x="778" y="340" type="curve" smooth="yes"/>
      <point x="778" y="205"/>
      <point x="716" y="118"/>
      <point x="579" y="55" type="curve"/>
      <point x="615" y="-22" type="line"/>
      <point x="780" y="53"/>
      <point x="863" y="174"/>
      <point x="863" y="342" type="curve" smooth="yes"/>
      <point x="863" y="503"/>
      <point x="779" y="597"/>
      <point x="647" y="597" type="curve" smooth="yes"/>
      <point x="558" y="597"/>
      <point x="499" y="554"/>
      <point x="469" y="468" type="curve"/>
      <point x="465" y="468" type="line"/>
      <point x="436" y="554"/>
      <point x="376" y="597"/>
      <point x="286" y="597" type="curve" smooth="yes"/>
      <point x="154" y="597"/>
      <point x="70" y="503"/>
      <point x="70" y="342" type="curve" smooth="yes"/>
      <point x="70" y="178"/>
      <point x="153" y="53"/>
      <point x="320" y="-22" type="curve"/>
    </contour>
  </outline>
</glyph>
<glyph name="uni1C15" format="2">
  <advance width="741"/>
  <unicode hex="1C15"/>
  <note>
u1C15
</note>
  <outline>
    <contour>
      <point x="660" y="593" type="line"/>
      <point x="581" y="572"/>
      <point x="484" y="561"/>
      <point x="371" y="561" type="curve" smooth="yes"/>
      <point x="255" y="561"/>
      <point x="158" y="572"/>
      <point x="81" y="593" type="curve"/>
      <point x="81" y="514" type="line"/>
      <point x="165" y="491"/>
      <point x="261" y="480"/>
      <point x="371" y="480" type="curve" smooth="yes"/>
      <point x="392" y="480" type="line"/>
      <point x="365" y="447"/>
      <point x="343" y="412"/>
      <point x="326" y="374" type="curve"/>
      <point x="165" y="358"/>
      <point x="70" y="263"/>
      <point x="70" y="96" type="curve" smooth="yes"/>
      <point x="70" y="62"/>
      <point x="75" y="30"/>
      <point x="84" y="0" type="curve"/>
      <point x="170" y="0" type="line"/>
      <point x="161" y="30"/>
      <point x="156" y="62"/>
      <point x="156" y="94" type="curve" smooth="yes"/>
      <point x="156" y="204"/>
      <point x="204" y="269"/>
      <point x="299" y="289" type="curve"/>
      <point x="293" y="264"/>
      <point x="291" y="238"/>
      <point x="291" y="212" type="curve" smooth="yes"/>
      <point x="291" y="67"/>
      <point x="369" y="-14"/>
      <point x="488" y="-14" type="curve" smooth="yes"/>
      <point x="602" y="-14"/>
      <point x="671" y="59"/>
      <point x="671" y="166" type="curve" smooth="yes"/>
      <point x="671" y="282"/>
      <point x="580" y="367"/>
      <point x="414" y="376" type="curve"/>
      <point x="434" y="412"/>
      <point x="463" y="448"/>
      <point x="501" y="486" type="curve"/>
      <point x="557" y="492"/>
      <point x="610" y="502"/>
      <point x="660" y="515" type="curve"/>
    </contour>
    <contour>
      <point x="491" y="67" type="curve" smooth="yes"/>
      <point x="417" y="67"/>
      <point x="370" y="115"/>
      <point x="370" y="215" type="curve" smooth="yes"/>
      <point x="370" y="242"/>
      <point x="374" y="269"/>
      <point x="381" y="297" type="curve"/>
      <point x="517" y="296"/>
      <point x="585" y="251"/>
      <point x="585" y="161" type="curve" smooth="yes"/>
      <point x="585" y="98"/>
      <point x="554" y="67"/>
    </contour>
  </outline>
</glyph>
<glyph name="uni1C16" format="2">
  <advance width="741"/>
  <unicode hex="1C16"/>
  <note>
u1C16
</note>
  <outline>
    <contour>
      <point x="660" y="593" type="line"/>
      <point x="583" y="572"/>
      <point x="486" y="561"/>
      <point x="370" y="561" type="curve" smooth="yes"/>
      <point x="257" y="561"/>
      <point x="161" y="572"/>
      <point x="81" y="593" type="curve"/>
      <point x="81" y="515" type="line"/>
      <point x="131" y="502"/>
      <point x="184" y="492"/>
      <point x="240" y="486" type="curve"/>
      <point x="278" y="448"/>
      <point x="307" y="412"/>
      <point x="327" y="376" type="curve"/>
      <point x="162" y="367"/>
      <point x="70" y="282"/>
      <point x="70" y="166" type="curve" smooth="yes"/>
      <point x="70" y="59"/>
      <point x="140" y="-14"/>
      <point x="253" y="-14" type="curve" smooth="yes"/>
      <point x="372" y="-14"/>
      <point x="450" y="67"/>
      <point x="450" y="212" type="curve" smooth="yes"/>
      <point x="450" y="238"/>
      <point x="447" y="264"/>
      <point x="442" y="289" type="curve"/>
      <point x="537" y="269"/>
      <point x="585" y="204"/>
      <point x="585" y="94" type="curve" smooth="yes"/>
      <point x="585" y="62"/>
      <point x="580" y="30"/>
      <point x="571" y="0" type="curve"/>
      <point x="657" y="0" type="line"/>
      <point x="667" y="30"/>
      <point x="671" y="62"/>
      <point x="671" y="96" type="curve" smooth="yes"/>
      <point x="671" y="263"/>
      <point x="577" y="358"/>
      <point x="415" y="374" type="curve"/>
      <point x="398" y="412"/>
      <point x="376" y="447"/>
      <point x="349" y="480" type="curve"/>
      <point x="370" y="480" type="line" smooth="yes"/>
      <point x="480" y="480"/>
      <point x="577" y="491"/>
      <point x="660" y="514" type="curve"/>
    </contour>
    <contour>
      <point x="250" y="67" type="curve" smooth="yes"/>
      <point x="187" y="67"/>
      <point x="156" y="98"/>
      <point x="156" y="161" type="curve" smooth="yes"/>
      <point x="156" y="251"/>
      <point x="224" y="296"/>
      <point x="360" y="297" type="curve"/>
      <point x="367" y="269"/>
      <point x="371" y="242"/>
      <point x="371" y="215" type="curve" smooth="yes"/>
      <point x="371" y="115"/>
      <point x="325" y="67"/>
    </contour>
  </outline>
</glyph>
<glyph name="uni1C17" format="2">
  <advance width="640"/>
  <unicode hex="1C17"/>
  <note>
u1C17
</note>
  <outline>
    <contour>
      <point x="590" y="597" type="line"/>
      <point x="514" y="575"/>
      <point x="422" y="565"/>
      <point x="320" y="565" type="curve" smooth="yes"/>
      <point x="217" y="565"/>
      <point x="125" y="575"/>
      <point x="50" y="597" type="curve"/>
      <point x="50" y="519" type="line"/>
      <point x="83" y="509"/>
      <point x="119" y="501"/>
      <point x="157" y="495" type="curve"/>
      <point x="96" y="403"/>
      <point x="70" y="329"/>
      <point x="70" y="243" type="curve" smooth="yes"/>
      <point x="70" y="79"/>
      <point x="169" y="-12"/>
      <point x="320" y="-12" type="curve" smooth="yes"/>
      <point x="471" y="-12"/>
      <point x="570" y="79"/>
      <point x="570" y="243" type="curve" smooth="yes"/>
      <point x="570" y="329"/>
      <point x="544" y="403"/>
      <point x="483" y="496" type="curve"/>
      <point x="521" y="501"/>
      <point x="557" y="509"/>
      <point x="590" y="519" type="curve"/>
    </contour>
    <contour>
      <point x="485" y="243" type="curve" smooth="yes"/>
      <point x="485" y="127"/>
      <point x="427" y="70"/>
      <point x="320" y="70" type="curve" smooth="yes"/>
      <point x="213" y="70"/>
      <point x="155" y="127"/>
      <point x="155" y="243" type="curve" smooth="yes"/>
      <point x="155" y="323"/>
      <point x="178" y="388"/>
      <point x="249" y="486" type="curve"/>
      <point x="272" y="485"/>
      <point x="296" y="484"/>
      <point x="320" y="484" type="curve" smooth="yes"/>
      <point x="344" y="484"/>
      <point x="368" y="485"/>
      <point x="391" y="486" type="curve"/>
      <point x="462" y="388"/>
      <point x="485" y="323"/>
    </contour>
  </outline>
</glyph>
<glyph name="uni1C18" format="2">
  <advance width="1030"/>
  <unicode hex="1C18"/>
  <note>
u1C18
</note>
  <outline>
    <contour>
      <point x="348" y="593" type="curve" smooth="yes"/>
      <point x="174" y="593"/>
      <point x="70" y="463"/>
      <point x="70" y="265" type="curve" smooth="yes"/>
      <point x="70" y="84"/>
      <point x="152" y="-12"/>
      <point x="279" y="-12" type="curve" smooth="yes"/>
      <point x="391" y="-12"/>
      <point x="460" y="55"/>
      <point x="477" y="149" type="curve"/>
      <point x="481" y="149" type="line"/>
      <point x="506" y="101"/>
      <point x="561" y="78"/>
      <point x="634" y="78" type="curve" smooth="yes"/>
      <point x="689" y="78"/>
      <point x="740" y="95"/>
      <point x="782" y="125" type="curve"/>
      <point x="821" y="108"/>
      <point x="866" y="101"/>
      <point x="917" y="101" type="curve" smooth="yes"/>
      <point x="948" y="101"/>
      <point x="978" y="105"/>
      <point x="1000" y="112" type="curve"/>
      <point x="1000" y="193" type="line"/>
      <point x="978" y="186"/>
      <point x="946" y="182"/>
      <point x="917" y="182" type="curve" smooth="yes"/>
      <point x="888" y="182"/>
      <point x="860" y="184"/>
      <point x="835" y="189" type="curve"/>
      <point x="831" y="163" type="line"/>
      <point x="883" y="210"/>
      <point x="916" y="274"/>
      <point x="916" y="346" type="curve" smooth="yes"/>
      <point x="916" y="443"/>
      <point x="860" y="515"/>
      <point x="753" y="515" type="curve" smooth="yes"/>
      <point x="646" y="515"/>
      <point x="590" y="443"/>
      <point x="590" y="346" type="curve" smooth="yes"/>
      <point x="590" y="277"/>
      <point x="623" y="215"/>
      <point x="691" y="169" type="curve"/>
      <point x="691" y="165" type="line"/>
      <point x="672" y="161"/>
      <point x="654" y="159"/>
      <point x="634" y="159" type="curve" smooth="yes"/>
      <point x="544" y="159"/>
      <point x="501" y="197"/>
      <point x="501" y="336" type="curve"/>
      <point x="416" y="336" type="line"/>
      <point x="416" y="244" type="line" smooth="yes"/>
      <point x="416" y="120"/>
      <point x="369" y="71"/>
      <point x="286" y="71" type="curve" smooth="yes"/>
      <point x="206" y="71"/>
      <point x="155" y="126"/>
      <point x="155" y="264" type="curve" smooth="yes"/>
      <point x="155" y="423"/>
      <point x="224" y="512"/>
      <point x="355" y="512" type="curve" smooth="yes"/>
      <point x="375" y="512"/>
      <point x="398" y="509"/>
      <point x="419" y="503" type="curve"/>
      <point x="419" y="584" type="line"/>
      <point x="400" y="590"/>
      <point x="377" y="593"/>
    </contour>
    <contour>
      <point x="753" y="434" type="curve" smooth="yes"/>
      <point x="803" y="434"/>
      <point x="830" y="399"/>
      <point x="830" y="347" type="curve" smooth="yes"/>
      <point x="830" y="290"/>
      <point x="808" y="241"/>
      <point x="772" y="208" type="curve"/>
      <point x="707" y="237"/>
      <point x="676" y="287"/>
      <point x="676" y="347" type="curve" smooth="yes"/>
      <point x="676" y="399"/>
      <point x="703" y="434"/>
    </contour>
  </outline>
</glyph>
<glyph name="uni1C19" format="2">
  <advance width="592"/>
  <unicode hex="1C19"/>
  <note>
u1C19
</note>
  <outline>
    <contour>
      <point x="506" y="583" type="curve"/>
      <point x="419" y="583" type="line"/>
      <point x="375" y="492"/>
      <point x="353" y="391"/>
      <point x="353" y="289" type="curve" smooth="yes"/>
      <point x="353" y="163"/>
      <point x="379" y="74"/>
      <point x="421" y="0" type="curve"/>
      <point x="511" y="0" type="line"/>
      <point x="461" y="83"/>
      <point x="439" y="168"/>
      <point x="439" y="289" type="curve" smooth="yes"/>
      <point x="439" y="390"/>
      <point x="458" y="486"/>
    </contour>
    <contour>
      <point x="256" y="583" type="curve"/>
      <point x="170" y="583" type="line"/>
      <point x="126" y="492"/>
      <point x="104" y="391"/>
      <point x="104" y="289" type="curve" smooth="yes"/>
      <point x="104" y="163"/>
      <point x="130" y="74"/>
      <point x="172" y="0" type="curve"/>
      <point x="262" y="0" type="line"/>
      <point x="211" y="83"/>
      <point x="189" y="168"/>
      <point x="189" y="289" type="curve" smooth="yes"/>
      <point x="189" y="390"/>
      <point x="208" y="486"/>
    </contour>
    <contour>
      <point x="557" y="408" type="line"/>
      <point x="35" y="408" type="line"/>
      <point x="35" y="333" type="line"/>
      <point x="557" y="333" type="line"/>
    </contour>
  </outline>
</glyph>
<glyph name="uni1C1A" format="2">
  <advance width="526"/>
  <unicode hex="1C1A"/>
  <note>
u1C1A
</note>
  <outline>
    <contour>
      <point x="197" y="293" type="line"/>
      <point x="113" y="271"/>
      <point x="70" y="219"/>
      <point x="70" y="149" type="curve" smooth="yes"/>
      <point x="70" y="40"/>
      <point x="135" y="-14"/>
      <point x="282" y="-14" type="curve" smooth="yes"/>
      <point x="354" y="-14"/>
      <point x="417" y="-1"/>
      <point x="472" y="24" type="curve"/>
      <point x="438" y="100" type="line"/>
      <point x="392" y="77"/>
      <point x="340" y="66"/>
      <point x="282" y="66" type="curve" smooth="yes"/>
      <point x="197" y="66"/>
      <point x="155" y="94"/>
      <point x="155" y="149" type="curve" smooth="yes"/>
      <point x="155" y="257"/>
      <point x="323" y="268"/>
      <point x="417" y="278" type="curve"/>
      <point x="417" y="362" type="line"/>
      <point x="368" y="351"/>
      <point x="321" y="345"/>
      <point x="278" y="345" type="curve" smooth="yes"/>
      <point x="208" y="345"/>
      <point x="173" y="373"/>
      <point x="173" y="429" type="curve" smooth="yes"/>
      <point x="173" y="485"/>
      <point x="213" y="513"/>
      <point x="294" y="513" type="curve" smooth="yes"/>
      <point x="340" y="513"/>
      <point x="385" y="507"/>
      <point x="429" y="496" type="curve"/>
      <point x="429" y="580" type="line"/>
      <point x="388" y="588"/>
      <point x="343" y="593"/>
      <point x="294" y="593" type="curve" smooth="yes"/>
      <point x="167" y="593"/>
      <point x="88" y="531"/>
      <point x="88" y="429" type="curve" smooth="yes"/>
      <point x="88" y="356"/>
      <point x="124" y="312"/>
      <point x="197" y="297" type="curve"/>
    </contour>
  </outline>
</glyph>
<glyph name="uni1C1B" format="2">
  <advance width="509"/>
  <unicode hex="1C1B"/>
  <note>
u1C1B
</note>
  <outline>
    <contour>
      <point x="489" y="593" type="line"/>
      <point x="423" y="576"/>
      <point x="349" y="567"/>
      <point x="265" y="567" type="curve" smooth="yes"/>
      <point x="194" y="567"/>
      <point x="119" y="576"/>
      <point x="40" y="593" type="curve"/>
      <point x="40" y="479" type="line"/>
      <point x="210" y="370"/>
      <point x="295" y="258"/>
      <point x="295" y="145" type="curve" smooth="yes"/>
      <point x="295" y="90"/>
      <point x="282" y="42"/>
      <point x="257" y="0" type="curve"/>
      <point x="347" y="0" type="line"/>
      <point x="369" y="41"/>
      <point x="380" y="89"/>
      <point x="380" y="145" type="curve" smooth="yes"/>
      <point x="380" y="282"/>
      <point x="293" y="401"/>
      <point x="119" y="501" type="curve"/>
      <point x="119" y="505" type="line"/>
      <point x="161" y="493"/>
      <point x="209" y="487"/>
      <point x="265" y="487" type="curve" smooth="yes"/>
      <point x="356" y="487"/>
      <point x="431" y="496"/>
      <point x="489" y="515" type="curve"/>
    </contour>
  </outline>
</glyph>
<glyph name="uni1C1C" format="2">
  <advance width="975"/>
  <unicode hex="1C1C"/>
  <note>
u1C1C
</note>
  <outline>
    <contour>
      <point x="554" y="502" type="line"/>
      <point x="573" y="509"/>
      <point x="594" y="512"/>
      <point x="619" y="512" type="curve" smooth="yes"/>
      <point x="742" y="512"/>
      <point x="818" y="435"/>
      <point x="818" y="294" type="curve" smooth="yes"/>
      <point x="818" y="205"/>
      <point x="784" y="141"/>
      <point x="715" y="103" type="curve"/>
      <point x="276" y="595" type="line"/>
      <point x="139" y="526"/>
      <point x="70" y="424"/>
      <point x="70" y="289" type="curve" smooth="yes"/>
      <point x="70" y="113"/>
      <point x="176" y="-11"/>
      <point x="348" y="-11" type="curve" smooth="yes"/>
      <point x="377" y="-11"/>
      <point x="401" y="-8"/>
      <point x="419" y="-1" type="curve"/>
      <point x="419" y="82" type="line"/>
      <point x="400" y="75"/>
      <point x="379" y="72"/>
      <point x="354" y="72" type="curve" smooth="yes"/>
      <point x="231" y="72"/>
      <point x="155" y="149"/>
      <point x="155" y="290" type="curve" smooth="yes"/>
      <point x="155" y="380"/>
      <point x="190" y="444"/>
      <point x="260" y="482" type="curve"/>
      <point x="697" y="-11" type="line"/>
      <point x="834" y="58"/>
      <point x="903" y="160"/>
      <point x="903" y="295" type="curve" smooth="yes"/>
      <point x="903" y="472"/>
      <point x="796" y="595"/>
      <point x="625" y="595" type="curve" smooth="yes"/>
      <point x="596" y="595"/>
      <point x="572" y="592"/>
      <point x="554" y="585" type="curve"/>
    </contour>
  </outline>
</glyph>
<glyph name="uni1C1D" format="2">
  <advance width="710"/>
  <unicode hex="1C1D"/>
  <note>
u1C1D
</note>
  <outline>
    <contour>
      <point x="622" y="593" type="curve" smooth="yes"/>
      <point x="524" y="593"/>
      <point x="469" y="525"/>
      <point x="469" y="413" type="curve" smooth="yes"/>
      <point x="469" y="199" type="line" smooth="yes"/>
      <point x="469" y="110"/>
      <point x="432" y="67"/>
      <point x="355" y="67" type="curve" smooth="yes"/>
      <point x="279" y="67"/>
      <point x="242" y="110"/>
      <point x="242" y="199" type="curve" smooth="yes"/>
      <point x="242" y="413" type="line" smooth="yes"/>
      <point x="242" y="525"/>
      <point x="186" y="593"/>
      <point x="89" y="593" type="curve" smooth="yes"/>
      <point x="72" y="593"/>
      <point x="53" y="591"/>
      <point x="35" y="584" type="curve"/>
      <point x="35" y="500" type="line"/>
      <point x="54" y="508"/>
      <point x="72" y="512"/>
      <point x="88" y="512" type="curve" smooth="yes"/>
      <point x="136" y="512"/>
      <point x="158" y="483"/>
      <point x="158" y="413" type="curve" smooth="yes"/>
      <point x="158" y="199" type="line" smooth="yes"/>
      <point x="158" y="72"/>
      <point x="230" y="-14"/>
      <point x="355" y="-14" type="curve" smooth="yes"/>
      <point x="480" y="-14"/>
      <point x="553" y="72"/>
      <point x="553" y="199" type="curve" smooth="yes"/>
      <point x="553" y="413" type="line" smooth="yes"/>
      <point x="553" y="483"/>
      <point x="575" y="512"/>
      <point x="623" y="512" type="curve" smooth="yes"/>
      <point x="639" y="512"/>
      <point x="657" y="507"/>
      <point x="675" y="499" type="curve"/>
      <point x="675" y="584" type="line"/>
      <point x="658" y="591"/>
      <point x="639" y="593"/>
    </contour>
    <contour>
      <point x="675" y="350" type="line"/>
      <point x="35" y="350" type="line"/>
      <point x="35" y="275" type="line"/>
      <point x="675" y="275" type="line"/>
    </contour>
  </outline>
</glyph>
<glyph name="uni1C1E" format="2">
  <advance width="590"/>
  <unicode hex="1C1E"/>
  <note>
u1C1E
</note>
  <outline>
    <contour>
      <point x="349" y="292" type="line"/>
      <point x="560" y="544" type="line"/>
      <point x="497" y="597" type="line"/>
      <point x="295" y="355" type="line"/>
      <point x="93" y="597" type="line"/>
      <point x="30" y="544" type="line"/>
      <point x="241" y="292" type="line"/>
      <point x="30" y="39" type="line"/>
      <point x="93" y="-14" type="line"/>
      <point x="295" y="228" type="line"/>
      <point x="497" y="-14" type="line"/>
      <point x="560" y="39" type="line"/>
    </contour>
  </outline>
</glyph>
<glyph name="uni1C1F" format="2">
  <advance width="654"/>
  <unicode hex="1C1F"/>
  <note>
u1C1F
</note>
  <outline>
    <contour>
      <point x="327" y="597" type="curve"/>
      <point x="143" y="502"/>
      <point x="70" y="394"/>
      <point x="70" y="242" type="curve" smooth="yes"/>
      <point x="70" y="95"/>
      <point x="173" y="-13"/>
      <point x="327" y="-13" type="curve" smooth="yes"/>
      <point x="479" y="-13"/>
      <point x="584" y="94"/>
      <point x="584" y="242" type="curve" smooth="yes"/>
      <point x="584" y="394"/>
      <point x="509" y="501"/>
    </contour>
    <contour>
      <point x="162" y="308" type="line"/>
      <point x="179" y="382"/>
      <point x="229" y="442"/>
      <point x="327" y="502" type="curve"/>
      <point x="425" y="442"/>
      <point x="475" y="382"/>
      <point x="491" y="308" type="curve"/>
    </contour>
    <contour>
      <point x="498" y="239" type="line"/>
      <point x="497" y="141"/>
      <point x="431" y="69"/>
      <point x="327" y="69" type="curve" smooth="yes"/>
      <point x="222" y="69"/>
      <point x="156" y="141"/>
      <point x="155" y="239" type="curve"/>
    </contour>
  </outline>
</glyph>
<glyph name="uni1C20" format="2">
  <advance width="1010"/>
  <unicode hex="1C20"/>
  <note>
u1C20
</note>
  <outline>
    <contour>
      <point x="348" y="593" type="curve" smooth="yes"/>
      <point x="174" y="593"/>
      <point x="70" y="463"/>
      <point x="70" y="265" type="curve" smooth="yes"/>
      <point x="70" y="87"/>
      <point x="154" y="-7"/>
      <point x="285" y="-7" type="curve" smooth="yes"/>
      <point x="388" y="-7"/>
      <point x="447" y="50"/>
      <point x="466" y="131" type="curve"/>
      <point x="470" y="131" type="line"/>
      <point x="486" y="95"/>
      <point x="516" y="76"/>
      <point x="561" y="76" type="curve" smooth="yes"/>
      <point x="632" y="76"/>
      <point x="689" y="120"/>
      <point x="697" y="190" type="curve"/>
      <point x="701" y="190" type="line"/>
      <point x="720" y="145"/>
      <point x="754" y="121"/>
      <point x="811" y="121" type="curve" smooth="yes"/>
      <point x="905" y="121"/>
      <point x="970" y="189"/>
      <point x="970" y="335" type="curve" smooth="yes"/>
      <point x="970" y="365"/>
      <point x="965" y="407"/>
      <point x="958" y="437" type="curve"/>
      <point x="874" y="437" type="line"/>
      <point x="880" y="407"/>
      <point x="885" y="365"/>
      <point x="885" y="335" type="curve" smooth="yes"/>
      <point x="885" y="238"/>
      <point x="855" y="204"/>
      <point x="804" y="204" type="curve" smooth="yes"/>
      <point x="755" y="204"/>
      <point x="735" y="232"/>
      <point x="735" y="288" type="curve" smooth="yes"/>
      <point x="735" y="383" type="line"/>
      <point x="650" y="383" type="line"/>
      <point x="650" y="301" type="line" smooth="yes"/>
      <point x="650" y="195"/>
      <point x="618" y="159"/>
      <point x="564" y="159" type="curve" smooth="yes"/>
      <point x="521" y="159"/>
      <point x="501" y="184"/>
      <point x="501" y="244" type="curve" smooth="yes"/>
      <point x="501" y="326" type="line"/>
      <point x="416" y="326" type="line"/>
      <point x="416" y="257" type="line" smooth="yes"/>
      <point x="416" y="130"/>
      <point x="371" y="76"/>
      <point x="292" y="76" type="curve" smooth="yes"/>
      <point x="208" y="76"/>
      <point x="155" y="125"/>
      <point x="155" y="264" type="curve" smooth="yes"/>
      <point x="155" y="423"/>
      <point x="224" y="512"/>
      <point x="355" y="512" type="curve" smooth="yes"/>
      <point x="375" y="512"/>
      <point x="398" y="509"/>
      <point x="419" y="503" type="curve"/>
      <point x="419" y="584" type="line"/>
      <point x="400" y="590"/>
      <point x="377" y="593"/>
    </contour>
  </outline>
</glyph>
<glyph name="uni1C21" format="2">
  <advance width="675"/>
  <unicode hex="1C21"/>
  <note>
u1C21
</note>
  <outline>
    <contour>
      <point x="623" y="450" type="curve"/>
      <point x="539" y="450" type="line"/>
      <point x="546" y="424"/>
      <point x="550" y="390"/>
      <point x="550" y="362" type="curve" smooth="yes"/>
      <point x="550" y="303"/>
      <point x="526" y="282"/>
      <point x="485" y="282" type="curve" smooth="yes"/>
      <point x="439" y="282"/>
      <point x="420" y="310"/>
      <point x="420" y="367" type="curve" smooth="yes"/>
      <point x="420" y="398" type="line"/>
      <point x="335" y="398" type="line"/>
      <point x="335" y="367" type="line" smooth="yes"/>
      <point x="335" y="288"/>
      <point x="303" y="261"/>
      <point x="248" y="261" type="curve" smooth="yes"/>
      <point x="207" y="261"/>
      <point x="176" y="285"/>
      <point x="158" y="334" type="curve"/>
      <point x="172" y="449"/>
      <point x="235" y="512"/>
      <point x="344" y="512" type="curve" smooth="yes"/>
      <point x="364" y="512"/>
      <point x="387" y="509"/>
      <point x="408" y="503" type="curve"/>
      <point x="408" y="584" type="line"/>
      <point x="389" y="590"/>
      <point x="366" y="593"/>
      <point x="337" y="593" type="curve" smooth="yes"/>
      <point x="170" y="593"/>
      <point x="70" y="470"/>
      <point x="70" y="284" type="curve" smooth="yes"/>
      <point x="70" y="93"/>
      <point x="169" y="-7"/>
      <point x="325" y="-7" type="curve" smooth="yes"/>
      <point x="378" y="-7"/>
      <point x="419" y="3"/>
      <point x="456" y="24" type="curve"/>
      <point x="426" y="101" type="line"/>
      <point x="397" y="85"/>
      <point x="363" y="76"/>
      <point x="325" y="76" type="curve" smooth="yes"/>
      <point x="235" y="76"/>
      <point x="172" y="118"/>
      <point x="158" y="232" type="curve"/>
      <point x="161" y="233" type="line"/>
      <point x="177" y="198"/>
      <point x="205" y="178"/>
      <point x="254" y="178" type="curve" smooth="yes"/>
      <point x="316" y="178"/>
      <point x="364" y="213"/>
      <point x="379" y="268" type="curve"/>
      <point x="383" y="268" type="line"/>
      <point x="403" y="222"/>
      <point x="436" y="199"/>
      <point x="492" y="199" type="curve" smooth="yes"/>
      <point x="576" y="199"/>
      <point x="635" y="251"/>
      <point x="635" y="362" type="curve" smooth="yes"/>
      <point x="635" y="390"/>
      <point x="631" y="424"/>
    </contour>
  </outline>
</glyph>
<glyph name="uni1C22" format="2">
  <advance width="1071"/>
  <unicode hex="1C22"/>
  <note>
u1C22
</note>
  <outline>
    <contour>
      <point x="1051" y="585" type="line"/>
      <point x="1028" y="592"/>
      <point x="1000" y="596"/>
      <point x="968" y="596" type="curve" smooth="yes"/>
      <point x="910" y="596"/>
      <point x="858" y="583"/>
      <point x="813" y="557" type="curve"/>
      <point x="761" y="583"/>
      <point x="702" y="596"/>
      <point x="635" y="596" type="curve" smooth="yes"/>
      <point x="572" y="596"/>
      <point x="517" y="584"/>
      <point x="470" y="561" type="curve"/>
      <point x="436" y="584"/>
      <point x="396" y="596"/>
      <point x="348" y="596" type="curve" smooth="yes"/>
      <point x="172" y="596"/>
      <point x="70" y="462"/>
      <point x="70" y="257" type="curve" smooth="yes"/>
      <point x="70" y="165"/>
      <point x="85" y="80"/>
      <point x="115" y="0" type="curve"/>
      <point x="206" y="0" type="line"/>
      <point x="172" y="87"/>
      <point x="155" y="173"/>
      <point x="155" y="259" type="curve" smooth="yes"/>
      <point x="155" y="431"/>
      <point x="231" y="515"/>
      <point x="344" y="515" type="curve" smooth="yes"/>
      <point x="356" y="515"/>
      <point x="367" y="514"/>
      <point x="376" y="512" type="curve"/>
      <point x="376" y="509" type="line"/>
      <point x="315" y="461"/>
      <point x="285" y="401"/>
      <point x="285" y="328" type="curve" smooth="yes"/>
      <point x="285" y="224"/>
      <point x="344" y="154"/>
      <point x="446" y="154" type="curve" smooth="yes"/>
      <point x="547" y="154"/>
      <point x="605" y="224"/>
      <point x="605" y="328" type="curve" smooth="yes"/>
      <point x="605" y="400"/>
      <point x="582" y="459"/>
      <point x="535" y="506" type="curve"/>
      <point x="564" y="512"/>
      <point x="597" y="515"/>
      <point x="635" y="515" type="curve" smooth="yes"/>
      <point x="670" y="515"/>
      <point x="704" y="511"/>
      <point x="737" y="504" type="curve"/>
      <point x="689" y="458"/>
      <point x="665" y="399"/>
      <point x="665" y="328" type="curve" smooth="yes"/>
      <point x="665" y="224"/>
      <point x="726" y="154"/>
      <point x="834" y="154" type="curve" smooth="yes"/>
      <point x="932" y="154"/>
      <point x="985" y="224"/>
      <point x="985" y="328" type="curve" smooth="yes"/>
      <point x="985" y="399"/>
      <point x="956" y="458"/>
      <point x="899" y="506" type="curve"/>
      <point x="899" y="508" type="line"/>
      <point x="917" y="513"/>
      <point x="937" y="515"/>
      <point x="960" y="515" type="curve" smooth="yes"/>
      <point x="998" y="515"/>
      <point x="1028" y="511"/>
      <point x="1051" y="504" type="curve"/>
    </contour>
    <contour>
      <point x="446" y="235" type="curve" smooth="yes"/>
      <point x="397" y="235"/>
      <point x="369" y="270"/>
      <point x="369" y="326" type="curve" smooth="yes"/>
      <point x="369" y="396"/>
      <point x="400" y="447"/>
      <point x="462" y="480" type="curve"/>
      <point x="503" y="448"/>
      <point x="523" y="391"/>
      <point x="523" y="330" type="curve" smooth="yes"/>
      <point x="523" y="270"/>
      <point x="495" y="235"/>
    </contour>
    <contour>
      <point x="901" y="327" type="curve" smooth="yes"/>
      <point x="901" y="270"/>
      <point x="875" y="235"/>
      <point x="824" y="235" type="curve" smooth="yes"/>
      <point x="775" y="235"/>
      <point x="747" y="271"/>
      <point x="747" y="328" type="curve" smooth="yes"/>
      <point x="747" y="393"/>
      <point x="771" y="443"/>
      <point x="817" y="477" type="curve"/>
      <point x="873" y="443"/>
      <point x="901" y="394"/>
    </contour>
  </outline>
</glyph>
<glyph name="uni1C23" format="2">
  <advance width="609"/>
  <unicode hex="1C23"/>
  <note>
u1C23
</note>
  <outline>
    <contour>
      <point x="292" y="593" type="curve" smooth="yes"/>
      <point x="219" y="593"/>
      <point x="145" y="575"/>
      <point x="55" y="519" type="curve"/>
      <point x="91" y="449" type="line"/>
      <point x="175" y="502"/>
      <point x="232" y="516"/>
      <point x="294" y="516" type="curve" smooth="yes"/>
      <point x="375" y="516"/>
      <point x="402" y="488"/>
      <point x="402" y="446" type="curve" smooth="yes"/>
      <point x="402" y="406"/>
      <point x="382" y="383"/>
      <point x="261" y="342" type="curve" smooth="yes"/>
      <point x="171" y="312"/>
      <point x="61" y="274"/>
      <point x="61" y="149" type="curve" smooth="yes"/>
      <point x="61" y="49"/>
      <point x="133" y="-13"/>
      <point x="265" y="-13" type="curve" smooth="yes"/>
      <point x="361" y="-13"/>
      <point x="455" y="18"/>
      <point x="569" y="98" type="curve"/>
      <point x="526" y="166" type="line"/>
      <point x="421" y="91"/>
      <point x="346" y="64"/>
      <point x="265" y="64" type="curve" smooth="yes"/>
      <point x="178" y="64"/>
      <point x="141" y="98"/>
      <point x="141" y="154" type="curve" smooth="yes"/>
      <point x="141" y="225"/>
      <point x="199" y="247"/>
      <point x="298" y="281" type="curve" smooth="yes"/>
      <point x="444" y="331"/>
      <point x="482" y="378"/>
      <point x="482" y="448" type="curve" smooth="yes"/>
      <point x="482" y="533"/>
      <point x="423" y="593"/>
    </contour>
    <contour>
      <point x="174" y="540" type="line"/>
      <point x="111" y="497" type="line"/>
      <point x="447" y="55" type="line"/>
      <point x="510" y="97" type="line"/>
    </contour>
  </outline>
</glyph>
<glyph name="uni1C24" format="2">
  <advance width="346"/>
  <unicode hex="1C24"/>
  <note>
u1C24
</note>
  <outline>
    <contour>
      <point x="197" y="494" type="line"/>
      <point x="213" y="452"/>
      <point x="221" y="410"/>
      <point x="221" y="368" type="curve" smooth="yes"/>
      <point x="221" y="314"/>
      <point x="207" y="260"/>
      <point x="178" y="207" type="curve"/>
      <point x="175" y="208" type="line"/>
      <point x="155" y="323"/>
      <point x="113" y="415"/>
      <point x="29" y="507" type="curve"/>
      <point x="-30" y="449" type="line"/>
      <point x="57" y="359"/>
      <point x="95" y="275"/>
      <point x="123" y="146" type="curve"/>
      <point x="200" y="121" type="line"/>
      <point x="272" y="218"/>
      <point x="301" y="292"/>
      <point x="301" y="389" type="curve" smooth="yes"/>
      <point x="301" y="434"/>
      <point x="293" y="478"/>
      <point x="279" y="522" type="curve"/>
    </contour>
  </outline>
</glyph>
<glyph name="uni1C25" format="2">
  <advance width="230"/>
  <unicode hex="1C25"/>
  <note>
u1C25
</note>
  <outline>
    <contour>
      <point x="50" y="497" type="line"/>
      <point x="87" y="435"/>
      <point x="102" y="383"/>
      <point x="102" y="316" type="curve" smooth="yes"/>
      <point x="102" y="239"/>
      <point x="82" y="161"/>
      <point x="40" y="82" type="curve"/>
      <point x="99" y="50" type="line"/>
      <point x="154" y="141"/>
      <point x="182" y="230"/>
      <point x="182" y="318" type="curve" smooth="yes"/>
      <point x="182" y="396"/>
      <point x="161" y="468"/>
      <point x="118" y="535" type="curve"/>
    </contour>
  </outline>
</glyph>
<glyph name="uni1C26" format="2">
  <advance width="354"/>
  <unicode hex="1C26"/>
  <note>
u1C26
</note>
  <outline>
    <contour>
      <point x="178" y="520" type="line"/>
      <point x="188" y="446"/>
      <point x="222" y="371"/>
      <point x="271" y="312" type="curve"/>
      <point x="334" y="361" type="line"/>
      <point x="285" y="417"/>
      <point x="247" y="502"/>
      <point x="239" y="582" type="curve"/>
      <point x="136" y="582" type="line"/>
      <point x="55" y="486"/>
      <point x="20" y="397"/>
      <point x="20" y="282" type="curve" smooth="yes"/>
      <point x="20" y="163"/>
      <point x="63" y="52"/>
      <point x="149" y="-49" type="curve"/>
      <point x="213" y="8" type="line"/>
      <point x="135" y="95"/>
      <point x="98" y="193"/>
      <point x="98" y="288" type="curve" smooth="yes"/>
      <point x="98" y="370"/>
      <point x="124" y="447"/>
      <point x="174" y="520" type="curve"/>
    </contour>
  </outline>
</glyph>
<glyph name="uni1C27" format="2">
  <advance width="353"/>
  <unicode hex="1C27"/>
  <note>
u1C27
</note>
  <outline>
    <contour>
      <point x="188" y="664" type="line"/>
      <point x="302" y="568" type="line"/>
      <point x="353" y="631" type="line"/>
      <point x="180" y="776" type="line"/>
      <point x="-1" y="575" type="line"/>
      <point x="154" y="437"/>
      <point x="232" y="281"/>
      <point x="232" y="109" type="curve" smooth="yes"/>
      <point x="232" y="-27"/>
      <point x="181" y="-97"/>
      <point x="102" y="-97" type="curve" smooth="yes"/>
      <point x="84" y="-97"/>
      <point x="68" y="-92"/>
      <point x="54" y="-83" type="curve"/>
      <point x="18" y="-152" type="line"/>
      <point x="39" y="-168"/>
      <point x="66" y="-176"/>
      <point x="98" y="-176" type="curve" smooth="yes"/>
      <point x="241" y="-176"/>
      <point x="315" y="-52"/>
      <point x="315" y="111" type="curve" smooth="yes"/>
      <point x="315" y="277"/>
      <point x="246" y="432"/>
      <point x="109" y="575" type="curve"/>
    </contour>
  </outline>
</glyph>
<glyph name="uni1C28" format="2">
  <advance width="251"/>
  <unicode hex="1C28"/>
  <note>
u1C28
</note>
  <outline>
    <contour>
      <point x="184" y="607" type="line"/>
      <point x="104" y="503"/>
      <point x="70" y="407"/>
      <point x="70" y="283" type="curve" smooth="yes"/>
      <point x="70" y="162"/>
      <point x="103" y="51"/>
      <point x="168" y="-48" type="curve"/>
      <point x="241" y="0" type="line"/>
      <point x="179" y="88"/>
      <point x="148" y="184"/>
      <point x="148" y="289" type="curve" smooth="yes"/>
      <point x="148" y="389"/>
      <point x="179" y="482"/>
      <point x="241" y="568" type="curve"/>
    </contour>
  </outline>
</glyph>
<glyph name="uni1C29" format="2">
  <advance width="200"/>
  <unicode hex="1C29"/>
  <note>
u1C29
</note>
  <outline>
    <contour>
      <point x="215" y="-7" type="line"/>
      <point x="158" y="91"/>
      <point x="134" y="178"/>
      <point x="134" y="298" type="curve" smooth="yes"/>
      <point x="134" y="449"/>
      <point x="177" y="582"/>
      <point x="263" y="697" type="curve"/>
      <point x="328" y="685"/>
      <point x="395" y="679"/>
      <point x="464" y="679" type="curve" smooth="yes"/>
      <point x="609" y="679"/>
      <point x="728" y="694"/>
      <point x="820" y="725" type="curve"/>
      <point x="820" y="804" type="line"/>
      <point x="723" y="774"/>
      <point x="604" y="760"/>
      <point x="464" y="760" type="curve" smooth="yes"/>
      <point x="387" y="760"/>
      <point x="308" y="767"/>
      <point x="224" y="781" type="curve"/>
      <point x="109" y="629"/>
      <point x="55" y="482"/>
      <point x="55" y="291" type="curve" smooth="yes"/>
      <point x="55" y="159"/>
      <point x="83" y="54"/>
      <point x="143" y="-48" type="curve"/>
    </contour>
  </outline>
</glyph>
<glyph name="uni1C2A" format="2">
  <advance width="279"/>
  <unicode hex="1C2A"/>
  <note>
u1C2A
</note>
  <outline>
    <contour>
      <point x="-36" y="-97" type="curve" smooth="yes"/>
      <point x="-55" y="-97"/>
      <point x="-69" y="-93"/>
      <point x="-84" y="-83" type="curve"/>
      <point x="-120" y="-152" type="line"/>
      <point x="-97" y="-169"/>
      <point x="-72" y="-176"/>
      <point x="-40" y="-176" type="curve" smooth="yes"/>
      <point x="99" y="-176"/>
      <point x="204" y="-42"/>
      <point x="204" y="170" type="curve" smooth="yes"/>
      <point x="204" y="337"/>
      <point x="164" y="489"/>
      <point x="80" y="608" type="curve"/>
      <point x="8" y="567" type="line"/>
      <point x="84" y="453"/>
      <point x="121" y="317"/>
      <point x="121" y="173" type="curve" smooth="yes"/>
      <point x="121" y="5"/>
      <point x="56" y="-97"/>
    </contour>
  </outline>
</glyph>
<glyph name="uni1C2B" format="2">
  <advance width="369"/>
  <unicode hex="1C2B"/>
  <note>
u1C2B
</note>
  <outline>
    <contour>
      <point x="152" y="596" type="curve" smooth="yes"/>
      <point x="96" y="596"/>
      <point x="48" y="579"/>
      <point x="2" y="542" type="curve"/>
      <point x="47" y="474" type="line"/>
      <point x="85" y="504"/>
      <point x="115" y="516"/>
      <point x="152" y="516" type="curve" smooth="yes"/>
      <point x="188" y="516"/>
      <point x="206" y="495"/>
      <point x="206" y="457" type="curve" smooth="yes"/>
      <point x="206" y="399"/>
      <point x="165" y="357"/>
      <point x="34" y="280" type="curve"/>
      <point x="77" y="209" type="line"/>
      <point x="228" y="304"/>
      <point x="289" y="368"/>
      <point x="289" y="457" type="curve" smooth="yes"/>
      <point x="289" y="535"/>
      <point x="243" y="596"/>
    </contour>
    <contour>
      <point x="64" y="-97" type="curve" smooth="yes"/>
      <point x="45" y="-97"/>
      <point x="31" y="-93"/>
      <point x="16" y="-83" type="curve"/>
      <point x="-20" y="-152" type="line"/>
      <point x="3" y="-169"/>
      <point x="28" y="-176"/>
      <point x="60" y="-176" type="curve" smooth="yes"/>
      <point x="193" y="-176"/>
      <point x="294" y="-93"/>
      <point x="294" y="73" type="curve" smooth="yes"/>
      <point x="294" y="164"/>
      <point x="262" y="281"/>
      <point x="201" y="359" type="curve"/>
      <point x="136" y="305" type="line"/>
      <point x="185" y="241"/>
      <point x="211" y="149"/>
      <point x="211" y="73" type="curve" smooth="yes"/>
      <point x="211" y="-46"/>
      <point x="150" y="-97"/>
    </contour>
  </outline>
</glyph>
<glyph name="uni1C2C" format="2">
  <unicode hex="1C2C"/>
  <note>
u1C2C
</note>
  <outline>
    <contour>
      <point x="-25" y="-82" type="line"/>
      <point x="-81" y="-46" type="line"/>
      <point x="-173" y="-191" type="line"/>
      <point x="-109" y="-232" type="line"/>
      <point x="-72" y="-213"/>
      <point x="-29" y="-204"/>
      <point x="19" y="-204" type="curve" smooth="yes"/>
      <point x="67" y="-204"/>
      <point x="108" y="-214"/>
      <point x="144" y="-234" type="curve"/>
      <point x="173" y="-156" type="line"/>
      <point x="135" y="-139"/>
      <point x="93" y="-130"/>
      <point x="48" y="-130" type="curve" smooth="yes"/>
      <point x="-2" y="-130"/>
      <point x="-46" y="-142"/>
      <point x="-84" y="-167" type="curve"/>
      <point x="-86" y="-165" type="line"/>
    </contour>
  </outline>
</glyph>
<glyph name="uni1C2D" format="2">
  <unicode hex="1C2D"/>
  <note>
u1C2D
</note>
  <outline>
    <contour>
      <point x="10" y="830" type="line"/>
      <point x="-30" y="794"/>
      <point x="-50" y="751"/>
      <point x="-50" y="701" type="curve" smooth="yes"/>
      <point x="-50" y="657"/>
      <point x="-33" y="635"/>
      <point x="2" y="635" type="curve" smooth="yes"/>
      <point x="31" y="635"/>
      <point x="53" y="654"/>
      <point x="53" y="689" type="curve" smooth="yes"/>
      <point x="53" y="711"/>
      <point x="44" y="727"/>
      <point x="27" y="736" type="curve" smooth="yes"/>
      <point x="18" y="741"/>
      <point x="14" y="746"/>
      <point x="14" y="750" type="curve" smooth="yes"/>
      <point x="14" y="761"/>
      <point x="25" y="776"/>
      <point x="47" y="796" type="curve"/>
    </contour>
  </outline>
</glyph>
<glyph name="uni1C2E" format="2">
  <unicode hex="1C2E"/>
  <note>
u1C2E
</note>
  <outline>
    <contour>
      <point x="-84" y="747" type="curve" smooth="yes"/>
      <point x="-115" y="747"/>
      <point x="-136" y="729"/>
      <point x="-136" y="691" type="curve" smooth="yes"/>
      <point x="-136" y="655"/>
      <point x="-115" y="635"/>
      <point x="-84" y="635" type="curve" smooth="yes"/>
      <point x="-55" y="635"/>
      <point x="-33" y="655"/>
      <point x="-33" y="691" type="curve" smooth="yes"/>
      <point x="-33" y="729"/>
      <point x="-55" y="747"/>
    </contour>
    <contour>
      <point x="87" y="747" type="curve" smooth="yes"/>
      <point x="56" y="747"/>
      <point x="35" y="729"/>
      <point x="35" y="691" type="curve" smooth="yes"/>
      <point x="35" y="655"/>
      <point x="56" y="635"/>
      <point x="87" y="635" type="curve" smooth="yes"/>
      <point x="116" y="635"/>
      <point x="138" y="655"/>
      <point x="138" y="691" type="curve" smooth="yes"/>
      <point x="138" y="729"/>
      <point x="116" y="747"/>
    </contour>
  </outline>
</glyph>
<glyph name="uni1C2F" format="2">
  <unicode hex="1C2F"/>
  <note>
u1C2F
</note>
  <outline>
    <contour>
      <point x="1" y="840" type="curve" smooth="yes"/>
      <point x="-30" y="840"/>
      <point x="-46" y="824"/>
      <point x="-46" y="791" type="curve" smooth="yes"/>
      <point x="-46" y="759"/>
      <point x="-27" y="741"/>
      <point x="1" y="741" type="curve" smooth="yes"/>
      <point x="28" y="741"/>
      <point x="48" y="759"/>
      <point x="48" y="791" type="curve" smooth="yes"/>
      <point x="48" y="824"/>
      <point x="28" y="840"/>
    </contour>
    <contour>
      <point x="-95" y="734" type="curve" smooth="yes"/>
      <point x="-126" y="734"/>
      <point x="-142" y="718"/>
      <point x="-142" y="685" type="curve" smooth="yes"/>
      <point x="-142" y="653"/>
      <point x="-123" y="635"/>
      <point x="-95" y="635" type="curve" smooth="yes"/>
      <point x="-68" y="635"/>
      <point x="-48" y="653"/>
      <point x="-48" y="685" type="curve" smooth="yes"/>
      <point x="-48" y="718"/>
      <point x="-68" y="734"/>
    </contour>
    <contour>
      <point x="95" y="734" type="curve" smooth="yes"/>
      <point x="68" y="734"/>
      <point x="49" y="718"/>
      <point x="49" y="685" type="curve" smooth="yes"/>
      <point x="49" y="653"/>
      <point x="68" y="635"/>
      <point x="95" y="635" type="curve" smooth="yes"/>
      <point x="122" y="635"/>
      <point x="142" y="653"/>
      <point x="142" y="685" type="curve" smooth="yes"/>
      <point x="142" y="718"/>
      <point x="122" y="734"/>
    </contour>
  </outline>
</glyph>
<glyph name="uni1C30" format="2">
  <unicode hex="1C30"/>
  <note>
u1C30
</note>
  <outline>
    <contour>
      <point x="-108" y="630" type="line"/>
      <point x="-65" y="713"/>
      <point x="-23" y="781"/>
      <point x="44" y="781" type="curve" smooth="yes"/>
      <point x="75" y="781"/>
      <point x="96" y="763"/>
      <point x="96" y="738" type="curve" smooth="yes"/>
      <point x="96" y="707"/>
      <point x="73" y="689"/>
      <point x="38" y="689" type="curve" smooth="yes"/>
      <point x="14" y="689"/>
      <point x="-5" y="695"/>
      <point x="-20" y="707" type="curve"/>
      <point x="-20" y="648" type="line"/>
      <point x="-5" y="639"/>
      <point x="14" y="635"/>
      <point x="38" y="635" type="curve" smooth="yes"/>
      <point x="107" y="635"/>
      <point x="155" y="675"/>
      <point x="155" y="739" type="curve" smooth="yes"/>
      <point x="155" y="801"/>
      <point x="108" y="840"/>
      <point x="44" y="840" type="curve" smooth="yes"/>
      <point x="-35" y="840"/>
      <point x="-90" y="792"/>
      <point x="-161" y="662" type="curve"/>
    </contour>
  </outline>
</glyph>
<glyph name="uni1C31" format="2">
  <unicode hex="1C31"/>
  <note>
u1C31
</note>
  <outline>
    <contour>
      <point x="-1" y="846" type="curve" smooth="yes"/>
      <point x="-66" y="846"/>
      <point x="-110" y="806"/>
      <point x="-110" y="741" type="curve" smooth="yes"/>
      <point x="-110" y="674"/>
      <point x="-66" y="635"/>
      <point x="-1" y="635" type="curve" smooth="yes"/>
      <point x="64" y="635"/>
      <point x="110" y="675"/>
      <point x="110" y="742" type="curve" smooth="yes"/>
      <point x="110" y="806"/>
      <point x="63" y="846"/>
    </contour>
    <contour>
      <point x="-1" y="797" type="curve" smooth="yes"/>
      <point x="32" y="797"/>
      <point x="55" y="776"/>
      <point x="55" y="741" type="curve" smooth="yes"/>
      <point x="55" y="706"/>
      <point x="32" y="685"/>
      <point x="-1" y="685" type="curve" smooth="yes"/>
      <point x="-37" y="685"/>
      <point x="-57" y="706"/>
      <point x="-57" y="741" type="curve" smooth="yes"/>
      <point x="-57" y="776"/>
      <point x="-34" y="797"/>
    </contour>
  </outline>
</glyph>
<glyph name="uni1C32" format="2">
  <unicode hex="1C32"/>
  <note>
u1C32
</note>
  <outline>
    <contour>
      <point x="133" y="785" type="line"/>
      <point x="133" y="733"/>
      <point x="115" y="707"/>
      <point x="78" y="707" type="curve" smooth="yes"/>
      <point x="27" y="707"/>
      <point x="-7" y="784"/>
      <point x="-74" y="784" type="curve" smooth="yes"/>
      <point x="-142" y="784"/>
      <point x="-184" y="729"/>
      <point x="-184" y="636" type="curve"/>
      <point x="-133" y="636" type="line"/>
      <point x="-133" y="688"/>
      <point x="-115" y="714"/>
      <point x="-78" y="714" type="curve" smooth="yes"/>
      <point x="-25" y="714"/>
      <point x="7" y="637"/>
      <point x="74" y="637" type="curve" smooth="yes"/>
      <point x="142" y="637"/>
      <point x="184" y="691"/>
      <point x="184" y="785" type="curve"/>
    </contour>
  </outline>
</glyph>
<glyph name="uni1C33" format="2">
  <unicode hex="1C33"/>
  <note>
u1C33
</note>
  <outline>
    <contour>
      <point x="149" y="646" type="line"/>
      <point x="149" y="717" type="line"/>
      <point x="-149" y="717" type="line"/>
      <point x="-149" y="646" type="line"/>
    </contour>
  </outline>
</glyph>
<glyph name="uni1C34" format="2">
  <advance width="385"/>
  <unicode hex="1C34"/>
  <note>
u1C34
</note>
  <outline>
    <contour>
      <point x="241" y="-48" type="line"/>
      <point x="321" y="56"/>
      <point x="355" y="152"/>
      <point x="355" y="276" type="curve" smooth="yes"/>
      <point x="355" y="397"/>
      <point x="322" y="508"/>
      <point x="257" y="607" type="curve"/>
      <point x="184" y="559" type="line"/>
      <point x="246" y="471"/>
      <point x="277" y="375"/>
      <point x="277" y="270" type="curve" smooth="yes"/>
      <point x="277" y="170"/>
      <point x="246" y="77"/>
      <point x="184" y="-9" type="curve"/>
    </contour>
    <contour>
      <point x="111" y="451" type="line"/>
      <point x="73" y="404"/>
      <point x="55" y="342"/>
      <point x="55" y="277" type="curve" smooth="yes"/>
      <point x="55" y="217"/>
      <point x="70" y="155"/>
      <point x="99" y="99" type="curve"/>
      <point x="175" y="135" type="line"/>
      <point x="147" y="181"/>
      <point x="134" y="230"/>
      <point x="134" y="279" type="curve" smooth="yes"/>
      <point x="134" y="326"/>
      <point x="148" y="373"/>
      <point x="175" y="414" type="curve"/>
    </contour>
  </outline>
</glyph>
<glyph name="uni1C35" format="2">
  <advance width="180"/>
  <unicode hex="1C35"/>
  <note>
u1C35
</note>
  <outline>
    <contour>
      <point x="111" y="451" type="line"/>
      <point x="73" y="404"/>
      <point x="55" y="342"/>
      <point x="55" y="277" type="curve" smooth="yes"/>
      <point x="55" y="217"/>
      <point x="70" y="155"/>
      <point x="99" y="99" type="curve"/>
      <point x="175" y="135" type="line"/>
      <point x="147" y="181"/>
      <point x="134" y="230"/>
      <point x="134" y="279" type="curve" smooth="yes"/>
      <point x="134" y="326"/>
      <point x="148" y="373"/>
      <point x="175" y="414" type="curve"/>
    </contour>
  </outline>
</glyph>
<glyph name="uni1C36" format="2">
  <unicode hex="1C36"/>
  <note>
u1C36
</note>
  <outline>
    <contour>
      <point x="126" y="741" type="line"/>
      <point x="97" y="721"/>
      <point x="67" y="711"/>
      <point x="38" y="711" type="curve" smooth="yes"/>
      <point x="0" y="711"/>
      <point x="-36" y="728"/>
      <point x="-72" y="761" type="curve"/>
      <point x="-158" y="669" type="line"/>
      <point x="-114" y="627" type="line"/>
      <point x="-70" y="675" type="line"/>
      <point x="-37" y="650"/>
      <point x="-1" y="637"/>
      <point x="38" y="637" type="curve" smooth="yes"/>
      <point x="79" y="637"/>
      <point x="119" y="650"/>
      <point x="158" y="676" type="curve"/>
    </contour>
  </outline>
</glyph>
<glyph name="uni1C37" format="2">
  <unicode hex="1C37"/>
  <note>
u1C37
</note>
  <outline>
    <contour>
      <point x="1" y="-89" type="curve" smooth="yes"/>
      <point x="-31" y="-89"/>
      <point x="-52" y="-108"/>
      <point x="-52" y="-145" type="curve" smooth="yes"/>
      <point x="-52" y="-181"/>
      <point x="-31" y="-201"/>
      <point x="1" y="-201" type="curve" smooth="yes"/>
      <point x="30" y="-201"/>
      <point x="52" y="-181"/>
      <point x="52" y="-145" type="curve" smooth="yes"/>
      <point x="52" y="-108"/>
      <point x="30" y="-89"/>
    </contour>
  </outline>
</glyph>
<glyph name="uni1C3B" format="2">
  <advance width="250"/>
  <unicode hex="1C3B"/>
  <note>
u1C3B
</note>
  <outline>
    <contour>
      <point x="155" y="0" type="line"/>
      <point x="170" y="583" type="line"/>
      <point x="80" y="583" type="line"/>
      <point x="95" y="0" type="line"/>
    </contour>
  </outline>
</glyph>
<glyph name="uni1C3D" format="2">
  <advance width="524"/>
  <unicode hex="1C3D"/>
  <note>
u1C3D
</note>
  <outline>
    <contour>
      <point x="318" y="297" type="line"/>
      <point x="484" y="481" type="line"/>
      <point x="423" y="537" type="line"/>
      <point x="262" y="359" type="line"/>
      <point x="101" y="537" type="line"/>
      <point x="40" y="481" type="line"/>
      <point x="206" y="297" type="line"/>
      <point x="40" y="113" type="line"/>
      <point x="101" y="58" type="line"/>
      <point x="262" y="236" type="line"/>
      <point x="423" y="58" type="line"/>
      <point x="484" y="113" type="line"/>
    </contour>
  </outline>
</glyph>
<glyph name="uni1C3F" format="2">
  <advance width="588"/>
  <unicode hex="1C3F"/>
  <note>
u1C3F
</note>
  <outline>
    <contour>
      <point x="40" y="559" type="line"/>
      <point x="102" y="471"/>
      <point x="133" y="375"/>
      <point x="133" y="270" type="curve" smooth="yes"/>
      <point x="133" y="170"/>
      <point x="102" y="77"/>
      <point x="40" y="-9" type="curve"/>
      <point x="97" y="-48" type="line"/>
      <point x="177" y="56"/>
      <point x="211" y="152"/>
      <point x="211" y="276" type="curve" smooth="yes"/>
      <point x="211" y="396"/>
      <point x="178" y="507"/>
      <point x="112" y="607" type="curve"/>
    </contour>
    <contour>
      <point x="491" y="607" type="line"/>
      <point x="411" y="503"/>
      <point x="377" y="407"/>
      <point x="377" y="283" type="curve" smooth="yes"/>
      <point x="377" y="163"/>
      <point x="410" y="52"/>
      <point x="476" y="-48" type="curve"/>
      <point x="548" y="0" type="line"/>
      <point x="486" y="88"/>
      <point x="455" y="184"/>
      <point x="455" y="289" type="curve" smooth="yes"/>
      <point x="455" y="389"/>
      <point x="486" y="482"/>
      <point x="548" y="568" type="curve"/>
    </contour>
    <contour>
      <point x="295" y="516" type="curve" smooth="yes"/>
      <point x="263" y="516"/>
      <point x="242" y="497"/>
      <point x="242" y="460" type="curve" smooth="yes"/>
      <point x="242" y="424"/>
      <point x="263" y="404"/>
      <point x="295" y="404" type="curve" smooth="yes"/>
      <point x="324" y="404"/>
      <point x="346" y="424"/>
      <point x="346" y="460" type="curve" smooth="yes"/>
      <point x="346" y="497"/>
      <point x="324" y="516"/>
    </contour>
    <contour>
      <point x="295" y="166" type="curve" smooth="yes"/>
      <point x="263" y="166"/>
      <point x="242" y="147"/>
      <point x="242" y="110" type="curve" smooth="yes"/>
      <point x="242" y="74"/>
      <point x="263" y="54"/>
      <point x="295" y="54" type="curve" smooth="yes"/>
      <point x="324" y="54"/>
      <point x="346" y="74"/>
      <point x="346" y="110" type="curve" smooth="yes"/>
      <point x="346" y="147"/>
      <point x="324" y="166"/>
    </contour>
  </outline>
</glyph>
<glyph name="uni1C40" format="2">
  <advance width="490"/>
  <unicode hex="1C40"/>
  <note>
u1C40
</note>
  <outline>
    <contour>
      <point x="245" y="597" type="curve" smooth="yes"/>
      <point x="124" y="597"/>
      <point x="55" y="487"/>
      <point x="55" y="291" type="curve" smooth="yes"/>
      <point x="55" y="96"/>
      <point x="124" y="-14"/>
      <point x="245" y="-14" type="curve" smooth="yes"/>
      <point x="366" y="-14"/>
      <point x="435" y="96"/>
      <point x="435" y="291" type="curve" smooth="yes"/>
      <point x="435" y="487"/>
      <point x="366" y="597"/>
    </contour>
    <contour>
      <point x="245" y="517" type="curve" smooth="yes"/>
      <point x="327" y="517"/>
      <point x="349" y="399"/>
      <point x="349" y="291" type="curve" smooth="yes"/>
      <point x="349" y="182"/>
      <point x="326" y="66"/>
      <point x="245" y="66" type="curve" smooth="yes"/>
      <point x="164" y="66"/>
      <point x="141" y="180"/>
      <point x="141" y="291" type="curve" smooth="yes"/>
      <point x="141" y="396"/>
      <point x="162" y="517"/>
    </contour>
  </outline>
</glyph>
<glyph name="uni1C41" format="2">
  <advance width="490"/>
  <unicode hex="1C41"/>
  <note>
u1C41
</note>
  <outline>
    <contour>
      <point x="336" y="246" type="line"/>
      <point x="327" y="170"/>
      <point x="292" y="98"/>
      <point x="232" y="28" type="curve"/>
      <point x="293" y="-14" type="line"/>
      <point x="370" y="75"/>
      <point x="408" y="184"/>
      <point x="408" y="310" type="curve" smooth="yes"/>
      <point x="408" y="458"/>
      <point x="355" y="597"/>
      <point x="230" y="597" type="curve" smooth="yes"/>
      <point x="128" y="597"/>
      <point x="65" y="501"/>
      <point x="65" y="383" type="curve" smooth="yes"/>
      <point x="65" y="269"/>
      <point x="127" y="173"/>
      <point x="229" y="173" type="curve" smooth="yes"/>
      <point x="273" y="173"/>
      <point x="313" y="205"/>
      <point x="332" y="246" type="curve"/>
    </contour>
    <contour>
      <point x="231" y="517" type="curve" smooth="yes"/>
      <point x="280" y="517"/>
      <point x="313" y="453"/>
      <point x="313" y="383" type="curve" smooth="yes"/>
      <point x="313" y="318"/>
      <point x="283" y="249"/>
      <point x="230" y="249" type="curve" smooth="yes"/>
      <point x="179" y="249"/>
      <point x="147" y="314"/>
      <point x="147" y="383" type="curve" smooth="yes"/>
      <point x="147" y="448"/>
      <point x="176" y="517"/>
    </contour>
  </outline>
</glyph>
<glyph name="uni1C42" format="2">
  <advance width="561"/>
  <unicode hex="1C42"/>
  <note>
u1C42
</note>
  <outline>
    <contour>
      <point x="73" y="478" type="line"/>
      <point x="114" y="493"/>
      <point x="160" y="500"/>
      <point x="210" y="500" type="curve" smooth="yes"/>
      <point x="302" y="500"/>
      <point x="423" y="470"/>
      <point x="423" y="403" type="curve" smooth="yes"/>
      <point x="423" y="333"/>
      <point x="290" y="297"/>
      <point x="183" y="297" type="curve" smooth="yes"/>
      <point x="160" y="297"/>
      <point x="136" y="298"/>
      <point x="115" y="302" type="curve"/>
      <point x="67" y="242" type="line"/>
      <point x="361" y="1" type="line"/>
      <point x="409" y="60" type="line"/>
      <point x="193" y="224" type="line"/>
      <point x="195" y="227" type="line"/>
      <point x="356" y="227"/>
      <point x="509" y="288"/>
      <point x="509" y="408" type="curve" smooth="yes"/>
      <point x="509" y="526"/>
      <point x="355" y="580"/>
      <point x="209" y="580" type="curve" smooth="yes"/>
      <point x="150" y="580"/>
      <point x="97" y="571"/>
      <point x="50" y="552" type="curve"/>
    </contour>
  </outline>
</glyph>
<glyph name="uni1C43" format="2">
  <advance width="576"/>
  <unicode hex="1C43"/>
  <note>
u1C43
</note>
  <outline>
    <contour>
      <point x="89" y="498" type="line"/>
      <point x="125" y="511"/>
      <point x="169" y="517"/>
      <point x="220" y="517" type="curve" smooth="yes"/>
      <point x="299" y="517"/>
      <point x="412" y="500"/>
      <point x="412" y="451" type="curve" smooth="yes"/>
      <point x="412" y="428"/>
      <point x="386" y="409"/>
      <point x="335" y="392" type="curve"/>
      <point x="299" y="401"/>
      <point x="261" y="406"/>
      <point x="220" y="406" type="curve" smooth="yes"/>
      <point x="163" y="406"/>
      <point x="111" y="397"/>
      <point x="65" y="381" type="curve"/>
      <point x="89" y="307" type="line"/>
      <point x="125" y="320"/>
      <point x="170" y="326"/>
      <point x="221" y="326" type="curve" smooth="yes"/>
      <point x="305" y="326"/>
      <point x="412" y="307"/>
      <point x="412" y="257" type="curve" smooth="yes"/>
      <point x="412" y="215"/>
      <point x="320" y="194"/>
      <point x="242" y="194" type="curve" smooth="yes"/>
      <point x="214" y="194"/>
      <point x="182" y="197"/>
      <point x="158" y="202" type="curve"/>
      <point x="112" y="133" type="line"/>
      <point x="336" y="-18" type="line"/>
      <point x="378" y="45" type="line"/>
      <point x="237" y="128" type="line"/>
      <point x="238" y="131" type="line"/>
      <point x="246" y="129"/>
      <point x="255" y="129"/>
      <point x="265" y="129" type="curve" smooth="yes"/>
      <point x="373" y="129"/>
      <point x="496" y="172"/>
      <point x="496" y="257" type="curve" smooth="yes"/>
      <point x="496" y="299"/>
      <point x="470" y="333"/>
      <point x="419" y="358" type="curve"/>
      <point x="470" y="383"/>
      <point x="496" y="415"/>
      <point x="496" y="451" type="curve" smooth="yes"/>
      <point x="496" y="539"/>
      <point x="397" y="597"/>
      <point x="220" y="597" type="curve" smooth="yes"/>
      <point x="163" y="597"/>
      <point x="111" y="589"/>
      <point x="65" y="572" type="curve"/>
    </contour>
  </outline>
</glyph>
<glyph name="uni1C44" format="2">
  <advance width="678"/>
  <unicode hex="1C44"/>
  <note>
u1C44
</note>
  <outline>
    <contour>
      <point x="597" y="255" type="line"/>
      <point x="534" y="229"/>
      <point x="462" y="217"/>
      <point x="380" y="217" type="curve" smooth="yes"/>
      <point x="297" y="217"/>
      <point x="224" y="229"/>
      <point x="159" y="255" type="curve"/>
      <point x="209" y="391" type="line"/>
      <point x="261" y="375"/>
      <point x="319" y="367"/>
      <point x="382" y="367" type="curve" smooth="yes"/>
      <point x="453" y="367"/>
      <point x="518" y="378"/>
      <point x="576" y="399" type="curve"/>
      <point x="552" y="477" type="line"/>
      <point x="501" y="458"/>
      <point x="444" y="448"/>
      <point x="379" y="448" type="curve" smooth="yes"/>
      <point x="303" y="448"/>
      <point x="230" y="462"/>
      <point x="159" y="490" type="curve"/>
      <point x="55" y="212" type="line"/>
      <point x="152" y="162"/>
      <point x="262" y="136"/>
      <point x="385" y="136" type="curve" smooth="yes"/>
      <point x="474" y="136"/>
      <point x="553" y="150"/>
      <point x="623" y="177" type="curve"/>
    </contour>
  </outline>
</glyph>
<glyph name="uni1C45" format="2">
  <advance width="675"/>
  <unicode hex="1C45"/>
  <note>
u1C45
</note>
  <outline>
    <contour>
      <point x="556" y="557" type="line"/>
      <point x="280" y="291" type="line" smooth="yes"/>
      <point x="245" y="257"/>
      <point x="213" y="222"/>
      <point x="185" y="184" type="curve"/>
      <point x="182" y="186" type="line"/>
      <point x="195" y="220"/>
      <point x="202" y="263"/>
      <point x="202" y="314" type="curve" smooth="yes"/>
      <point x="202" y="405"/>
      <point x="176" y="487"/>
      <point x="125" y="560" type="curve"/>
      <point x="55" y="516" type="line"/>
      <point x="104" y="445"/>
      <point x="128" y="380"/>
      <point x="128" y="300" type="curve" smooth="yes"/>
      <point x="128" y="208"/>
      <point x="109" y="147"/>
      <point x="64" y="81" type="curve"/>
      <point x="119" y="26" type="line"/>
      <point x="395" y="292" type="line" smooth="yes"/>
      <point x="431" y="326"/>
      <point x="462" y="361"/>
      <point x="490" y="399" type="curve"/>
      <point x="493" y="397" type="line"/>
      <point x="480" y="363"/>
      <point x="473" y="320"/>
      <point x="473" y="269" type="curve" smooth="yes"/>
      <point x="473" y="178"/>
      <point x="499" y="96"/>
      <point x="550" y="23" type="curve"/>
      <point x="620" y="67" type="line"/>
      <point x="571" y="138"/>
      <point x="547" y="203"/>
      <point x="547" y="283" type="curve" smooth="yes"/>
      <point x="547" y="375"/>
      <point x="566" y="436"/>
      <point x="611" y="502" type="curve"/>
    </contour>
  </outline>
</glyph>
<glyph name="uni1C46" format="2">
  <advance width="591"/>
  <unicode hex="1C46"/>
  <note>
u1C46
</note>
  <outline>
    <contour>
      <point x="381" y="487" type="line"/>
      <point x="495" y="430" type="line"/>
      <point x="531" y="504" type="line"/>
      <point x="344" y="596" type="line"/>
      <point x="221" y="361" type="line"/>
      <point x="336" y="300"/>
      <point x="435" y="240"/>
      <point x="435" y="150" type="curve" smooth="yes"/>
      <point x="435" y="101"/>
      <point x="406" y="72"/>
      <point x="351" y="72" type="curve" smooth="yes"/>
      <point x="259" y="72"/>
      <point x="178" y="114"/>
      <point x="78" y="204" type="curve"/>
      <point x="25" y="140" type="line"/>
      <point x="140" y="39"/>
      <point x="232" y="-8"/>
      <point x="349" y="-8" type="curve" smooth="yes"/>
      <point x="458" y="-8"/>
      <point x="521" y="53"/>
      <point x="521" y="150" type="curve" smooth="yes"/>
      <point x="521" y="240"/>
      <point x="474" y="312"/>
      <point x="331" y="393" type="curve"/>
    </contour>
  </outline>
</glyph>
<glyph name="uni1C47" format="2">
  <advance width="471"/>
  <unicode hex="1C47"/>
  <note>
u1C47
</note>
  <outline>
    <contour>
      <point x="213" y="535" type="line"/>
      <point x="293" y="455"/>
      <point x="321" y="393"/>
      <point x="321" y="318" type="curve" smooth="yes"/>
      <point x="321" y="238"/>
      <point x="289" y="169"/>
      <point x="209" y="89" type="curve"/>
      <point x="206" y="91" type="line"/>
      <point x="217" y="121"/>
      <point x="222" y="151"/>
      <point x="222" y="180" type="curve" smooth="yes"/>
      <point x="222" y="274"/>
      <point x="188" y="356"/>
      <point x="100" y="456" type="curve"/>
      <point x="35" y="402" type="line"/>
      <point x="117" y="308"/>
      <point x="145" y="248"/>
      <point x="145" y="165" type="curve" smooth="yes"/>
      <point x="145" y="129"/>
      <point x="138" y="91"/>
      <point x="124" y="52" type="curve"/>
      <point x="222" y="-6" type="line"/>
      <point x="355" y="125"/>
      <point x="401" y="216"/>
      <point x="401" y="328" type="curve" smooth="yes"/>
      <point x="401" y="426"/>
      <point x="366" y="502"/>
      <point x="278" y="589" type="curve"/>
    </contour>
  </outline>
</glyph>
<glyph name="uni1C48" format="2">
  <advance width="545"/>
  <unicode hex="1C48"/>
  <note>
u1C48
</note>
  <outline>
    <contour>
      <point x="474" y="528" type="line"/>
      <point x="438" y="537"/>
      <point x="401" y="542"/>
      <point x="362" y="542" type="curve" smooth="yes"/>
      <point x="155" y="542"/>
      <point x="55" y="387"/>
      <point x="55" y="103" type="curve"/>
      <point x="131" y="103" type="line" smooth="yes"/>
      <point x="283" y="103"/>
      <point x="377" y="79"/>
      <point x="459" y="26" type="curve"/>
      <point x="500" y="97" type="line"/>
      <point x="408" y="158"/>
      <point x="299" y="184"/>
      <point x="142" y="184" type="curve"/>
      <point x="152" y="369"/>
      <point x="226" y="462"/>
      <point x="362" y="462" type="curve" smooth="yes"/>
      <point x="400" y="462"/>
      <point x="438" y="456"/>
      <point x="474" y="443" type="curve"/>
    </contour>
  </outline>
</glyph>
<glyph name="uni1C49" format="2">
  <advance width="504"/>
  <unicode hex="1C49"/>
  <note>
u1C49
</note>
  <outline>
    <contour>
      <point x="395" y="165" type="line"/>
      <point x="449" y="229" type="line"/>
      <point x="388" y="281" type="line"/>
      <point x="414" y="316"/>
      <point x="427" y="359"/>
      <point x="427" y="409" type="curve" smooth="yes"/>
      <point x="427" y="522"/>
      <point x="365" y="597"/>
      <point x="257" y="597" type="curve" smooth="yes"/>
      <point x="141" y="597"/>
      <point x="70" y="508"/>
      <point x="70" y="343" type="curve" smooth="yes"/>
      <point x="70" y="208"/>
      <point x="126" y="90"/>
      <point x="240" y="-9" type="curve"/>
      <point x="296" y="51" type="line"/>
      <point x="199" y="138"/>
      <point x="152" y="229"/>
      <point x="152" y="349" type="curve" smooth="yes"/>
      <point x="152" y="461"/>
      <point x="186" y="517"/>
      <point x="253" y="517" type="curve" smooth="yes"/>
      <point x="312" y="517"/>
      <point x="345" y="478"/>
      <point x="345" y="407" type="curve" smooth="yes"/>
      <point x="345" y="349"/>
      <point x="326" y="312"/>
      <point x="279" y="265" type="curve"/>
    </contour>
  </outline>
</glyph>
<glyph name="uni1C4D" format="2">
  <advance width="564"/>
  <unicode hex="1C4D"/>
  <note>
u1C4D
</note>
  <outline>
    <contour>
      <point x="524" y="265" type="line"/>
      <point x="524" y="340" type="line"/>
      <point x="440" y="340" type="line"/>
      <point x="434" y="428"/>
      <point x="413" y="512"/>
      <point x="375" y="593" type="curve"/>
      <point x="318" y="578"/>
      <point x="264" y="571"/>
      <point x="211" y="571" type="curve" smooth="yes"/>
      <point x="148" y="571"/>
      <point x="93" y="578"/>
      <point x="47" y="593" type="curve"/>
      <point x="47" y="515" type="line"/>
      <point x="89" y="499"/>
      <point x="144" y="491"/>
      <point x="211" y="491" type="curve" smooth="yes"/>
      <point x="251" y="491"/>
      <point x="285" y="494"/>
      <point x="312" y="499" type="curve"/>
      <point x="335" y="448"/>
      <point x="349" y="395"/>
      <point x="354" y="340" type="curve"/>
      <point x="84" y="340" type="line"/>
      <point x="84" y="265" type="line"/>
      <point x="355" y="265" type="line"/>
      <point x="351" y="166"/>
      <point x="325" y="86"/>
      <point x="270" y="0" type="curve"/>
      <point x="366" y="0" type="line"/>
      <point x="412" y="75"/>
      <point x="437" y="163"/>
      <point x="440" y="265" type="curve"/>
    </contour>
  </outline>
</glyph>
<glyph name="uni1C4E" format="2">
  <advance width="564"/>
  <unicode hex="1C4E"/>
  <note>
u1C4E
</note>
  <outline>
    <contour>
      <point x="524" y="335" type="line"/>
      <point x="524" y="405" type="line"/>
      <point x="432" y="405" type="line"/>
      <point x="422" y="470"/>
      <point x="403" y="533"/>
      <point x="375" y="593" type="curve"/>
      <point x="318" y="578"/>
      <point x="264" y="571"/>
      <point x="211" y="571" type="curve" smooth="yes"/>
      <point x="148" y="571"/>
      <point x="93" y="578"/>
      <point x="47" y="593" type="curve"/>
      <point x="47" y="515" type="line"/>
      <point x="89" y="499"/>
      <point x="144" y="491"/>
      <point x="211" y="491" type="curve" smooth="yes"/>
      <point x="251" y="491"/>
      <point x="285" y="494"/>
      <point x="312" y="499" type="curve"/>
      <point x="327" y="465"/>
      <point x="337" y="434"/>
      <point x="344" y="405" type="curve"/>
      <point x="84" y="405" type="line"/>
      <point x="84" y="335" type="line"/>
      <point x="354" y="335" type="line"/>
      <point x="355" y="318"/>
      <point x="356" y="304"/>
      <point x="356" y="295" type="curve" smooth="yes"/>
      <point x="356" y="279"/>
      <point x="355" y="267"/>
      <point x="355" y="260" type="curve"/>
      <point x="84" y="260" type="line"/>
      <point x="84" y="190" type="line"/>
      <point x="347" y="190" type="line"/>
      <point x="335" y="125"/>
      <point x="310" y="61"/>
      <point x="270" y="0" type="curve"/>
      <point x="366" y="0" type="line"/>
      <point x="401" y="57"/>
      <point x="424" y="120"/>
      <point x="434" y="190" type="curve"/>
      <point x="524" y="190" type="line"/>
      <point x="524" y="260" type="line"/>
      <point x="440" y="260" type="line"/>
      <point x="440" y="272"/>
      <point x="441" y="283"/>
      <point x="441" y="295" type="curve" smooth="yes"/>
      <point x="441" y="313"/>
      <point x="440" y="326"/>
      <point x="440" y="335" type="curve"/>
    </contour>
  </outline>
</glyph>
<glyph name="uni1C4F" format="2">
  <advance width="663"/>
  <unicode hex="1C4F"/>
  <note>
u1C4F
</note>
  <outline>
    <contour>
      <point x="520" y="593" type="curve"/>
      <point x="458" y="574"/>
      <point x="390" y="560"/>
      <point x="318" y="557" type="curve"/>
      <point x="327" y="576"/>
      <point x="339" y="595"/>
      <point x="352" y="614" type="curve"/>
      <point x="256" y="614" type="line"/>
      <point x="245" y="596"/>
      <point x="234" y="578"/>
      <point x="226" y="558" type="curve"/>
      <point x="158" y="562"/>
      <point x="97" y="574"/>
      <point x="47" y="593" type="curve"/>
      <point x="47" y="515" type="line"/>
      <point x="92" y="496"/>
      <point x="145" y="485"/>
      <point x="203" y="479" type="curve"/>
      <point x="199" y="452"/>
      <point x="196" y="423"/>
      <point x="196" y="390" type="curve" smooth="yes"/>
      <point x="196" y="325"/>
      <point x="215" y="261"/>
      <point x="251" y="200" type="curve"/>
      <point x="236" y="203"/>
      <point x="221" y="204"/>
      <point x="205" y="204" type="curve" smooth="yes"/>
      <point x="145" y="204"/>
      <point x="91" y="197"/>
      <point x="47" y="180" type="curve"/>
      <point x="47" y="102" type="line"/>
      <point x="90" y="116"/>
      <point x="144" y="124"/>
      <point x="205" y="124" type="curve" smooth="yes"/>
      <point x="261" y="124"/>
      <point x="315" y="115"/>
      <point x="363" y="102" type="curve"/>
      <point x="363" y="179" type="line"/>
      <point x="307" y="249"/>
      <point x="281" y="317"/>
      <point x="281" y="390" type="curve" smooth="yes"/>
      <point x="281" y="421"/>
      <point x="284" y="449"/>
      <point x="290" y="476" type="curve"/>
      <point x="352" y="476"/>
      <point x="410" y="482"/>
      <point x="461" y="495" type="curve"/>
      <point x="489" y="429"/>
      <point x="503" y="364"/>
      <point x="503" y="295" type="curve" smooth="yes"/>
      <point x="503" y="181"/>
      <point x="476" y="93"/>
      <point x="417" y="0" type="curve"/>
      <point x="513" y="0" type="line"/>
      <point x="560" y="76"/>
      <point x="588" y="168"/>
      <point x="588" y="295" type="curve" smooth="yes"/>
      <point x="588" y="399"/>
      <point x="565" y="499"/>
    </contour>
  </outline>
</glyph>
<glyph name="uni25CC" format="2">
  <advance width="510"/>
  <unicode hex="25CC"/>
  <note>
dottedcircle
</note>
  <outline>
    <contour>
      <point x="254" y="504" type="curve" smooth="yes"/>
      <point x="235" y="504"/>
      <point x="226" y="495"/>
      <point x="226" y="476" type="curve" smooth="yes"/>
      <point x="226" y="457"/>
      <point x="235" y="447"/>
      <point x="254" y="447" type="curve" smooth="yes"/>
      <point x="274" y="447"/>
      <point x="284" y="457"/>
      <point x="284" y="476" type="curve" smooth="yes"/>
      <point x="284" y="495"/>
      <point x="274" y="504"/>
    </contour>
    <contour>
      <point x="125" y="455" type="curve" smooth="yes"/>
      <point x="106" y="455"/>
      <point x="97" y="445"/>
      <point x="97" y="426" type="curve" smooth="yes"/>
      <point x="97" y="407"/>
      <point x="106" y="397"/>
      <point x="125" y="397" type="curve" smooth="yes"/>
      <point x="144" y="397"/>
      <point x="154" y="407"/>
      <point x="154" y="426" type="curve" smooth="yes"/>
      <point x="154" y="445"/>
      <point x="144" y="455"/>
    </contour>
    <contour>
      <point x="384" y="455" type="curve" smooth="yes"/>
      <point x="365" y="455"/>
      <point x="355" y="445"/>
      <point x="355" y="426" type="curve" smooth="yes"/>
      <point x="355" y="407"/>
      <point x="365" y="397"/>
      <point x="384" y="397" type="curve" smooth="yes"/>
      <point x="403" y="397"/>
      <point x="413" y="407"/>
      <point x="413" y="426" type="curve" smooth="yes"/>
      <point x="413" y="445"/>
      <point x="403" y="455"/>
    </contour>
    <contour>
      <point x="81" y="330" type="curve" smooth="yes"/>
      <point x="62" y="330"/>
      <point x="52" y="321"/>
      <point x="52" y="302" type="curve" smooth="yes"/>
      <point x="52" y="283"/>
      <point x="62" y="273"/>
      <point x="81" y="273" type="curve" smooth="yes"/>
      <point x="100" y="273"/>
      <point x="109" y="283"/>
      <point x="109" y="302" type="curve" smooth="yes"/>
      <point x="109" y="321"/>
      <point x="100" y="330"/>
    </contour>
    <contour>
      <point x="429" y="330" type="curve" smooth="yes"/>
      <point x="410" y="330"/>
      <point x="400" y="321"/>
      <point x="400" y="302" type="curve" smooth="yes"/>
      <point x="400" y="283"/>
      <point x="410" y="273"/>
      <point x="429" y="273" type="curve" smooth="yes"/>
      <point x="448" y="273"/>
      <point x="458" y="283"/>
      <point x="458" y="302" type="curve" smooth="yes"/>
      <point x="458" y="321"/>
      <point x="448" y="330"/>
    </contour>
    <contour>
      <point x="125" y="206" type="curve" smooth="yes"/>
      <point x="106" y="206"/>
      <point x="97" y="196"/>
      <point x="97" y="177" type="curve" smooth="yes"/>
      <point x="97" y="158"/>
      <point x="106" y="148"/>
      <point x="125" y="148" type="curve" smooth="yes"/>
      <point x="144" y="148"/>
      <point x="154" y="158"/>
      <point x="154" y="177" type="curve" smooth="yes"/>
      <point x="154" y="196"/>
      <point x="144" y="206"/>
    </contour>
    <contour>
      <point x="384" y="206" type="curve" smooth="yes"/>
      <point x="365" y="206"/>
      <point x="355" y="196"/>
      <point x="355" y="177" type="curve" smooth="yes"/>
      <point x="355" y="158"/>
      <point x="365" y="148"/>
      <point x="384" y="148" type="curve" smooth="yes"/>
      <point x="403" y="148"/>
      <point x="413" y="158"/>
      <point x="413" y="177" type="curve" smooth="yes"/>
      <point x="413" y="196"/>
      <point x="403" y="206"/>
    </contour>
    <contour>
      <point x="254" y="156" type="curve" smooth="yes"/>
      <point x="235" y="156"/>
      <point x="226" y="146"/>
      <point x="226" y="127" type="curve" smooth="yes"/>
      <point x="226" y="108"/>
      <point x="235" y="98"/>
      <point x="254" y="98" type="curve" smooth="yes"/>
      <point x="274" y="98"/>
      <point x="284" y="108"/>
      <point x="284" y="127" type="curve" smooth="yes"/>
      <point x="284" y="146"/>
      <point x="274" y="156"/>
    </contour>
  </outline>
</glyph>
<glyph name="uni1C00_1C24" format="2">
  <advance width="840"/>
  <note>
u1C00_1C24
</note>
  <outline>
    <contour>
      <point x="691" y="391" type="line"/>
      <point x="707" y="349"/>
      <point x="715" y="307"/>
      <point x="715" y="265" type="curve" smooth="yes"/>
      <point x="715" y="211"/>
      <point x="701" y="157"/>
      <point x="672" y="104" type="curve"/>
      <point x="669" y="105" type="line"/>
      <point x="637" y="269"/>
      <point x="590" y="335"/>
      <point x="509" y="335" type="curve" smooth="yes"/>
      <point x="489" y="335"/>
      <point x="411" y="323"/>
      <point x="334" y="323" type="curve" smooth="yes"/>
      <point x="268" y="323"/>
      <point x="210" y="327"/>
      <point x="162" y="335" type="curve"/>
      <point x="172" y="393"/>
      <point x="191" y="447"/>
      <point x="220" y="498" type="curve"/>
      <point x="252" y="494"/>
      <point x="289" y="491"/>
      <point x="330" y="491" type="curve" smooth="yes"/>
      <point x="403" y="491"/>
      <point x="462" y="499"/>
      <point x="510" y="515" type="curve"/>
      <point x="510" y="593" type="line"/>
      <point x="458" y="578"/>
      <point x="399" y="571"/>
      <point x="332" y="571" type="curve" smooth="yes"/>
      <point x="269" y="571"/>
      <point x="214" y="577"/>
      <point x="166" y="589" type="curve"/>
      <point x="95" y="454"/>
      <point x="70" y="361"/>
      <point x="70" y="246" type="curve" smooth="yes"/>
      <point x="70" y="185"/>
      <point x="81" y="136"/>
      <point x="102" y="99" type="curve" smooth="yes"/>
      <point x="144" y="26"/>
      <point x="232" y="-7"/>
      <point x="381" y="-7" type="curve" smooth="yes"/>
      <point x="436" y="-7"/>
      <point x="481" y="0"/>
      <point x="519" y="12" type="curve"/>
      <point x="519" y="92" type="line"/>
      <point x="481" y="80"/>
      <point x="435" y="74"/>
      <point x="380" y="74" type="curve" smooth="yes"/>
      <point x="211" y="74"/>
      <point x="154" y="119"/>
      <point x="154" y="258" type="curve"/>
      <point x="213" y="248"/>
      <point x="273" y="243"/>
      <point x="335" y="243" type="curve" smooth="yes"/>
      <point x="411" y="243"/>
      <point x="487" y="255"/>
      <point x="509" y="255" type="curve" smooth="yes"/>
      <point x="558" y="255"/>
      <point x="592" y="134"/>
      <point x="609" y="46" type="curve"/>
      <point x="694" y="18" type="line"/>
      <point x="766" y="115"/>
      <point x="795" y="188"/>
      <point x="795" y="286" type="curve" smooth="yes"/>
      <point x="795" y="331"/>
      <point x="788" y="375"/>
      <point x="773" y="419" type="curve"/>
    </contour>
  </outline>
</glyph>
<glyph name="uni1C00_1C25" format="2">
  <advance width="719"/>
  <note>
u1C00_1C25
</note>
  <outline>
    <contour>
      <point x="510" y="593" type="line"/>
      <point x="459" y="578"/>
      <point x="399" y="571"/>
      <point x="332" y="571" type="curve" smooth="yes"/>
      <point x="269" y="571"/>
      <point x="214" y="577"/>
      <point x="166" y="589" type="curve"/>
      <point x="95" y="454"/>
      <point x="70" y="361"/>
      <point x="70" y="246" type="curve" smooth="yes"/>
      <point x="70" y="56"/>
      <point x="171" y="-7"/>
      <point x="381" y="-7" type="curve" smooth="yes"/>
      <point x="425" y="-7"/>
      <point x="462" y="-3"/>
      <point x="493" y="5" type="curve"/>
      <point x="493" y="85" type="line"/>
      <point x="460" y="78"/>
      <point x="423" y="74"/>
      <point x="380" y="74" type="curve" smooth="yes"/>
      <point x="211" y="74"/>
      <point x="154" y="120"/>
      <point x="154" y="258" type="curve"/>
      <point x="213" y="248"/>
      <point x="273" y="243"/>
      <point x="335" y="243" type="curve" smooth="yes"/>
      <point x="423" y="243"/>
      <point x="514" y="260"/>
      <point x="542" y="260" type="curve" smooth="yes"/>
      <point x="590" y="260"/>
      <point x="611" y="222"/>
      <point x="611" y="135" type="curve" smooth="yes"/>
      <point x="611" y="58"/>
      <point x="591" y="-21"/>
      <point x="549" y="-99" type="curve"/>
      <point x="608" y="-131" type="line"/>
      <point x="663" y="-40"/>
      <point x="691" y="50"/>
      <point x="691" y="137" type="curve" smooth="yes"/>
      <point x="691" y="269"/>
      <point x="636" y="340"/>
      <point x="542" y="340" type="curve" smooth="yes"/>
      <point x="514" y="340"/>
      <point x="416" y="323"/>
      <point x="334" y="323" type="curve" smooth="yes"/>
      <point x="268" y="323"/>
      <point x="211" y="327"/>
      <point x="162" y="335" type="curve"/>
      <point x="172" y="393"/>
      <point x="191" y="447"/>
      <point x="220" y="498" type="curve"/>
      <point x="252" y="494"/>
      <point x="289" y="491"/>
      <point x="330" y="491" type="curve" smooth="yes"/>
      <point x="403" y="491"/>
      <point x="463" y="499"/>
      <point x="510" y="515" type="curve"/>
    </contour>
  </outline>
</glyph>
<glyph name="uni1C00_1C25_1C24" format="2">
  <advance width="929"/>
  <note>
u1C00_1C25_1C24
</note>
  <outline>
    <contour>
      <point x="780" y="339" type="line"/>
      <point x="796" y="296"/>
      <point x="804" y="254"/>
      <point x="804" y="213" type="curve" smooth="yes"/>
      <point x="804" y="159"/>
      <point x="790" y="105"/>
      <point x="761" y="52" type="curve"/>
      <point x="758" y="53" type="line"/>
      <point x="735" y="246"/>
      <point x="672" y="342"/>
      <point x="569" y="342" type="curve" smooth="yes"/>
      <point x="545" y="342"/>
      <point x="425" y="323"/>
      <point x="334" y="323" type="curve" smooth="yes"/>
      <point x="268" y="323"/>
      <point x="210" y="327"/>
      <point x="162" y="335" type="curve"/>
      <point x="172" y="393"/>
      <point x="191" y="447"/>
      <point x="220" y="498" type="curve"/>
      <point x="252" y="494"/>
      <point x="289" y="491"/>
      <point x="330" y="491" type="curve" smooth="yes"/>
      <point x="403" y="491"/>
      <point x="462" y="499"/>
      <point x="510" y="515" type="curve"/>
      <point x="510" y="593" type="line"/>
      <point x="458" y="578"/>
      <point x="399" y="571"/>
      <point x="332" y="571" type="curve" smooth="yes"/>
      <point x="269" y="571"/>
      <point x="214" y="577"/>
      <point x="166" y="589" type="curve"/>
      <point x="95" y="454"/>
      <point x="70" y="361"/>
      <point x="70" y="246" type="curve" smooth="yes"/>
      <point x="70" y="59"/>
      <point x="160" y="-7"/>
      <point x="361" y="-7" type="curve" smooth="yes"/>
      <point x="405" y="-7"/>
      <point x="442" y="-3"/>
      <point x="473" y="5" type="curve"/>
      <point x="473" y="85" type="line"/>
      <point x="440" y="78"/>
      <point x="402" y="74"/>
      <point x="360" y="74" type="curve" smooth="yes"/>
      <point x="205" y="74"/>
      <point x="154" y="120"/>
      <point x="154" y="258" type="curve"/>
      <point x="213" y="248"/>
      <point x="273" y="243"/>
      <point x="335" y="243" type="curve" smooth="yes"/>
      <point x="423" y="243"/>
      <point x="503" y="258"/>
      <point x="516" y="258" type="curve" smooth="yes"/>
      <point x="543" y="258"/>
      <point x="556" y="222"/>
      <point x="556" y="151" type="curve" smooth="yes"/>
      <point x="556" y="67"/>
      <point x="549" y="-15"/>
      <point x="535" y="-95" type="curve"/>
      <point x="604" y="-110" type="line"/>
      <point x="625" y="-24"/>
      <point x="636" y="57"/>
      <point x="636" y="132" type="curve" smooth="yes"/>
      <point x="636" y="186"/>
      <point x="627" y="228"/>
      <point x="609" y="257" type="curve"/>
      <point x="611" y="260" type="line"/>
      <point x="665" y="219"/>
      <point x="688" y="100"/>
      <point x="706" y="-9" type="curve"/>
      <point x="783" y="-34" type="line"/>
      <point x="855" y="63"/>
      <point x="884" y="137"/>
      <point x="884" y="234" type="curve" smooth="yes"/>
      <point x="884" y="278"/>
      <point x="876" y="323"/>
      <point x="862" y="367" type="curve"/>
    </contour>
  </outline>
</glyph>
<glyph name="uni1C01_1C24" format="2">
  <advance width="783"/>
  <note>
u1C01_1C24
</note>
  <outline>
    <contour>
      <point x="634" y="580" type="line"/>
      <point x="650" y="538"/>
      <point x="658" y="496"/>
      <point x="658" y="454" type="curve" smooth="yes"/>
      <point x="658" y="400"/>
      <point x="644" y="346"/>
      <point x="615" y="293" type="curve"/>
      <point x="612" y="294" type="line"/>
      <point x="592" y="409"/>
      <point x="550" y="501"/>
      <point x="466" y="593" type="curve"/>
      <point x="414" y="578"/>
      <point x="352" y="571"/>
      <point x="282" y="571" type="curve" smooth="yes"/>
      <point x="223" y="571"/>
      <point x="168" y="578"/>
      <point x="117" y="593" type="curve"/>
      <point x="35" y="266" type="line"/>
      <point x="116" y="218" type="line"/>
      <point x="164" y="256"/>
      <point x="214" y="275"/>
      <point x="265" y="275" type="curve" smooth="yes"/>
      <point x="337" y="275"/>
      <point x="373" y="239"/>
      <point x="373" y="166" type="curve" smooth="yes"/>
      <point x="373" y="107"/>
      <point x="348" y="52"/>
      <point x="299" y="0" type="curve"/>
      <point x="398" y="0" type="line"/>
      <point x="438" y="49"/>
      <point x="458" y="104"/>
      <point x="458" y="165" type="curve" smooth="yes"/>
      <point x="458" y="280"/>
      <point x="391" y="353"/>
      <point x="267" y="353" type="curve" smooth="yes"/>
      <point x="214" y="353"/>
      <point x="167" y="338"/>
      <point x="124" y="309" type="curve"/>
      <point x="121" y="310" type="line"/>
      <point x="134" y="339"/>
      <point x="144" y="370"/>
      <point x="152" y="401" type="curve" smooth="yes"/>
      <point x="177" y="500" type="line"/>
      <point x="209" y="494"/>
      <point x="244" y="491"/>
      <point x="282" y="491" type="curve" smooth="yes"/>
      <point x="343" y="491"/>
      <point x="394" y="496"/>
      <point x="434" y="506" type="curve"/>
      <point x="502" y="426"/>
      <point x="536" y="348"/>
      <point x="560" y="232" type="curve"/>
      <point x="637" y="207" type="line"/>
      <point x="709" y="304"/>
      <point x="738" y="377"/>
      <point x="738" y="475" type="curve" smooth="yes"/>
      <point x="738" y="520"/>
      <point x="730" y="564"/>
      <point x="716" y="608" type="curve"/>
    </contour>
  </outline>
</glyph>
<glyph name="uni1C02_1C24" format="2">
  <advance width="875"/>
  <note>
u1C02_1C24
</note>
  <outline>
    <contour>
      <point x="726" y="351" type="line"/>
      <point x="742" y="309"/>
      <point x="750" y="267"/>
      <point x="750" y="225" type="curve" smooth="yes"/>
      <point x="750" y="171"/>
      <point x="736" y="117"/>
      <point x="707" y="64" type="curve"/>
      <point x="704" y="65" type="line"/>
      <point x="681" y="212"/>
      <point x="643" y="356"/>
      <point x="538" y="356" type="curve" smooth="yes"/>
      <point x="523" y="356"/>
      <point x="508" y="354"/>
      <point x="495" y="349" type="curve"/>
      <point x="472" y="394"/>
      <point x="462" y="419"/>
      <point x="462" y="454" type="curve" smooth="yes"/>
      <point x="462" y="494"/>
      <point x="480" y="513"/>
      <point x="516" y="513" type="curve" smooth="yes"/>
      <point x="540" y="513"/>
      <point x="559" y="502"/>
      <point x="587" y="473" type="curve"/>
      <point x="642" y="534" type="line"/>
      <point x="604" y="573"/>
      <point x="570" y="593"/>
      <point x="519" y="593" type="curve" smooth="yes"/>
      <point x="433" y="593"/>
      <point x="376" y="539"/>
      <point x="376" y="453" type="curve" smooth="yes"/>
      <point x="376" y="337"/>
      <point x="462" y="286"/>
      <point x="462" y="192" type="curve" smooth="yes"/>
      <point x="462" y="116"/>
      <point x="416" y="69"/>
      <point x="329" y="69" type="curve" smooth="yes"/>
      <point x="213" y="69"/>
      <point x="150" y="131"/>
      <point x="150" y="254" type="curve" smooth="yes"/>
      <point x="150" y="357"/>
      <point x="181" y="444"/>
      <point x="274" y="583" type="curve"/>
      <point x="178" y="583" type="line"/>
      <point x="100" y="459"/>
      <point x="67" y="361"/>
      <point x="67" y="254" type="curve" smooth="yes"/>
      <point x="67" y="84"/>
      <point x="168" y="-13"/>
      <point x="328" y="-13" type="curve" smooth="yes"/>
      <point x="454" y="-13"/>
      <point x="547" y="70"/>
      <point x="547" y="192" type="curve" smooth="yes"/>
      <point x="547" y="220"/>
      <point x="541" y="249"/>
      <point x="530" y="278" type="curve"/>
      <point x="538" y="278" type="line" smooth="yes"/>
      <point x="590" y="278"/>
      <point x="624" y="123"/>
      <point x="644" y="6" type="curve"/>
      <point x="729" y="-22" type="line"/>
      <point x="801" y="75"/>
      <point x="830" y="148"/>
      <point x="830" y="246" type="curve" smooth="yes"/>
      <point x="830" y="291"/>
      <point x="823" y="335"/>
      <point x="808" y="379" type="curve"/>
    </contour>
  </outline>
</glyph>
<glyph name="uni1C02_1C25" format="2">
  <advance width="749"/>
  <note>
u1C02_1C25
</note>
  <outline>
    <contour>
      <point x="642" y="534" type="line"/>
      <point x="604" y="573"/>
      <point x="570" y="593"/>
      <point x="519" y="593" type="curve" smooth="yes"/>
      <point x="433" y="593"/>
      <point x="376" y="539"/>
      <point x="376" y="453" type="curve" smooth="yes"/>
      <point x="376" y="338"/>
      <point x="462" y="284"/>
      <point x="462" y="192" type="curve" smooth="yes"/>
      <point x="462" y="116"/>
      <point x="416" y="69"/>
      <point x="329" y="69" type="curve" smooth="yes"/>
      <point x="213" y="69"/>
      <point x="150" y="131"/>
      <point x="150" y="254" type="curve" smooth="yes"/>
      <point x="150" y="357"/>
      <point x="181" y="444"/>
      <point x="274" y="583" type="curve"/>
      <point x="178" y="583" type="line"/>
      <point x="100" y="459"/>
      <point x="67" y="361"/>
      <point x="67" y="254" type="curve" smooth="yes"/>
      <point x="67" y="84"/>
      <point x="168" y="-13"/>
      <point x="328" y="-13" type="curve" smooth="yes"/>
      <point x="454" y="-13"/>
      <point x="547" y="70"/>
      <point x="547" y="192" type="curve" smooth="yes"/>
      <point x="547" y="223"/>
      <point x="540" y="255"/>
      <point x="526" y="288" type="curve"/>
      <point x="535" y="290"/>
      <point x="544" y="291"/>
      <point x="552" y="291" type="curve" smooth="yes"/>
      <point x="600" y="291"/>
      <point x="621" y="252"/>
      <point x="621" y="164" type="curve" smooth="yes"/>
      <point x="621" y="86"/>
      <point x="601" y="9"/>
      <point x="559" y="-70" type="curve"/>
      <point x="618" y="-102" type="line"/>
      <point x="673" y="-11"/>
      <point x="701" y="79"/>
      <point x="701" y="166" type="curve" smooth="yes"/>
      <point x="701" y="298"/>
      <point x="647" y="369"/>
      <point x="552" y="369" type="curve" smooth="yes"/>
      <point x="533" y="369"/>
      <point x="512" y="366"/>
      <point x="490" y="359" type="curve"/>
      <point x="471" y="396"/>
      <point x="462" y="428"/>
      <point x="462" y="454" type="curve" smooth="yes"/>
      <point x="462" y="494"/>
      <point x="480" y="513"/>
      <point x="516" y="513" type="curve" smooth="yes"/>
      <point x="540" y="513"/>
      <point x="559" y="502"/>
      <point x="587" y="473" type="curve"/>
    </contour>
  </outline>
</glyph>
<glyph name="uni1C03_1C24" format="2">
  <advance width="1186"/>
  <note>
u1C03_1C24
</note>
  <outline>
    <contour>
      <point x="1037" y="431" type="line"/>
      <point x="1053" y="389"/>
      <point x="1061" y="347"/>
      <point x="1061" y="305" type="curve" smooth="yes"/>
      <point x="1061" y="251"/>
      <point x="1047" y="197"/>
      <point x="1018" y="144" type="curve"/>
      <point x="1015" y="145" type="line"/>
      <point x="990" y="295"/>
      <point x="954" y="436"/>
      <point x="849" y="436" type="curve" smooth="yes"/>
      <point x="836" y="436"/>
      <point x="826" y="435"/>
      <point x="817" y="432" type="curve"/>
      <point x="775" y="506"/>
      <point x="708" y="564"/>
      <point x="613" y="607" type="curve"/>
      <point x="579" y="530" type="line"/>
      <point x="715" y="467"/>
      <point x="777" y="380"/>
      <point x="777" y="245" type="curve" smooth="yes"/>
      <point x="777" y="127"/>
      <point x="731" y="69"/>
      <point x="640" y="69" type="curve" smooth="yes"/>
      <point x="551" y="69"/>
      <point x="508" y="153"/>
      <point x="508" y="321" type="curve"/>
      <point x="424" y="321" type="line"/>
      <point x="424" y="190"/>
      <point x="403" y="69"/>
      <point x="292" y="69" type="curve" smooth="yes"/>
      <point x="201" y="69"/>
      <point x="155" y="127"/>
      <point x="155" y="245" type="curve" smooth="yes"/>
      <point x="155" y="380"/>
      <point x="217" y="467"/>
      <point x="354" y="530" type="curve"/>
      <point x="318" y="607" type="line"/>
      <point x="152" y="532"/>
      <point x="70" y="411"/>
      <point x="70" y="243" type="curve" smooth="yes"/>
      <point x="70" y="82"/>
      <point x="154" y="-12"/>
      <point x="286" y="-12" type="curve" smooth="yes"/>
      <point x="375" y="-12"/>
      <point x="435" y="31"/>
      <point x="464" y="117" type="curve"/>
      <point x="468" y="117" type="line"/>
      <point x="498" y="31"/>
      <point x="557" y="-12"/>
      <point x="647" y="-12" type="curve" smooth="yes"/>
      <point x="779" y="-12"/>
      <point x="863" y="82"/>
      <point x="863" y="243" type="curve" smooth="yes"/>
      <point x="863" y="285"/>
      <point x="857" y="323"/>
      <point x="847" y="358" type="curve"/>
      <point x="849" y="358" type="line" smooth="yes"/>
      <point x="901" y="358"/>
      <point x="936" y="198"/>
      <point x="955" y="86" type="curve"/>
      <point x="1040" y="58" type="line"/>
      <point x="1112" y="155"/>
      <point x="1141" y="229"/>
      <point x="1141" y="326" type="curve" smooth="yes"/>
      <point x="1141" y="371"/>
      <point x="1134" y="415"/>
      <point x="1119" y="459" type="curve"/>
    </contour>
  </outline>
</glyph>
<glyph name="uni1C03_1C25" format="2">
  <advance width="1079"/>
  <note>
u1C03_1C25
</note>
  <outline>
    <contour>
      <point x="579" y="530" type="line"/>
      <point x="715" y="467"/>
      <point x="777" y="380"/>
      <point x="777" y="245" type="curve" smooth="yes"/>
      <point x="777" y="127"/>
      <point x="731" y="69"/>
      <point x="640" y="69" type="curve" smooth="yes"/>
      <point x="551" y="69"/>
      <point x="508" y="153"/>
      <point x="508" y="321" type="curve"/>
      <point x="424" y="321" type="line"/>
      <point x="424" y="190"/>
      <point x="403" y="69"/>
      <point x="293" y="69" type="curve" smooth="yes"/>
      <point x="201" y="69"/>
      <point x="155" y="127"/>
      <point x="155" y="245" type="curve" smooth="yes"/>
      <point x="155" y="380"/>
      <point x="217" y="467"/>
      <point x="354" y="530" type="curve"/>
      <point x="318" y="607" type="line"/>
      <point x="152" y="532"/>
      <point x="70" y="411"/>
      <point x="70" y="243" type="curve" smooth="yes"/>
      <point x="70" y="82"/>
      <point x="154" y="-12"/>
      <point x="286" y="-12" type="curve" smooth="yes"/>
      <point x="375" y="-12"/>
      <point x="435" y="31"/>
      <point x="464" y="117" type="curve"/>
      <point x="468" y="117" type="line"/>
      <point x="498" y="31"/>
      <point x="557" y="-12"/>
      <point x="647" y="-12" type="curve" smooth="yes"/>
      <point x="779" y="-12"/>
      <point x="863" y="82"/>
      <point x="863" y="243" type="curve" smooth="yes"/>
      <point x="863" y="278"/>
      <point x="859" y="309"/>
      <point x="853" y="338" type="curve"/>
      <point x="863" y="340"/>
      <point x="873" y="341"/>
      <point x="882" y="341" type="curve" smooth="yes"/>
      <point x="930" y="341"/>
      <point x="951" y="302"/>
      <point x="951" y="214" type="curve" smooth="yes"/>
      <point x="951" y="137"/>
      <point x="931" y="59"/>
      <point x="889" y="-20" type="curve"/>
      <point x="948" y="-52" type="line"/>
      <point x="1003" y="40"/>
      <point x="1031" y="128"/>
      <point x="1031" y="216" type="curve" smooth="yes"/>
      <point x="1031" y="348"/>
      <point x="977" y="419"/>
      <point x="882" y="419" type="curve" smooth="yes"/>
      <point x="864" y="419"/>
      <point x="846" y="417"/>
      <point x="828" y="411" type="curve"/>
      <point x="788" y="495"/>
      <point x="716" y="561"/>
      <point x="613" y="607" type="curve"/>
    </contour>
  </outline>
</glyph>
<glyph name="uni1C03_1C25_1C24" format="2">
  <advance width="1285"/>
  <note>
u1C03_1C25_1C24
</note>
  <outline>
    <contour>
      <point x="1136" y="432" type="line"/>
      <point x="1152" y="390"/>
      <point x="1160" y="348"/>
      <point x="1160" y="306" type="curve" smooth="yes"/>
      <point x="1160" y="252"/>
      <point x="1146" y="198"/>
      <point x="1117" y="145" type="curve"/>
      <point x="1114" y="146" type="line"/>
      <point x="1091" y="339"/>
      <point x="1028" y="435"/>
      <point x="925" y="435" type="curve" smooth="yes"/>
      <point x="889" y="435"/>
      <point x="856" y="428"/>
      <point x="826" y="414" type="curve"/>
      <point x="787" y="496"/>
      <point x="716" y="561"/>
      <point x="613" y="607" type="curve"/>
      <point x="579" y="530" type="line"/>
      <point x="715" y="467"/>
      <point x="777" y="380"/>
      <point x="777" y="245" type="curve" smooth="yes"/>
      <point x="777" y="127"/>
      <point x="731" y="69"/>
      <point x="640" y="69" type="curve" smooth="yes"/>
      <point x="551" y="69"/>
      <point x="508" y="153"/>
      <point x="508" y="321" type="curve"/>
      <point x="424" y="321" type="line"/>
      <point x="424" y="190"/>
      <point x="404" y="69"/>
      <point x="292" y="69" type="curve" smooth="yes"/>
      <point x="201" y="69"/>
      <point x="155" y="127"/>
      <point x="155" y="245" type="curve" smooth="yes"/>
      <point x="155" y="380"/>
      <point x="217" y="467"/>
      <point x="354" y="530" type="curve"/>
      <point x="318" y="607" type="line"/>
      <point x="152" y="532"/>
      <point x="70" y="411"/>
      <point x="70" y="243" type="curve" smooth="yes"/>
      <point x="70" y="82"/>
      <point x="154" y="-12"/>
      <point x="286" y="-12" type="curve" smooth="yes"/>
      <point x="375" y="-12"/>
      <point x="435" y="31"/>
      <point x="464" y="117" type="curve"/>
      <point x="468" y="117" type="line"/>
      <point x="498" y="31"/>
      <point x="557" y="-12"/>
      <point x="647" y="-12" type="curve" smooth="yes"/>
      <point x="779" y="-12"/>
      <point x="863" y="82"/>
      <point x="863" y="243" type="curve" smooth="yes"/>
      <point x="863" y="279"/>
      <point x="859" y="313"/>
      <point x="851" y="345" type="curve"/>
      <point x="857" y="349"/>
      <point x="865" y="351"/>
      <point x="872" y="351" type="curve" smooth="yes"/>
      <point x="899" y="351"/>
      <point x="912" y="315"/>
      <point x="912" y="244" type="curve" smooth="yes"/>
      <point x="912" y="162"/>
      <point x="905" y="80"/>
      <point x="891" y="-2" type="curve"/>
      <point x="960" y="-17" type="line"/>
      <point x="981" y="69"/>
      <point x="992" y="149"/>
      <point x="992" y="225" type="curve" smooth="yes"/>
      <point x="992" y="280"/>
      <point x="983" y="321"/>
      <point x="965" y="350" type="curve"/>
      <point x="967" y="353" type="line"/>
      <point x="1021" y="312"/>
      <point x="1044" y="193"/>
      <point x="1062" y="84" type="curve"/>
      <point x="1139" y="59" type="line"/>
      <point x="1211" y="156"/>
      <point x="1240" y="229"/>
      <point x="1240" y="327" type="curve" smooth="yes"/>
      <point x="1240" y="372"/>
      <point x="1233" y="416"/>
      <point x="1218" y="460" type="curve"/>
    </contour>
  </outline>
</glyph>
<glyph name="uni1C04_1C24" format="2">
  <advance width="1186"/>
  <note>
u1C04_1C24
</note>
  <outline>
    <contour>
      <point x="1037" y="431" type="line"/>
      <point x="1053" y="389"/>
      <point x="1061" y="347"/>
      <point x="1061" y="305" type="curve" smooth="yes"/>
      <point x="1061" y="251"/>
      <point x="1047" y="197"/>
      <point x="1018" y="144" type="curve"/>
      <point x="1015" y="145" type="line"/>
      <point x="992" y="295"/>
      <point x="953" y="436"/>
      <point x="849" y="436" type="curve" smooth="yes"/>
      <point x="836" y="436"/>
      <point x="826" y="435"/>
      <point x="817" y="432" type="curve"/>
      <point x="775" y="506"/>
      <point x="708" y="564"/>
      <point x="613" y="607" type="curve"/>
      <point x="579" y="530" type="line"/>
      <point x="674" y="486"/>
      <point x="734" y="427"/>
      <point x="760" y="354" type="curve"/>
      <point x="172" y="354" type="line"/>
      <point x="198" y="427"/>
      <point x="259" y="486"/>
      <point x="354" y="530" type="curve"/>
      <point x="318" y="607" type="line"/>
      <point x="192" y="550"/>
      <point x="115" y="465"/>
      <point x="84" y="354" type="curve"/>
      <point x="27" y="354" type="line"/>
      <point x="27" y="279" type="line"/>
      <point x="71" y="279" type="line"/>
      <point x="70" y="271"/>
      <point x="70" y="259"/>
      <point x="70" y="243" type="curve" smooth="yes"/>
      <point x="70" y="82"/>
      <point x="154" y="-12"/>
      <point x="286" y="-12" type="curve" smooth="yes"/>
      <point x="375" y="-12"/>
      <point x="435" y="31"/>
      <point x="464" y="117" type="curve"/>
      <point x="468" y="117" type="line"/>
      <point x="498" y="31"/>
      <point x="557" y="-12"/>
      <point x="647" y="-12" type="curve" smooth="yes"/>
      <point x="779" y="-12"/>
      <point x="863" y="82"/>
      <point x="863" y="243" type="curve" smooth="yes"/>
      <point x="863" y="285"/>
      <point x="857" y="323"/>
      <point x="847" y="358" type="curve"/>
      <point x="849" y="358" type="line" smooth="yes"/>
      <point x="901" y="358"/>
      <point x="936" y="198"/>
      <point x="955" y="86" type="curve"/>
      <point x="1040" y="58" type="line"/>
      <point x="1112" y="155"/>
      <point x="1141" y="229"/>
      <point x="1141" y="326" type="curve" smooth="yes"/>
      <point x="1141" y="371"/>
      <point x="1134" y="415"/>
      <point x="1119" y="459" type="curve"/>
    </contour>
    <contour>
      <point x="423" y="279" type="line"/>
      <point x="417" y="139"/>
      <point x="375" y="69"/>
      <point x="293" y="69" type="curve" smooth="yes"/>
      <point x="201" y="69"/>
      <point x="155" y="127"/>
      <point x="155" y="245" type="curve" smooth="yes"/>
      <point x="155" y="260"/>
      <point x="155" y="271"/>
      <point x="156" y="279" type="curve"/>
    </contour>
    <contour>
      <point x="776" y="279" type="line"/>
      <point x="776" y="271"/>
      <point x="777" y="260"/>
      <point x="777" y="245" type="curve" smooth="yes"/>
      <point x="777" y="127"/>
      <point x="731" y="69"/>
      <point x="640" y="69" type="curve" smooth="yes"/>
      <point x="559" y="69"/>
      <point x="515" y="139"/>
      <point x="509" y="279" type="curve"/>
    </contour>
  </outline>
</glyph>
<glyph name="uni1C05_1C24" format="2">
  <advance width="654"/>
  <note>
u1C05_1C24
</note>
  <outline>
    <contour>
      <point x="505" y="580" type="line"/>
      <point x="521" y="538"/>
      <point x="529" y="496"/>
      <point x="529" y="454" type="curve" smooth="yes"/>
      <point x="529" y="400"/>
      <point x="515" y="346"/>
      <point x="486" y="293" type="curve"/>
      <point x="483" y="294" type="line"/>
      <point x="465" y="412"/>
      <point x="434" y="511"/>
      <point x="389" y="593" type="curve"/>
      <point x="326" y="578"/>
      <point x="264" y="571"/>
      <point x="204" y="571" type="curve" smooth="yes"/>
      <point x="134" y="571"/>
      <point x="73" y="578"/>
      <point x="20" y="593" type="curve"/>
      <point x="20" y="515" type="line"/>
      <point x="68" y="499"/>
      <point x="129" y="491"/>
      <point x="204" y="491" type="curve" smooth="yes"/>
      <point x="227" y="491"/>
      <point x="246" y="493"/>
      <point x="263" y="495" type="curve"/>
      <point x="186" y="408"/>
      <point x="147" y="317"/>
      <point x="147" y="225" type="curve" smooth="yes"/>
      <point x="147" y="137"/>
      <point x="172" y="62"/>
      <point x="222" y="0" type="curve"/>
      <point x="318" y="0" type="line"/>
      <point x="258" y="72"/>
      <point x="232" y="139"/>
      <point x="232" y="225" type="curve" smooth="yes"/>
      <point x="232" y="313"/>
      <point x="272" y="399"/>
      <point x="354" y="483" type="curve"/>
      <point x="385" y="412"/>
      <point x="408" y="330"/>
      <point x="423" y="235" type="curve"/>
      <point x="508" y="207" type="line"/>
      <point x="580" y="304"/>
      <point x="609" y="377"/>
      <point x="609" y="475" type="curve" smooth="yes"/>
      <point x="609" y="520"/>
      <point x="602" y="564"/>
      <point x="587" y="608" type="curve"/>
    </contour>
  </outline>
</glyph>
<glyph name="uni1C05_1C25" format="2">
  <advance width="565"/>
  <note>
u1C05_1C25
</note>
  <outline>
    <contour>
      <point x="20" y="515" type="line"/>
      <point x="68" y="499"/>
      <point x="129" y="491"/>
      <point x="204" y="491" type="curve" smooth="yes"/>
      <point x="227" y="491"/>
      <point x="246" y="493"/>
      <point x="263" y="495" type="curve"/>
      <point x="186" y="408"/>
      <point x="147" y="317"/>
      <point x="147" y="225" type="curve" smooth="yes"/>
      <point x="147" y="137"/>
      <point x="172" y="62"/>
      <point x="222" y="0" type="curve"/>
      <point x="318" y="0" type="line"/>
      <point x="258" y="72"/>
      <point x="232" y="139"/>
      <point x="232" y="225" type="curve" smooth="yes"/>
      <point x="232" y="321"/>
      <point x="282" y="416"/>
      <point x="381" y="509" type="curve"/>
      <point x="418" y="464"/>
      <point x="437" y="412"/>
      <point x="437" y="352" type="curve" smooth="yes"/>
      <point x="437" y="281"/>
      <point x="419" y="210"/>
      <point x="383" y="140" type="curve"/>
      <point x="442" y="108" type="line"/>
      <point x="492" y="191"/>
      <point x="517" y="273"/>
      <point x="517" y="354" type="curve" smooth="yes"/>
      <point x="517" y="459"/>
      <point x="478" y="545"/>
      <point x="406" y="597" type="curve"/>
      <point x="335" y="580"/>
      <point x="268" y="571"/>
      <point x="204" y="571" type="curve" smooth="yes"/>
      <point x="134" y="571"/>
      <point x="73" y="578"/>
      <point x="20" y="593" type="curve"/>
    </contour>
  </outline>
</glyph>
<glyph name="uni1C05_1C25_1C24" format="2">
  <advance width="771"/>
  <note>
u1C05_1C25_1C24
</note>
  <outline>
    <contour>
      <point x="622" y="540" type="line"/>
      <point x="638" y="498"/>
      <point x="646" y="456"/>
      <point x="646" y="414" type="curve" smooth="yes"/>
      <point x="646" y="360"/>
      <point x="632" y="306"/>
      <point x="603" y="253" type="curve"/>
      <point x="600" y="254" type="line"/>
      <point x="573" y="386"/>
      <point x="519" y="492"/>
      <point x="406" y="597" type="curve"/>
      <point x="335" y="580"/>
      <point x="268" y="571"/>
      <point x="204" y="571" type="curve" smooth="yes"/>
      <point x="134" y="571"/>
      <point x="73" y="578"/>
      <point x="20" y="593" type="curve"/>
      <point x="20" y="515" type="line"/>
      <point x="68" y="499"/>
      <point x="129" y="491"/>
      <point x="204" y="491" type="curve" smooth="yes"/>
      <point x="227" y="491"/>
      <point x="246" y="493"/>
      <point x="263" y="495" type="curve"/>
      <point x="186" y="408"/>
      <point x="147" y="317"/>
      <point x="147" y="225" type="curve" smooth="yes"/>
      <point x="147" y="137"/>
      <point x="172" y="62"/>
      <point x="222" y="0" type="curve"/>
      <point x="318" y="0" type="line"/>
      <point x="258" y="72"/>
      <point x="232" y="139"/>
      <point x="232" y="225" type="curve" smooth="yes"/>
      <point x="232" y="320"/>
      <point x="279" y="412"/>
      <point x="374" y="502" type="curve"/>
      <point x="390" y="459"/>
      <point x="398" y="405"/>
      <point x="398" y="339" type="curve" smooth="yes"/>
      <point x="398" y="258"/>
      <point x="391" y="181"/>
      <point x="377" y="106" type="curve"/>
      <point x="446" y="91" type="line"/>
      <point x="464" y="179"/>
      <point x="473" y="268"/>
      <point x="473" y="358" type="curve" smooth="yes"/>
      <point x="473" y="373"/>
      <point x="473" y="384"/>
      <point x="472" y="391" type="curve"/>
      <point x="476" y="391" type="line"/>
      <point x="507" y="338"/>
      <point x="531" y="271"/>
      <point x="548" y="192" type="curve"/>
      <point x="625" y="167" type="line"/>
      <point x="697" y="265"/>
      <point x="726" y="337"/>
      <point x="726" y="435" type="curve" smooth="yes"/>
      <point x="726" y="479"/>
      <point x="719" y="524"/>
      <point x="704" y="568" type="curve"/>
    </contour>
  </outline>
</glyph>
<glyph name="uni1C08_1C24" format="2">
  <advance width="921"/>
  <note>
u1C08_1C24
</note>
  <outline>
    <contour>
      <point x="772" y="494" type="line"/>
      <point x="788" y="452"/>
      <point x="796" y="410"/>
      <point x="796" y="368" type="curve" smooth="yes"/>
      <point x="796" y="314"/>
      <point x="782" y="260"/>
      <point x="753" y="207" type="curve"/>
      <point x="750" y="208" type="line"/>
      <point x="719" y="321"/>
      <point x="664" y="421"/>
      <point x="584" y="507" type="curve"/>
      <point x="584" y="511" type="line"/>
      <point x="594" y="514"/>
      <point x="606" y="515"/>
      <point x="620" y="515" type="curve" smooth="yes"/>
      <point x="652" y="515"/>
      <point x="680" y="511"/>
      <point x="703" y="504" type="curve"/>
      <point x="703" y="585" type="line"/>
      <point x="680" y="592"/>
      <point x="650" y="596"/>
      <point x="614" y="596" type="curve" smooth="yes"/>
      <point x="564" y="596"/>
      <point x="521" y="586"/>
      <point x="481" y="565" type="curve"/>
      <point x="443" y="586"/>
      <point x="399" y="596"/>
      <point x="347" y="596" type="curve" smooth="yes"/>
      <point x="168" y="596"/>
      <point x="70" y="457"/>
      <point x="70" y="257" type="curve" smooth="yes"/>
      <point x="70" y="165"/>
      <point x="85" y="80"/>
      <point x="115" y="0" type="curve"/>
      <point x="205" y="0" type="line"/>
      <point x="171" y="88"/>
      <point x="155" y="174"/>
      <point x="155" y="259" type="curve" smooth="yes"/>
      <point x="155" y="431"/>
      <point x="231" y="515"/>
      <point x="344" y="515" type="curve" smooth="yes"/>
      <point x="356" y="515"/>
      <point x="368" y="514"/>
      <point x="378" y="512" type="curve"/>
      <point x="378" y="508" type="line"/>
      <point x="323" y="460"/>
      <point x="295" y="401"/>
      <point x="295" y="328" type="curve" smooth="yes"/>
      <point x="295" y="216"/>
      <point x="360" y="140"/>
      <point x="476" y="140" type="curve" smooth="yes"/>
      <point x="576" y="140"/>
      <point x="637" y="204"/>
      <point x="645" y="303" type="curve"/>
      <point x="649" y="303" type="line"/>
      <point x="670" y="256"/>
      <point x="687" y="204"/>
      <point x="698" y="146" type="curve"/>
      <point x="775" y="121" type="line"/>
      <point x="847" y="218"/>
      <point x="876" y="292"/>
      <point x="876" y="389" type="curve" smooth="yes"/>
      <point x="876" y="434"/>
      <point x="869" y="478"/>
      <point x="854" y="522" type="curve"/>
    </contour>
    <contour>
      <point x="476" y="221" type="curve" smooth="yes"/>
      <point x="414" y="221"/>
      <point x="379" y="261"/>
      <point x="379" y="327" type="curve" smooth="yes"/>
      <point x="379" y="402"/>
      <point x="412" y="456"/>
      <point x="478" y="487" type="curve"/>
      <point x="542" y="456"/>
      <point x="573" y="402"/>
      <point x="573" y="327" type="curve" smooth="yes"/>
      <point x="573" y="261"/>
      <point x="539" y="221"/>
    </contour>
  </outline>
</glyph>
<glyph name="uni1C0A_1C24" format="2">
  <advance width="842"/>
  <note>
u1C0A_1C24
</note>
  <outline>
    <contour>
      <point x="693" y="454" type="line"/>
      <point x="709" y="412"/>
      <point x="717" y="370"/>
      <point x="717" y="328" type="curve" smooth="yes"/>
      <point x="717" y="274"/>
      <point x="703" y="220"/>
      <point x="674" y="167" type="curve"/>
      <point x="671" y="168" type="line"/>
      <point x="651" y="285"/>
      <point x="608" y="369"/>
      <point x="526" y="447" type="curve" smooth="yes"/>
      <point x="361" y="605" type="line"/>
      <point x="303" y="544" type="line"/>
      <point x="494" y="361" type="line" smooth="yes"/>
      <point x="523" y="334"/>
      <point x="530" y="320"/>
      <point x="530" y="299" type="curve" smooth="yes"/>
      <point x="530" y="263"/>
      <point x="506" y="239"/>
      <point x="467" y="239" type="curve" smooth="yes"/>
      <point x="446" y="239"/>
      <point x="434" y="245"/>
      <point x="409" y="270" type="curve" smooth="yes"/>
      <point x="217" y="456" type="line"/>
      <point x="15" y="249" type="line"/>
      <point x="291" y="-16" type="line"/>
      <point x="349" y="45" type="line"/>
      <point x="133" y="252" type="line"/>
      <point x="219" y="339" type="line"/>
      <point x="350" y="211" type="line" smooth="yes"/>
      <point x="392" y="169"/>
      <point x="420" y="156"/>
      <point x="467" y="156" type="curve" smooth="yes"/>
      <point x="518" y="156"/>
      <point x="563" y="183"/>
      <point x="586" y="223" type="curve"/>
      <point x="598" y="193"/>
      <point x="609" y="154"/>
      <point x="619" y="106" type="curve"/>
      <point x="696" y="81" type="line"/>
      <point x="768" y="178"/>
      <point x="797" y="251"/>
      <point x="797" y="349" type="curve" smooth="yes"/>
      <point x="797" y="394"/>
      <point x="790" y="438"/>
      <point x="775" y="482" type="curve"/>
    </contour>
  </outline>
</glyph>
<glyph name="uni1C0B_1C24" format="2">
  <advance width="921"/>
  <note>
u1C0B_1C24
</note>
  <outline>
    <contour>
      <point x="772" y="494" type="line"/>
      <point x="788" y="452"/>
      <point x="796" y="410"/>
      <point x="796" y="368" type="curve" smooth="yes"/>
      <point x="796" y="314"/>
      <point x="782" y="260"/>
      <point x="753" y="207" type="curve"/>
      <point x="750" y="208" type="line"/>
      <point x="734" y="298"/>
      <point x="704" y="379"/>
      <point x="660" y="452" type="curve" smooth="yes"/>
      <point x="596" y="557"/>
      <point x="547" y="593"/>
      <point x="459" y="593" type="curve" smooth="yes"/>
      <point x="332" y="593"/>
      <point x="238" y="485"/>
      <point x="211" y="297" type="curve"/>
      <point x="150" y="331"/>
      <point x="120" y="392"/>
      <point x="120" y="481" type="curve" smooth="yes"/>
      <point x="120" y="517"/>
      <point x="127" y="551"/>
      <point x="140" y="583" type="curve"/>
      <point x="55" y="583" type="line"/>
      <point x="42" y="553"/>
      <point x="35" y="519"/>
      <point x="35" y="481" type="curve" smooth="yes"/>
      <point x="35" y="352"/>
      <point x="93" y="255"/>
      <point x="204" y="212" type="curve"/>
      <point x="204" y="202"/>
      <point x="203" y="191"/>
      <point x="203" y="181" type="curve" smooth="yes"/>
      <point x="203" y="117"/>
      <point x="208" y="57"/>
      <point x="218" y="0" type="curve"/>
      <point x="304" y="0" type="line"/>
      <point x="293" y="62"/>
      <point x="287" y="122"/>
      <point x="287" y="181" type="curve" smooth="yes"/>
      <point x="287" y="192" type="line"/>
      <point x="304" y="190"/>
      <point x="322" y="189"/>
      <point x="342" y="189" type="curve" smooth="yes"/>
      <point x="498" y="189"/>
      <point x="601" y="259"/>
      <point x="625" y="368" type="curve"/>
      <point x="661" y="297"/>
      <point x="686" y="223"/>
      <point x="698" y="146" type="curve"/>
      <point x="775" y="121" type="line"/>
      <point x="847" y="218"/>
      <point x="876" y="292"/>
      <point x="876" y="389" type="curve" smooth="yes"/>
      <point x="876" y="434"/>
      <point x="869" y="478"/>
      <point x="854" y="522" type="curve"/>
    </contour>
    <contour>
      <point x="342" y="270" type="curve" smooth="yes"/>
      <point x="324" y="270"/>
      <point x="307" y="271"/>
      <point x="291" y="273" type="curve"/>
      <point x="305" y="431"/>
      <point x="365" y="512"/>
      <point x="459" y="512" type="curve" smooth="yes"/>
      <point x="519" y="512"/>
      <point x="548" y="477"/>
      <point x="548" y="421" type="curve" smooth="yes"/>
      <point x="548" y="328"/>
      <point x="479" y="270"/>
    </contour>
  </outline>
</glyph>
<glyph name="uni1C0C_1C24" format="2">
  <advance width="885"/>
  <note>
u1C0C_1C24
</note>
  <outline>
    <contour>
      <point x="736" y="580" type="line"/>
      <point x="752" y="538"/>
      <point x="760" y="496"/>
      <point x="760" y="454" type="curve" smooth="yes"/>
      <point x="760" y="400"/>
      <point x="746" y="346"/>
      <point x="717" y="293" type="curve"/>
      <point x="714" y="294" type="line"/>
      <point x="694" y="409"/>
      <point x="652" y="501"/>
      <point x="568" y="593" type="curve"/>
      <point x="496" y="572"/>
      <point x="408" y="561"/>
      <point x="303" y="561" type="curve" smooth="yes"/>
      <point x="199" y="561"/>
      <point x="111" y="572"/>
      <point x="39" y="593" type="curve"/>
      <point x="39" y="515" type="line"/>
      <point x="102" y="496"/>
      <point x="176" y="484"/>
      <point x="262" y="481" type="curve"/>
      <point x="262" y="267" type="line"/>
      <point x="177" y="262"/>
      <point x="102" y="243"/>
      <point x="39" y="210" type="curve"/>
      <point x="39" y="130" type="line"/>
      <point x="114" y="168"/>
      <point x="202" y="188"/>
      <point x="303" y="188" type="curve" smooth="yes"/>
      <point x="404" y="188"/>
      <point x="493" y="168"/>
      <point x="568" y="130" type="curve"/>
      <point x="568" y="210" type="line"/>
      <point x="504" y="243"/>
      <point x="430" y="262"/>
      <point x="345" y="267" type="curve"/>
      <point x="345" y="481" type="line"/>
      <point x="412" y="483"/>
      <point x="476" y="491"/>
      <point x="536" y="506" type="curve"/>
      <point x="604" y="426"/>
      <point x="638" y="348"/>
      <point x="662" y="232" type="curve"/>
      <point x="739" y="207" type="line"/>
      <point x="811" y="304"/>
      <point x="840" y="377"/>
      <point x="840" y="475" type="curve" smooth="yes"/>
      <point x="840" y="520"/>
      <point x="833" y="564"/>
      <point x="818" y="608" type="curve"/>
    </contour>
  </outline>
</glyph>
<glyph name="uni1C0E_1C24" format="2">
  <advance width="892"/>
  <note>
u1C0E_1C24
</note>
  <outline>
    <contour>
      <point x="743" y="420" type="line"/>
      <point x="759" y="377"/>
      <point x="767" y="335"/>
      <point x="767" y="294" type="curve" smooth="yes"/>
      <point x="767" y="240"/>
      <point x="753" y="186"/>
      <point x="724" y="133" type="curve"/>
      <point x="721" y="134" type="line"/>
      <point x="695" y="284"/>
      <point x="660" y="425"/>
      <point x="555" y="425" type="curve" smooth="yes"/>
      <point x="536" y="425"/>
      <point x="519" y="421"/>
      <point x="504" y="415" type="curve"/>
      <point x="492" y="437"/>
      <point x="475" y="462"/>
      <point x="452" y="491" type="curve"/>
      <point x="490" y="498"/>
      <point x="524" y="506"/>
      <point x="554" y="515" type="curve"/>
      <point x="554" y="593" type="line"/>
      <point x="486" y="572"/>
      <point x="403" y="561"/>
      <point x="304" y="561" type="curve" smooth="yes"/>
      <point x="205" y="561"/>
      <point x="122" y="572"/>
      <point x="54" y="593" type="curve"/>
      <point x="54" y="515" type="line"/>
      <point x="126" y="492"/>
      <point x="209" y="480"/>
      <point x="304" y="480" type="curve" smooth="yes"/>
      <point x="327" y="480"/>
      <point x="344" y="480"/>
      <point x="355" y="481" type="curve"/>
      <point x="433" y="392"/>
      <point x="452" y="344"/>
      <point x="452" y="287" type="curve" smooth="yes"/>
      <point x="452" y="243"/>
      <point x="431" y="221"/>
      <point x="388" y="221" type="curve" smooth="yes"/>
      <point x="329" y="221"/>
      <point x="262" y="270"/>
      <point x="198" y="270" type="curve" smooth="yes"/>
      <point x="107" y="270"/>
      <point x="47" y="211"/>
      <point x="47" y="108" type="curve" smooth="yes"/>
      <point x="47" y="74"/>
      <point x="53" y="38"/>
      <point x="66" y="0" type="curve"/>
      <point x="153" y="0" type="line"/>
      <point x="139" y="42"/>
      <point x="132" y="77"/>
      <point x="132" y="108" type="curve" smooth="yes"/>
      <point x="132" y="165"/>
      <point x="153" y="189"/>
      <point x="198" y="189" type="curve" smooth="yes"/>
      <point x="244" y="189"/>
      <point x="315" y="140"/>
      <point x="390" y="140" type="curve" smooth="yes"/>
      <point x="482" y="140"/>
      <point x="538" y="193"/>
      <point x="538" y="289" type="curve" smooth="yes"/>
      <point x="538" y="310"/>
      <point x="537" y="328"/>
      <point x="533" y="342" type="curve"/>
      <point x="539" y="345"/>
      <point x="543" y="347"/>
      <point x="549" y="347" type="curve" smooth="yes"/>
      <point x="605" y="347"/>
      <point x="642" y="190"/>
      <point x="661" y="75" type="curve"/>
      <point x="746" y="47" type="line"/>
      <point x="818" y="145"/>
      <point x="847" y="218"/>
      <point x="847" y="315" type="curve" smooth="yes"/>
      <point x="847" y="359"/>
      <point x="840" y="404"/>
      <point x="825" y="448" type="curve"/>
    </contour>
  </outline>
</glyph>
<glyph name="uni1C0E_1C25" format="2">
  <advance width="739"/>
  <note>
u1C0E_1C25
</note>
  <outline>
    <contour>
      <point x="554" y="593" type="line"/>
      <point x="486" y="572"/>
      <point x="403" y="561"/>
      <point x="304" y="561" type="curve" smooth="yes"/>
      <point x="205" y="561"/>
      <point x="122" y="572"/>
      <point x="54" y="593" type="curve"/>
      <point x="54" y="515" type="line"/>
      <point x="130" y="492"/>
      <point x="211" y="480"/>
      <point x="304" y="480" type="curve" smooth="yes"/>
      <point x="327" y="480"/>
      <point x="344" y="480"/>
      <point x="355" y="481" type="curve"/>
      <point x="433" y="392"/>
      <point x="452" y="344"/>
      <point x="452" y="287" type="curve" smooth="yes"/>
      <point x="452" y="243"/>
      <point x="431" y="221"/>
      <point x="388" y="221" type="curve" smooth="yes"/>
      <point x="327" y="221"/>
      <point x="264" y="270"/>
      <point x="198" y="270" type="curve" smooth="yes"/>
      <point x="107" y="270"/>
      <point x="47" y="211"/>
      <point x="47" y="108" type="curve" smooth="yes"/>
      <point x="47" y="74"/>
      <point x="53" y="38"/>
      <point x="66" y="0" type="curve"/>
      <point x="153" y="0" type="line"/>
      <point x="139" y="42"/>
      <point x="132" y="77"/>
      <point x="132" y="108" type="curve" smooth="yes"/>
      <point x="132" y="165"/>
      <point x="153" y="189"/>
      <point x="198" y="189" type="curve" smooth="yes"/>
      <point x="246" y="189"/>
      <point x="314" y="140"/>
      <point x="390" y="140" type="curve" smooth="yes"/>
      <point x="482" y="140"/>
      <point x="538" y="193"/>
      <point x="538" y="289" type="curve" smooth="yes"/>
      <point x="538" y="310"/>
      <point x="537" y="327"/>
      <point x="533" y="341" type="curve"/>
      <point x="542" y="341" type="line" smooth="yes"/>
      <point x="590" y="341"/>
      <point x="611" y="302"/>
      <point x="611" y="214" type="curve" smooth="yes"/>
      <point x="611" y="137"/>
      <point x="590" y="59"/>
      <point x="549" y="-20" type="curve"/>
      <point x="608" y="-52" type="line"/>
      <point x="663" y="40"/>
      <point x="691" y="128"/>
      <point x="691" y="216" type="curve" smooth="yes"/>
      <point x="691" y="348"/>
      <point x="636" y="419"/>
      <point x="542" y="419" type="curve" smooth="yes"/>
      <point x="528" y="419"/>
      <point x="515" y="417"/>
      <point x="504" y="415" type="curve"/>
      <point x="495" y="433"/>
      <point x="478" y="458"/>
      <point x="452" y="491" type="curve"/>
      <point x="490" y="498"/>
      <point x="524" y="506"/>
      <point x="554" y="515" type="curve"/>
    </contour>
  </outline>
</glyph>
<glyph name="uni1C0E_1C25_1C24" format="2">
  <advance width="954"/>
  <note>
u1C0E_1C25_1C24
</note>
  <outline>
    <contour>
      <point x="805" y="424" type="line"/>
      <point x="821" y="381"/>
      <point x="829" y="339"/>
      <point x="829" y="298" type="curve" smooth="yes"/>
      <point x="829" y="244"/>
      <point x="815" y="190"/>
      <point x="786" y="137" type="curve"/>
      <point x="783" y="138" type="line"/>
      <point x="760" y="331"/>
      <point x="697" y="427"/>
      <point x="594" y="427" type="curve" smooth="yes"/>
      <point x="564" y="427"/>
      <point x="535" y="421"/>
      <point x="506" y="411" type="curve"/>
      <point x="493" y="435"/>
      <point x="475" y="461"/>
      <point x="452" y="491" type="curve"/>
      <point x="490" y="498"/>
      <point x="524" y="506"/>
      <point x="554" y="515" type="curve"/>
      <point x="554" y="593" type="line"/>
      <point x="486" y="572"/>
      <point x="403" y="561"/>
      <point x="304" y="561" type="curve" smooth="yes"/>
      <point x="205" y="561"/>
      <point x="122" y="572"/>
      <point x="54" y="593" type="curve"/>
      <point x="54" y="515" type="line"/>
      <point x="126" y="492"/>
      <point x="209" y="480"/>
      <point x="304" y="480" type="curve" smooth="yes"/>
      <point x="327" y="480"/>
      <point x="344" y="480"/>
      <point x="355" y="481" type="curve"/>
      <point x="433" y="392"/>
      <point x="452" y="344"/>
      <point x="452" y="287" type="curve" smooth="yes"/>
      <point x="452" y="243"/>
      <point x="431" y="221"/>
      <point x="388" y="221" type="curve" smooth="yes"/>
      <point x="327" y="221"/>
      <point x="264" y="270"/>
      <point x="198" y="270" type="curve" smooth="yes"/>
      <point x="107" y="270"/>
      <point x="47" y="211"/>
      <point x="47" y="108" type="curve" smooth="yes"/>
      <point x="47" y="74"/>
      <point x="53" y="38"/>
      <point x="66" y="0" type="curve"/>
      <point x="153" y="0" type="line"/>
      <point x="139" y="42"/>
      <point x="132" y="77"/>
      <point x="132" y="108" type="curve" smooth="yes"/>
      <point x="132" y="165"/>
      <point x="153" y="189"/>
      <point x="198" y="189" type="curve" smooth="yes"/>
      <point x="245" y="189"/>
      <point x="314" y="140"/>
      <point x="390" y="140" type="curve" smooth="yes"/>
      <point x="482" y="140"/>
      <point x="538" y="193"/>
      <point x="538" y="289" type="curve" smooth="yes"/>
      <point x="538" y="310"/>
      <point x="537" y="327"/>
      <point x="533" y="342" type="curve"/>
      <point x="535" y="342"/>
      <point x="538" y="343"/>
      <point x="541" y="343" type="curve" smooth="yes"/>
      <point x="568" y="343"/>
      <point x="581" y="307"/>
      <point x="581" y="236" type="curve" smooth="yes"/>
      <point x="581" y="153"/>
      <point x="574" y="71"/>
      <point x="560" y="-10" type="curve"/>
      <point x="629" y="-25" type="line"/>
      <point x="650" y="61"/>
      <point x="661" y="142"/>
      <point x="661" y="217" type="curve" smooth="yes"/>
      <point x="661" y="271"/>
      <point x="652" y="313"/>
      <point x="634" y="342" type="curve"/>
      <point x="636" y="345" type="line"/>
      <point x="690" y="304"/>
      <point x="713" y="185"/>
      <point x="731" y="76" type="curve"/>
      <point x="808" y="51" type="line"/>
      <point x="880" y="148"/>
      <point x="909" y="222"/>
      <point x="909" y="319" type="curve" smooth="yes"/>
      <point x="909" y="364"/>
      <point x="902" y="408"/>
      <point x="887" y="452" type="curve"/>
    </contour>
  </outline>
</glyph>
<glyph name="uni1C0F_1C24" format="2">
  <advance width="864"/>
  <note>
u1C0F_1C24
</note>
  <outline>
    <contour>
      <point x="715" y="580" type="line"/>
      <point x="731" y="538"/>
      <point x="739" y="496"/>
      <point x="739" y="454" type="curve" smooth="yes"/>
      <point x="739" y="400"/>
      <point x="725" y="346"/>
      <point x="696" y="293" type="curve"/>
      <point x="693" y="294" type="line"/>
      <point x="673" y="409"/>
      <point x="631" y="501"/>
      <point x="547" y="593" type="curve"/>
      <point x="479" y="572"/>
      <point x="396" y="561"/>
      <point x="297" y="561" type="curve" smooth="yes"/>
      <point x="198" y="561"/>
      <point x="115" y="572"/>
      <point x="47" y="593" type="curve"/>
      <point x="47" y="515" type="line"/>
      <point x="77" y="506"/>
      <point x="111" y="498"/>
      <point x="149" y="491" type="curve"/>
      <point x="83" y="405"/>
      <point x="63" y="354"/>
      <point x="63" y="289" type="curve" smooth="yes"/>
      <point x="63" y="193"/>
      <point x="119" y="140"/>
      <point x="211" y="140" type="curve" smooth="yes"/>
      <point x="284" y="140"/>
      <point x="358" y="189"/>
      <point x="403" y="189" type="curve" smooth="yes"/>
      <point x="448" y="189"/>
      <point x="469" y="165"/>
      <point x="469" y="108" type="curve" smooth="yes"/>
      <point x="469" y="77"/>
      <point x="462" y="42"/>
      <point x="448" y="0" type="curve"/>
      <point x="535" y="0" type="line"/>
      <point x="548" y="38"/>
      <point x="554" y="74"/>
      <point x="554" y="108" type="curve" smooth="yes"/>
      <point x="554" y="211"/>
      <point x="494" y="270"/>
      <point x="403" y="270" type="curve" smooth="yes"/>
      <point x="338" y="270"/>
      <point x="272" y="221"/>
      <point x="213" y="221" type="curve" smooth="yes"/>
      <point x="170" y="221"/>
      <point x="149" y="243"/>
      <point x="149" y="287" type="curve" smooth="yes"/>
      <point x="149" y="344"/>
      <point x="168" y="392"/>
      <point x="246" y="481" type="curve"/>
      <point x="257" y="480"/>
      <point x="274" y="480"/>
      <point x="297" y="480" type="curve" smooth="yes"/>
      <point x="377" y="480"/>
      <point x="450" y="489"/>
      <point x="515" y="506" type="curve"/>
      <point x="583" y="426"/>
      <point x="617" y="348"/>
      <point x="641" y="232" type="curve"/>
      <point x="718" y="207" type="line"/>
      <point x="790" y="304"/>
      <point x="819" y="377"/>
      <point x="819" y="475" type="curve" smooth="yes"/>
      <point x="819" y="520"/>
      <point x="812" y="564"/>
      <point x="797" y="608" type="curve"/>
    </contour>
  </outline>
</glyph>
<glyph name="uni1C10_1C24" format="2">
  <advance width="892"/>
  <note>
u1C10_1C24
</note>
  <outline>
    <contour>
      <point x="743" y="420" type="line"/>
      <point x="759" y="377"/>
      <point x="767" y="335"/>
      <point x="767" y="294" type="curve" smooth="yes"/>
      <point x="767" y="240"/>
      <point x="753" y="186"/>
      <point x="724" y="133" type="curve"/>
      <point x="721" y="134" type="line"/>
      <point x="696" y="284"/>
      <point x="660" y="425"/>
      <point x="555" y="425" type="curve" smooth="yes"/>
      <point x="536" y="425"/>
      <point x="519" y="421"/>
      <point x="504" y="415" type="curve"/>
      <point x="492" y="437"/>
      <point x="475" y="462"/>
      <point x="452" y="491" type="curve"/>
      <point x="490" y="498"/>
      <point x="524" y="506"/>
      <point x="554" y="515" type="curve"/>
      <point x="554" y="593" type="line"/>
      <point x="486" y="572"/>
      <point x="403" y="561"/>
      <point x="304" y="561" type="curve" smooth="yes"/>
      <point x="205" y="561"/>
      <point x="122" y="572"/>
      <point x="54" y="593" type="curve"/>
      <point x="54" y="515" type="line"/>
      <point x="62" y="513"/>
      <point x="76" y="508"/>
      <point x="99" y="502" type="curve"/>
      <point x="70" y="445"/>
      <point x="55" y="390"/>
      <point x="55" y="336" type="curve" smooth="yes"/>
      <point x="55" y="291"/>
      <point x="62" y="250"/>
      <point x="76" y="212" type="curve"/>
      <point x="57" y="185"/>
      <point x="47" y="150"/>
      <point x="47" y="108" type="curve" smooth="yes"/>
      <point x="47" y="74"/>
      <point x="53" y="38"/>
      <point x="66" y="0" type="curve"/>
      <point x="153" y="0" type="line"/>
      <point x="139" y="42"/>
      <point x="132" y="77"/>
      <point x="132" y="108" type="curve" smooth="yes"/>
      <point x="132" y="165"/>
      <point x="153" y="189"/>
      <point x="198" y="189" type="curve" smooth="yes"/>
      <point x="240" y="189"/>
      <point x="321" y="140"/>
      <point x="390" y="140" type="curve" smooth="yes"/>
      <point x="482" y="140"/>
      <point x="538" y="193"/>
      <point x="538" y="289" type="curve" smooth="yes"/>
      <point x="538" y="310"/>
      <point x="537" y="328"/>
      <point x="533" y="342" type="curve"/>
      <point x="539" y="345"/>
      <point x="543" y="347"/>
      <point x="549" y="347" type="curve" smooth="yes"/>
      <point x="605" y="347"/>
      <point x="642" y="190"/>
      <point x="661" y="75" type="curve"/>
      <point x="746" y="47" type="line"/>
      <point x="818" y="145"/>
      <point x="847" y="218"/>
      <point x="847" y="315" type="curve" smooth="yes"/>
      <point x="847" y="359"/>
      <point x="840" y="404"/>
      <point x="825" y="448" type="curve"/>
    </contour>
    <contour>
      <point x="388" y="221" type="curve" smooth="yes"/>
      <point x="329" y="221"/>
      <point x="263" y="270"/>
      <point x="198" y="270" type="curve" smooth="yes"/>
      <point x="180" y="270"/>
      <point x="162" y="268"/>
      <point x="145" y="262" type="curve"/>
      <point x="140" y="285"/>
      <point x="137" y="310"/>
      <point x="137" y="336" type="curve" smooth="yes"/>
      <point x="137" y="389"/>
      <point x="150" y="440"/>
      <point x="177" y="488" type="curve"/>
      <point x="220" y="482"/>
      <point x="262" y="480"/>
      <point x="304" y="480" type="curve" smooth="yes"/>
      <point x="327" y="480"/>
      <point x="344" y="480"/>
      <point x="355" y="481" type="curve"/>
      <point x="433" y="392"/>
      <point x="452" y="344"/>
      <point x="452" y="287" type="curve" smooth="yes"/>
      <point x="452" y="243"/>
      <point x="431" y="221"/>
    </contour>
  </outline>
</glyph>
<glyph name="uni1C11_1C24" format="2">
  <advance width="868"/>
  <note>
u1C11_1C24
</note>
  <outline>
    <contour>
      <point x="719" y="401" type="line"/>
      <point x="735" y="358"/>
      <point x="743" y="316"/>
      <point x="743" y="275" type="curve" smooth="yes"/>
      <point x="743" y="221"/>
      <point x="729" y="167"/>
      <point x="700" y="114" type="curve"/>
      <point x="697" y="115" type="line"/>
      <point x="665" y="279"/>
      <point x="619" y="345"/>
      <point x="537" y="345" type="curve" smooth="yes"/>
      <point x="504" y="345"/>
      <point x="442" y="333"/>
      <point x="354" y="333" type="curve" smooth="yes"/>
      <point x="289" y="333"/>
      <point x="226" y="337"/>
      <point x="164" y="345" type="curve"/>
      <point x="175" y="401"/>
      <point x="194" y="452"/>
      <point x="220" y="498" type="curve"/>
      <point x="252" y="494"/>
      <point x="289" y="491"/>
      <point x="330" y="491" type="curve" smooth="yes"/>
      <point x="403" y="491"/>
      <point x="462" y="499"/>
      <point x="510" y="515" type="curve"/>
      <point x="510" y="593" type="line"/>
      <point x="458" y="578"/>
      <point x="399" y="571"/>
      <point x="332" y="571" type="curve" smooth="yes"/>
      <point x="269" y="571"/>
      <point x="214" y="577"/>
      <point x="166" y="589" type="curve"/>
      <point x="95" y="454"/>
      <point x="70" y="359"/>
      <point x="70" y="244" type="curve" smooth="yes"/>
      <point x="70" y="191"/>
      <point x="79" y="146"/>
      <point x="97" y="110" type="curve"/>
      <point x="72" y="89"/>
      <point x="59" y="59"/>
      <point x="59" y="19" type="curve" smooth="yes"/>
      <point x="59" y="13"/>
      <point x="60" y="6"/>
      <point x="61" y="0" type="curve"/>
      <point x="146" y="0" type="line"/>
      <point x="145" y="6"/>
      <point x="144" y="13"/>
      <point x="144" y="19" type="curve" smooth="yes"/>
      <point x="144" y="45"/>
      <point x="157" y="58"/>
      <point x="183" y="58" type="curve" smooth="yes"/>
      <point x="237" y="58"/>
      <point x="306" y="-3"/>
      <point x="392" y="-3" type="curve" smooth="yes"/>
      <point x="484" y="-3"/>
      <point x="540" y="50"/>
      <point x="540" y="146" type="curve" smooth="yes"/>
      <point x="540" y="188"/>
      <point x="528" y="227"/>
      <point x="505" y="263" type="curve"/>
      <point x="520" y="265"/>
      <point x="530" y="265"/>
      <point x="537" y="265" type="curve" smooth="yes"/>
      <point x="586" y="265"/>
      <point x="619" y="149"/>
      <point x="637" y="56" type="curve"/>
      <point x="722" y="28" type="line"/>
      <point x="794" y="125"/>
      <point x="823" y="199"/>
      <point x="823" y="296" type="curve" smooth="yes"/>
      <point x="823" y="340"/>
      <point x="816" y="385"/>
      <point x="801" y="429" type="curve"/>
    </contour>
    <contour>
      <point x="454" y="144" type="curve" smooth="yes"/>
      <point x="454" y="100"/>
      <point x="433" y="78"/>
      <point x="390" y="78" type="curve" smooth="yes"/>
      <point x="318" y="78"/>
      <point x="260" y="139"/>
      <point x="183" y="139" type="curve" smooth="yes"/>
      <point x="176" y="139" type="line"/>
      <point x="161" y="164"/>
      <point x="154" y="201"/>
      <point x="154" y="248" type="curve" smooth="yes"/>
      <point x="154" y="268" type="line"/>
      <point x="220" y="258"/>
      <point x="287" y="253"/>
      <point x="355" y="253" type="curve" smooth="yes"/>
      <point x="373" y="253"/>
      <point x="395" y="253"/>
      <point x="420" y="255" type="curve"/>
      <point x="443" y="218"/>
      <point x="454" y="182"/>
    </contour>
  </outline>
</glyph>
<glyph name="uni1C11_1C25" format="2">
  <advance width="749"/>
  <note>
u1C11_1C25
</note>
  <outline>
    <contour>
      <point x="510" y="593" type="line"/>
      <point x="458" y="578"/>
      <point x="399" y="571"/>
      <point x="332" y="571" type="curve" smooth="yes"/>
      <point x="269" y="571"/>
      <point x="214" y="577"/>
      <point x="166" y="589" type="curve"/>
      <point x="95" y="454"/>
      <point x="70" y="359"/>
      <point x="70" y="244" type="curve" smooth="yes"/>
      <point x="70" y="191"/>
      <point x="79" y="146"/>
      <point x="97" y="110" type="curve"/>
      <point x="72" y="89"/>
      <point x="59" y="59"/>
      <point x="59" y="19" type="curve" smooth="yes"/>
      <point x="59" y="13"/>
      <point x="60" y="6"/>
      <point x="61" y="0" type="curve"/>
      <point x="146" y="0" type="line"/>
      <point x="145" y="6"/>
      <point x="144" y="13"/>
      <point x="144" y="19" type="curve" smooth="yes"/>
      <point x="144" y="45"/>
      <point x="157" y="58"/>
      <point x="183" y="58" type="curve" smooth="yes"/>
      <point x="236" y="58"/>
      <point x="307" y="-3"/>
      <point x="392" y="-3" type="curve" smooth="yes"/>
      <point x="484" y="-3"/>
      <point x="540" y="50"/>
      <point x="540" y="146" type="curve" smooth="yes"/>
      <point x="540" y="191"/>
      <point x="529" y="229"/>
      <point x="497" y="275" type="curve"/>
      <point x="522" y="278"/>
      <point x="540" y="280"/>
      <point x="552" y="280" type="curve" smooth="yes"/>
      <point x="600" y="280"/>
      <point x="621" y="242"/>
      <point x="621" y="155" type="curve" smooth="yes"/>
      <point x="621" y="78"/>
      <point x="601" y="0"/>
      <point x="559" y="-79" type="curve"/>
      <point x="618" y="-111" type="line"/>
      <point x="673" y="-20"/>
      <point x="701" y="70"/>
      <point x="701" y="157" type="curve" smooth="yes"/>
      <point x="701" y="289"/>
      <point x="647" y="360"/>
      <point x="552" y="360" type="curve" smooth="yes"/>
      <point x="528" y="360"/>
      <point x="418" y="343"/>
      <point x="334" y="343" type="curve" smooth="yes"/>
      <point x="271" y="343"/>
      <point x="215" y="347"/>
      <point x="166" y="354" type="curve"/>
      <point x="177" y="407"/>
      <point x="195" y="455"/>
      <point x="220" y="498" type="curve"/>
      <point x="252" y="494"/>
      <point x="289" y="491"/>
      <point x="330" y="491" type="curve" smooth="yes"/>
      <point x="403" y="491"/>
      <point x="462" y="499"/>
      <point x="510" y="515" type="curve"/>
    </contour>
    <contour>
      <point x="454" y="144" type="curve" smooth="yes"/>
      <point x="454" y="100"/>
      <point x="433" y="78"/>
      <point x="390" y="78" type="curve" smooth="yes"/>
      <point x="319" y="78"/>
      <point x="260" y="139"/>
      <point x="183" y="139" type="curve" smooth="yes"/>
      <point x="176" y="139" type="line"/>
      <point x="159" y="165"/>
      <point x="154" y="213"/>
      <point x="154" y="250" type="curve" smooth="yes"/>
      <point x="154" y="260"/>
      <point x="154" y="270"/>
      <point x="155" y="278" type="curve"/>
      <point x="214" y="268"/>
      <point x="274" y="263"/>
      <point x="335" y="263" type="curve" smooth="yes"/>
      <point x="364" y="263"/>
      <point x="390" y="264"/>
      <point x="413" y="266" type="curve"/>
      <point x="445" y="218"/>
      <point x="454" y="185"/>
    </contour>
  </outline>
</glyph>
<glyph name="uni1C11_1C25_1C24" format="2">
  <advance width="969"/>
  <note>
u1C11_1C25_1C24
</note>
  <outline>
    <contour>
      <point x="820" y="359" type="line"/>
      <point x="836" y="316"/>
      <point x="844" y="274"/>
      <point x="844" y="233" type="curve" smooth="yes"/>
      <point x="844" y="179"/>
      <point x="830" y="125"/>
      <point x="801" y="72" type="curve"/>
      <point x="798" y="73" type="line"/>
      <point x="775" y="266"/>
      <point x="712" y="362"/>
      <point x="609" y="362" type="curve" smooth="yes"/>
      <point x="586" y="362"/>
      <point x="445" y="343"/>
      <point x="354" y="343" type="curve" smooth="yes"/>
      <point x="283" y="343"/>
      <point x="220" y="347"/>
      <point x="166" y="355" type="curve"/>
      <point x="177" y="407"/>
      <point x="195" y="455"/>
      <point x="220" y="498" type="curve"/>
      <point x="252" y="494"/>
      <point x="289" y="491"/>
      <point x="330" y="491" type="curve" smooth="yes"/>
      <point x="403" y="491"/>
      <point x="462" y="499"/>
      <point x="510" y="515" type="curve"/>
      <point x="510" y="593" type="line"/>
      <point x="458" y="578"/>
      <point x="399" y="571"/>
      <point x="332" y="571" type="curve" smooth="yes"/>
      <point x="269" y="571"/>
      <point x="214" y="577"/>
      <point x="166" y="589" type="curve"/>
      <point x="95" y="454"/>
      <point x="70" y="359"/>
      <point x="70" y="244" type="curve" smooth="yes"/>
      <point x="70" y="191"/>
      <point x="79" y="146"/>
      <point x="97" y="110" type="curve"/>
      <point x="72" y="89"/>
      <point x="59" y="59"/>
      <point x="59" y="19" type="curve" smooth="yes"/>
      <point x="59" y="13"/>
      <point x="60" y="6"/>
      <point x="61" y="0" type="curve"/>
      <point x="146" y="0" type="line"/>
      <point x="145" y="6"/>
      <point x="144" y="13"/>
      <point x="144" y="19" type="curve" smooth="yes"/>
      <point x="144" y="45"/>
      <point x="157" y="58"/>
      <point x="183" y="58" type="curve" smooth="yes"/>
      <point x="237" y="58"/>
      <point x="306" y="-3"/>
      <point x="392" y="-3" type="curve" smooth="yes"/>
      <point x="481" y="-3"/>
      <point x="537" y="50"/>
      <point x="537" y="146" type="curve" smooth="yes"/>
      <point x="537" y="190"/>
      <point x="524" y="232"/>
      <point x="498" y="272" type="curve"/>
      <point x="533" y="276"/>
      <point x="552" y="278"/>
      <point x="556" y="278" type="curve" smooth="yes"/>
      <point x="583" y="278"/>
      <point x="596" y="242"/>
      <point x="596" y="171" type="curve" smooth="yes"/>
      <point x="596" y="87"/>
      <point x="589" y="5"/>
      <point x="575" y="-75" type="curve"/>
      <point x="644" y="-90" type="line"/>
      <point x="665" y="-4"/>
      <point x="676" y="77"/>
      <point x="676" y="152" type="curve" smooth="yes"/>
      <point x="676" y="206"/>
      <point x="667" y="248"/>
      <point x="649" y="277" type="curve"/>
      <point x="651" y="280" type="line"/>
      <point x="705" y="239"/>
      <point x="728" y="120"/>
      <point x="746" y="11" type="curve"/>
      <point x="823" y="-14" type="line"/>
      <point x="895" y="83"/>
      <point x="924" y="157"/>
      <point x="924" y="254" type="curve" smooth="yes"/>
      <point x="924" y="298"/>
      <point x="917" y="343"/>
      <point x="902" y="387" type="curve"/>
    </contour>
    <contour>
      <point x="454" y="144" type="curve" smooth="yes"/>
      <point x="454" y="100"/>
      <point x="433" y="78"/>
      <point x="390" y="78" type="curve" smooth="yes"/>
      <point x="319" y="78"/>
      <point x="259" y="139"/>
      <point x="183" y="139" type="curve" smooth="yes"/>
      <point x="176" y="139" type="line"/>
      <point x="159" y="164"/>
      <point x="155" y="209"/>
      <point x="154" y="245" type="curve" smooth="yes"/>
      <point x="154" y="257"/>
      <point x="154" y="269"/>
      <point x="155" y="278" type="curve"/>
      <point x="221" y="268"/>
      <point x="288" y="263"/>
      <point x="355" y="263" type="curve" smooth="yes"/>
      <point x="375" y="263"/>
      <point x="394" y="264"/>
      <point x="414" y="264" type="curve"/>
      <point x="445" y="217"/>
      <point x="454" y="184"/>
    </contour>
  </outline>
</glyph>
<glyph name="uni1C13_1C24" format="2">
  <advance width="908"/>
  <note>
u1C13_1C24
</note>
  <outline>
    <contour>
      <point x="759" y="431" type="line"/>
      <point x="775" y="389"/>
      <point x="783" y="347"/>
      <point x="783" y="305" type="curve" smooth="yes"/>
      <point x="783" y="251"/>
      <point x="769" y="197"/>
      <point x="740" y="144" type="curve"/>
      <point x="737" y="145" type="line"/>
      <point x="712" y="295"/>
      <point x="676" y="436"/>
      <point x="571" y="436" type="curve" smooth="yes"/>
      <point x="557" y="436"/>
      <point x="543" y="434"/>
      <point x="531" y="430" type="curve"/>
      <point x="492" y="491"/>
      <point x="424" y="547"/>
      <point x="327" y="597" type="curve"/>
      <point x="143" y="502"/>
      <point x="70" y="394"/>
      <point x="70" y="242" type="curve" smooth="yes"/>
      <point x="70" y="95"/>
      <point x="173" y="-13"/>
      <point x="327" y="-13" type="curve" smooth="yes"/>
      <point x="479" y="-13"/>
      <point x="584" y="94"/>
      <point x="584" y="242" type="curve" smooth="yes"/>
      <point x="584" y="282"/>
      <point x="578" y="320"/>
      <point x="567" y="358" type="curve"/>
      <point x="571" y="358" type="line" smooth="yes"/>
      <point x="623" y="358"/>
      <point x="658" y="198"/>
      <point x="677" y="86" type="curve"/>
      <point x="762" y="58" type="line"/>
      <point x="834" y="155"/>
      <point x="863" y="229"/>
      <point x="863" y="326" type="curve" smooth="yes"/>
      <point x="863" y="371"/>
      <point x="855" y="415"/>
      <point x="841" y="459" type="curve"/>
    </contour>
    <contour>
      <point x="327" y="69" type="curve" smooth="yes"/>
      <point x="220" y="69"/>
      <point x="155" y="142"/>
      <point x="155" y="242" type="curve" smooth="yes"/>
      <point x="155" y="350"/>
      <point x="203" y="426"/>
      <point x="327" y="502" type="curve"/>
      <point x="451" y="427"/>
      <point x="498" y="352"/>
      <point x="498" y="242" type="curve" smooth="yes"/>
      <point x="498" y="143"/>
      <point x="432" y="69"/>
    </contour>
  </outline>
</glyph>
<glyph name="uni1C13_1C25" format="2">
  <advance width="799"/>
  <note>
u1C13_1C25
</note>
  <outline>
    <contour>
      <point x="668" y="-52" type="line"/>
      <point x="723" y="40"/>
      <point x="751" y="128"/>
      <point x="751" y="216" type="curve" smooth="yes"/>
      <point x="751" y="348"/>
      <point x="696" y="419"/>
      <point x="602" y="419" type="curve" smooth="yes"/>
      <point x="586" y="419"/>
      <point x="567" y="416"/>
      <point x="544" y="410" type="curve"/>
      <point x="506" y="479"/>
      <point x="434" y="541"/>
      <point x="327" y="597" type="curve"/>
      <point x="143" y="502"/>
      <point x="70" y="394"/>
      <point x="70" y="242" type="curve" smooth="yes"/>
      <point x="70" y="95"/>
      <point x="173" y="-13"/>
      <point x="327" y="-13" type="curve" smooth="yes"/>
      <point x="479" y="-13"/>
      <point x="584" y="94"/>
      <point x="584" y="242" type="curve" smooth="yes"/>
      <point x="584" y="275"/>
      <point x="581" y="307"/>
      <point x="573" y="338" type="curve"/>
      <point x="583" y="340"/>
      <point x="592" y="341"/>
      <point x="602" y="341" type="curve" smooth="yes"/>
      <point x="650" y="341"/>
      <point x="671" y="302"/>
      <point x="671" y="214" type="curve" smooth="yes"/>
      <point x="671" y="137"/>
      <point x="650" y="59"/>
      <point x="609" y="-20" type="curve"/>
    </contour>
    <contour>
      <point x="327" y="69" type="curve" smooth="yes"/>
      <point x="220" y="69"/>
      <point x="155" y="142"/>
      <point x="155" y="242" type="curve" smooth="yes"/>
      <point x="155" y="350"/>
      <point x="203" y="426"/>
      <point x="327" y="502" type="curve"/>
      <point x="451" y="427"/>
      <point x="498" y="352"/>
      <point x="498" y="242" type="curve" smooth="yes"/>
      <point x="498" y="143"/>
      <point x="432" y="69"/>
    </contour>
  </outline>
</glyph>
<glyph name="uni1C13_1C25_1C24" format="2">
  <advance width="1004"/>
  <note>
u1C13_1C25_1C24
</note>
  <outline>
    <contour>
      <point x="855" y="432" type="line"/>
      <point x="871" y="390"/>
      <point x="879" y="348"/>
      <point x="879" y="306" type="curve" smooth="yes"/>
      <point x="879" y="252"/>
      <point x="865" y="198"/>
      <point x="836" y="145" type="curve"/>
      <point x="833" y="146" type="line"/>
      <point x="810" y="339"/>
      <point x="747" y="435"/>
      <point x="644" y="435" type="curve" smooth="yes"/>
      <point x="608" y="435"/>
      <point x="575" y="428"/>
      <point x="542" y="413" type="curve"/>
      <point x="504" y="481"/>
      <point x="432" y="542"/>
      <point x="327" y="597" type="curve"/>
      <point x="143" y="502"/>
      <point x="70" y="394"/>
      <point x="70" y="242" type="curve" smooth="yes"/>
      <point x="70" y="95"/>
      <point x="173" y="-13"/>
      <point x="327" y="-13" type="curve" smooth="yes"/>
      <point x="479" y="-13"/>
      <point x="584" y="94"/>
      <point x="584" y="242" type="curve" smooth="yes"/>
      <point x="584" y="280"/>
      <point x="580" y="314"/>
      <point x="571" y="345" type="curve"/>
      <point x="578" y="349"/>
      <point x="584" y="351"/>
      <point x="591" y="351" type="curve" smooth="yes"/>
      <point x="618" y="351"/>
      <point x="631" y="315"/>
      <point x="631" y="244" type="curve" smooth="yes"/>
      <point x="631" y="162"/>
      <point x="624" y="80"/>
      <point x="610" y="-2" type="curve"/>
      <point x="679" y="-17" type="line"/>
      <point x="700" y="69"/>
      <point x="711" y="149"/>
      <point x="711" y="225" type="curve" smooth="yes"/>
      <point x="711" y="280"/>
      <point x="702" y="321"/>
      <point x="684" y="350" type="curve"/>
      <point x="686" y="353" type="line"/>
      <point x="740" y="312"/>
      <point x="765" y="190"/>
      <point x="781" y="84" type="curve"/>
      <point x="858" y="59" type="line"/>
      <point x="930" y="156"/>
      <point x="959" y="229"/>
      <point x="959" y="327" type="curve" smooth="yes"/>
      <point x="959" y="372"/>
      <point x="952" y="416"/>
      <point x="937" y="460" type="curve"/>
    </contour>
    <contour>
      <point x="327" y="69" type="curve" smooth="yes"/>
      <point x="220" y="69"/>
      <point x="155" y="142"/>
      <point x="155" y="242" type="curve" smooth="yes"/>
      <point x="155" y="350"/>
      <point x="203" y="426"/>
      <point x="327" y="502" type="curve"/>
      <point x="451" y="427"/>
      <point x="498" y="352"/>
      <point x="498" y="242" type="curve" smooth="yes"/>
      <point x="498" y="143"/>
      <point x="432" y="69"/>
    </contour>
  </outline>
</glyph>
<glyph name="uni1C14_1C24" format="2">
  <advance width="1202"/>
  <note>
u1C14_1C24
</note>
  <outline>
    <contour>
      <point x="1053" y="431" type="line"/>
      <point x="1069" y="389"/>
      <point x="1077" y="347"/>
      <point x="1077" y="305" type="curve" smooth="yes"/>
      <point x="1077" y="251"/>
      <point x="1063" y="197"/>
      <point x="1034" y="144" type="curve"/>
      <point x="1031" y="145" type="line"/>
      <point x="1005" y="295"/>
      <point x="970" y="436"/>
      <point x="865" y="436" type="curve" smooth="yes"/>
      <point x="861" y="436"/>
      <point x="856" y="435"/>
      <point x="852" y="435" type="curve"/>
      <point x="825" y="539"/>
      <point x="750" y="597"/>
      <point x="647" y="597" type="curve" smooth="yes"/>
      <point x="558" y="597"/>
      <point x="499" y="554"/>
      <point x="469" y="468" type="curve"/>
      <point x="465" y="468" type="line"/>
      <point x="436" y="554"/>
      <point x="376" y="597"/>
      <point x="286" y="597" type="curve" smooth="yes"/>
      <point x="154" y="597"/>
      <point x="70" y="503"/>
      <point x="70" y="342" type="curve" smooth="yes"/>
      <point x="70" y="178"/>
      <point x="153" y="53"/>
      <point x="320" y="-22" type="curve"/>
      <point x="354" y="55" type="line"/>
      <point x="218" y="118"/>
      <point x="156" y="205"/>
      <point x="156" y="340" type="curve" smooth="yes"/>
      <point x="156" y="458"/>
      <point x="202" y="516"/>
      <point x="293" y="516" type="curve" smooth="yes"/>
      <point x="381" y="516"/>
      <point x="425" y="432"/>
      <point x="425" y="264" type="curve"/>
      <point x="509" y="264" type="line"/>
      <point x="509" y="446"/>
      <point x="556" y="516"/>
      <point x="640" y="516" type="curve" smooth="yes"/>
      <point x="732" y="516"/>
      <point x="778" y="458"/>
      <point x="778" y="340" type="curve" smooth="yes"/>
      <point x="778" y="205"/>
      <point x="716" y="118"/>
      <point x="579" y="55" type="curve"/>
      <point x="615" y="-22" type="line"/>
      <point x="780" y="53"/>
      <point x="863" y="174"/>
      <point x="863" y="342" type="curve" smooth="yes"/>
      <point x="863" y="358" type="line"/>
      <point x="865" y="358" type="line" smooth="yes"/>
      <point x="917" y="358"/>
      <point x="954" y="194"/>
      <point x="971" y="86" type="curve"/>
      <point x="1056" y="58" type="line"/>
      <point x="1128" y="155"/>
      <point x="1157" y="229"/>
      <point x="1157" y="326" type="curve" smooth="yes"/>
      <point x="1157" y="371"/>
      <point x="1150" y="415"/>
      <point x="1135" y="459" type="curve"/>
    </contour>
  </outline>
</glyph>
